<?xml version="1.0" standalone="no"?>
<!DOCTYPE svg PUBLIC "-//W3C//DTD SVG 20010904//EN"
 "http://www.w3.org/TR/2001/REC-SVG-20010904/DTD/svg10.dtd">
<svg version="1.0" xmlns="http://www.w3.org/2000/svg"
 width="1080.000000pt" height="1080.000000pt" viewBox="0 0 1080.000000 1080.000000"
 preserveAspectRatio="xMidYMid meet">
<metadata>
Created by potrace 1.14, written by Peter Selinger 2001-2017
</metadata>
<g transform="translate(0.000000,1080.000000) scale(0.100000,-0.100000)"
fill="#000000" stroke="none">
<path d="M5298 10448 c-59 -150 -173 -442 -253 -648 -244 -623 -336 -860 -464
-1190 -68 -173 -128 -328 -135 -345 -7 -16 -32 -79 -56 -140 -57 -148 -79
-206 -90 -230 -4 -11 -25 -65 -46 -120 -42 -113 -57 -136 -76 -117 -7 7 -18
12 -26 12 -8 0 -74 18 -146 41 -159 50 -395 123 -573 178 -184 57 -357 110
-568 176 -99 31 -187 58 -195 60 -8 2 -96 29 -195 60 -99 31 -187 58 -195 60
-8 2 -64 20 -125 39 -117 36 -590 183 -840 260 -82 26 -169 53 -193 61 l-43
14 37 -67 c36 -64 385 -680 426 -752 12 -19 30 -51 40 -70 21 -36 91 -160 310
-545 69 -121 135 -236 145 -255 24 -42 202 -356 254 -447 12 -21 32 -56 44
-78 13 -22 49 -85 80 -140 32 -55 69 -120 83 -145 13 -25 42 -74 63 -110 59
-102 98 -171 122 -219 21 -42 21 -44 4 -55 -10 -6 -51 -34 -90 -62 -40 -27
-153 -106 -252 -174 -99 -68 -220 -152 -270 -186 -49 -35 -126 -88 -170 -118
-44 -30 -118 -81 -165 -114 -47 -32 -200 -138 -340 -235 -140 -97 -262 -181
-270 -187 -67 -47 -621 -430 -720 -498 -69 -47 -181 -126 -250 -174 -69 -48
-129 -89 -135 -91 -19 -8 0 -16 50 -22 28 -4 57 -8 65 -10 8 -2 35 -7 60 -10
58 -8 99 -14 130 -20 14 -3 43 -7 65 -10 22 -2 49 -6 60 -9 11 -2 41 -6 66
-10 25 -4 57 -9 70 -11 49 -8 105 -16 139 -21 19 -2 46 -6 60 -9 14 -2 39 -7
55 -9 99 -16 376 -58 405 -62 19 -3 73 -11 120 -19 47 -8 105 -17 130 -20 25
-3 70 -10 100 -15 30 -5 84 -14 120 -19 36 -6 108 -17 160 -25 52 -9 115 -18
140 -21 25 -3 83 -12 130 -20 94 -16 209 -34 255 -40 26 -3 111 -16 195 -30
34 -6 206 -32 255 -40 22 -3 51 -8 65 -10 14 -2 75 -11 135 -20 61 -9 117 -18
125 -20 8 -2 25 -4 38 -4 22 -1 22 -3 17 -93 -3 -51 -7 -118 -10 -148 -4 -54
-12 -159 -20 -275 -5 -69 -14 -192 -20 -280 -2 -33 -7 -100 -10 -150 -3 -49
-8 -108 -10 -130 -2 -22 -7 -85 -10 -140 -3 -55 -8 -116 -10 -135 -3 -19 -7
-80 -10 -135 -3 -55 -8 -120 -10 -145 -2 -25 -7 -83 -10 -130 -3 -47 -7 -110
-10 -140 -2 -30 -7 -93 -10 -140 -3 -47 -8 -107 -10 -135 -2 -27 -6 -90 -10
-140 -3 -49 -8 -112 -10 -140 -2 -27 -7 -95 -10 -150 -4 -55 -8 -116 -10 -135
-2 -19 -6 -84 -10 -145 -4 -60 -8 -121 -10 -135 -2 -14 -7 -74 -10 -135 -4
-60 -9 -118 -11 -128 -3 -20 0 -21 18 -4 16 15 129 120 307 287 163 152 252
235 307 286 23 22 92 86 154 144 62 58 129 121 150 140 42 40 256 240 304 285
18 17 86 80 152 141 65 62 135 126 154 144 56 52 147 137 285 267 174 162 184
172 315 293 62 58 132 123 155 145 24 22 56 53 73 68 l30 29 35 -34 c19 -18
87 -82 152 -143 65 -60 148 -138 184 -172 36 -33 85 -78 107 -100 23 -21 95
-88 160 -149 66 -62 135 -126 154 -144 19 -18 88 -82 152 -142 64 -60 126
-117 137 -127 12 -11 85 -79 164 -153 164 -156 254 -240 284 -265 11 -10 83
-77 159 -149 77 -72 170 -160 208 -195 100 -94 137 -128 276 -257 68 -65 131
-124 140 -132 10 -8 34 -31 54 -50 l37 -35 -5 75 c-3 41 -8 102 -11 135 -4 58
-11 157 -20 280 -7 94 -15 214 -20 280 -2 33 -7 96 -10 140 -3 44 -8 105 -10
135 -3 30 -7 92 -10 138 -3 45 -7 108 -10 140 -2 31 -7 98 -10 147 -3 50 -8
110 -10 135 -2 25 -7 86 -10 136 -3 50 -7 109 -9 130 -3 22 -7 86 -11 144 -3
58 -7 119 -9 135 -2 17 -7 82 -11 145 -3 63 -8 126 -10 140 -2 14 -6 75 -10
135 -4 61 -8 123 -10 140 -2 16 -7 75 -10 130 -3 55 -8 125 -10 155 -25 324
-26 303 15 311 19 4 55 10 80 13 25 3 56 8 70 11 13 2 42 7 65 10 61 9 97 15
125 20 14 3 45 7 70 10 25 3 56 7 70 10 14 2 40 7 58 10 17 3 44 7 60 9 15 3
47 8 72 11 25 3 52 8 60 10 8 2 38 6 65 10 28 3 57 8 65 10 8 2 38 6 65 10 28
3 118 17 200 30 83 14 167 27 188 30 20 3 54 7 75 10 20 3 91 14 157 25 66 10
138 21 160 25 22 3 67 10 100 15 33 5 78 12 100 15 43 7 213 33 255 40 80 13
221 35 260 40 25 3 81 12 125 20 44 7 105 16 135 20 30 3 62 8 70 10 8 3 33 7
55 10 22 3 51 7 65 10 14 3 45 8 70 11 25 3 54 8 65 10 10 2 37 6 60 9 22 4
54 9 70 12 17 3 36 6 43 6 7 0 9 4 5 8 -4 4 -307 214 -673 467 -366 253 -721
499 -790 547 -69 48 -278 192 -465 322 -187 129 -349 241 -360 249 -112 80
-381 264 -387 264 -14 0 -9 19 15 58 13 20 37 62 54 92 16 30 39 71 50 90 116
203 190 334 213 375 15 28 41 73 58 101 16 28 45 78 63 110 38 70 62 112 88
157 10 17 65 113 121 212 56 99 112 198 125 220 86 151 366 643 455 800 59
105 122 214 139 243 17 29 31 55 31 57 0 2 27 49 60 105 33 56 60 103 60 105
0 1 18 34 40 71 40 68 48 90 31 80 -8 -5 -690 -219 -801 -251 -25 -7 -90 -27
-145 -45 -55 -17 -122 -38 -150 -47 -66 -19 -562 -173 -740 -228 -77 -24 -156
-48 -175 -54 -19 -5 -84 -25 -145 -44 -163 -52 -698 -218 -715 -222 -8 -2 -64
-20 -125 -39 -60 -19 -113 -32 -117 -28 -3 4 -13 25 -21 47 -12 36 -260 670
-446 1145 -38 96 -101 258 -141 360 -39 102 -102 264 -140 360 -38 96 -119
303 -180 460 -61 157 -115 294 -120 305 -5 11 -39 99 -76 195 -37 96 -70 178
-73 183 -4 4 -55 -115 -113 -265z m57 -3052 c54 -23 71 -75 38 -114 -30 -34
-59 -37 -89 -7 -23 23 -26 32 -20 71 l6 44 -49 0 c-42 0 -53 -4 -75 -30 -24
-29 -46 -114 -32 -127 4 -4 50 -8 104 -9 100 -2 138 -11 161 -38 9 -11 13 -63
14 -186 2 -168 2 -171 26 -189 24 -18 23 -19 -92 -19 -70 0 -117 3 -117 9 0 6
4 8 9 5 5 -3 15 1 22 10 18 22 20 348 2 373 -9 14 -26 18 -73 19 l-60 0 0
-186 c0 -103 4 -192 8 -198 4 -6 16 -16 27 -22 16 -9 -3 -11 -87 -10 -60 0
-108 4 -108 7 0 4 5 12 11 18 7 7 11 69 11 169 0 242 2 224 -28 224 -14 0 -23
4 -19 9 3 6 14 8 25 6 17 -3 21 3 27 37 7 50 70 118 123 135 52 16 194 16 235
-1z m-1623 -25 c27 -12 57 -36 69 -53 24 -34 35 -99 25 -153 -8 -43 -56 -100
-94 -111 -15 -4 -30 -8 -34 -9 -5 -2 -9 -3 -10 -5 -3 -2 -71 -9 -133 -13 l-40
-2 -2 -94 c-1 -88 0 -95 24 -117 l25 -23 -124 0 c-113 1 -121 2 -95 15 15 8
27 22 28 32 3 102 -2 526 -7 533 -3 6 -16 15 -28 20 -13 6 44 8 164 6 170 -2
189 -4 232 -26z m3003 17 c21 -9 31 -9 46 0 24 15 26 -3 3 -36 -17 -24 -53
-29 -86 -11 -15 8 -27 8 -45 0 -22 -10 -23 -10 -12 12 27 51 45 58 94 35z
m-1974 -179 c27 -15 54 -42 73 -73 27 -43 30 -57 30 -125 -2 -120 -38 -178
-139 -216 -63 -24 -159 -16 -218 18 -95 56 -129 197 -74 309 40 81 111 118
219 113 47 -2 79 -9 109 -26z m1082 -2 c52 -31 72 -72 56 -115 -12 -32 -26
-42 -58 -42 -52 0 -73 44 -50 109 10 28 9 34 -7 47 -24 18 -84 11 -101 -12
-29 -40 -3 -90 67 -128 140 -77 176 -114 166 -170 -19 -98 -196 -147 -329 -91
-44 18 -79 69 -73 105 2 14 5 31 5 38 2 21 61 42 87 30 26 -12 43 -45 37 -73
-18 -79 -17 -83 18 -93 68 -18 119 5 119 53 0 34 -25 59 -96 95 -37 19 -87 53
-111 76 -35 33 -43 47 -43 76 0 78 78 126 196 123 57 -1 80 -7 117 -28z m487
2 c42 -24 63 -54 63 -94 0 -55 -64 -85 -105 -48 -20 18 -24 64 -7 95 8 16 8
24 -4 35 -38 38 -117 15 -117 -33 0 -42 17 -61 93 -105 126 -73 164 -115 152
-168 -14 -63 -100 -109 -204 -109 -114 0 -184 39 -196 108 -10 59 13 90 65 90
29 0 42 -5 50 -19 13 -25 13 -67 0 -91 -19 -36 0 -54 66 -64 32 -5 74 15 80
38 11 44 -12 72 -92 117 -110 60 -154 102 -154 146 0 63 33 98 120 127 35 11
153 -4 190 -25z m472 2 c24 -11 54 -37 68 -58 23 -33 25 -49 30 -169 3 -73 8
-135 12 -139 3 -4 16 -1 28 5 36 19 37 0 2 -31 -42 -38 -97 -40 -136 -4 -14
13 -26 29 -26 36 0 6 -9 0 -21 -15 -44 -56 -121 -71 -198 -40 -77 31 -100 118
-46 174 34 35 84 51 172 54 35 2 66 6 70 9 3 4 6 26 5 49 -4 83 -24 124 -68
138 -46 16 -54 7 -47 -49 5 -41 2 -52 -16 -70 -26 -26 -52 -27 -81 -3 -45 37
-14 111 54 132 49 14 150 4 198 -19z m575 2 c72 -34 116 -120 112 -216 -6
-144 -106 -228 -255 -214 -98 9 -154 49 -189 132 -20 51 -18 146 6 200 23 52
81 102 133 114 53 12 150 5 193 -16z m-3293 -17 l18 -24 36 24 c48 33 77 39
123 25 47 -14 74 -56 60 -94 -11 -29 -23 -37 -60 -43 -41 -7 -64 24 -59 80 2
26 1 46 -2 46 -15 0 -70 -42 -80 -61 -7 -13 -12 -69 -12 -143 1 -197 -1 -184
30 -200 25 -13 17 -14 -95 -14 -68 1 -123 5 -123 10 0 5 4 7 9 3 5 -3 17 2 25
11 13 13 16 44 16 185 l0 169 -23 0 c-13 0 -28 -5 -35 -12 -15 -15 -16 -3 -2
22 29 54 137 64 174 16z m1490 -601 c75 -49 87 -175 24 -242 -21 -23 -45 -32
-33 -13 7 12 7 12 -67 14 -42 1 -58 -2 -58 -11 0 -35 -40 2 -63 59 -55 133 83
268 197 193z m-409 -199 c14 -9 25 -20 25 -25 0 -19 107 -118 163 -151 l57
-35 0 -167 c0 -167 0 -168 -22 -169 -105 -7 -159 -5 -186 7 -18 7 -32 17 -32
21 0 4 -32 8 -71 8 -60 0 -73 3 -88 21 -12 15 -28 22 -52 21 -47 0 -87 18
-100 46 -9 20 -18 24 -54 24 -54 0 -105 29 -119 68 -10 28 -14 30 -68 32 -74
2 -143 36 -185 92 -41 53 -42 66 -3 46 39 -20 125 -26 187 -13 57 12 144 53
230 108 122 78 257 106 318 66z m824 9 c66 -17 153 -57 199 -92 54 -41 144
-81 210 -93 65 -11 113 -7 173 15 l37 14 -14 -28 c-37 -74 -122 -123 -216
-125 -38 -1 -58 -5 -58 -13 0 -52 -50 -86 -126 -86 -27 0 -44 -4 -44 -12 0
-16 -36 -48 -58 -52 -9 -2 -30 -4 -47 -5 -16 0 -43 -12 -60 -26 -25 -21 -36
-24 -89 -20 -51 4 -63 2 -77 -15 -12 -16 -30 -20 -87 -22 -39 -2 -86 0 -104 4
l-33 7 0 163 0 163 67 45 c37 24 91 72 120 105 78 89 107 99 207 73z m-486
-105 c1 -1 14 3 30 9 23 9 27 8 28 -7 0 -9 1 -181 1 -381 l1 -364 -24 -9 c-19
-7 -39 -7 -96 2 -2 0 -3 173 -3 384 l0 385 30 -9 c17 -5 31 -9 33 -10z m-206
-519 c12 -6 35 -28 52 -48 28 -34 29 -38 15 -54 -8 -9 -30 -20 -47 -23 -32 -6
-53 -1 -132 27 -21 8 -45 13 -52 10 -22 -9 -14 -41 16 -62 27 -19 166 -61 254
-76 55 -9 42 -26 -39 -51 -73 -23 -72 -25 19 -44 64 -13 76 -34 25 -45 -57
-13 -135 -52 -142 -71 -10 -26 26 -55 99 -79 92 -30 99 -53 28 -81 -56 -21
-67 -20 -125 9 -64 32 -97 62 -118 103 -18 33 -18 40 -4 72 16 40 30 53 99 89
l50 26 -70 22 c-102 32 -137 49 -178 85 -30 26 -37 39 -37 70 0 89 95 153 208
140 32 -4 68 -12 79 -19z m640 -14 c50 -34 70 -102 44 -149 -19 -37 -87 -76
-183 -106 -48 -15 -88 -29 -88 -32 0 -4 17 -12 38 -19 42 -16 92 -54 108 -84
18 -32 7 -88 -24 -120 -15 -16 -60 -45 -100 -64 l-73 -36 29 -13 c76 -32 143
-134 123 -187 -13 -35 -62 -78 -114 -102 l-49 -23 37 -25 c101 -69 90 -151
-27 -210 -46 -24 -60 -27 -77 -17 -33 17 -21 41 32 68 73 37 61 76 -32 104
-31 9 -20 40 19 55 44 18 43 27 -5 47 -47 20 -40 44 21 68 62 25 74 35 74 63
0 31 -26 60 -80 87 -61 31 -63 52 -5 68 25 7 45 16 45 20 0 7 -71 40 -85 40
-2 0 -5 -17 -7 -37 -2 -31 -7 -39 -25 -41 -28 -4 -31 -22 -4 -22 28 0 33 -13
33 -78 0 -125 1 -120 -34 -128 l-33 -7 33 -14 c17 -7 32 -19 33 -26 0 -6 2
-20 4 -29 2 -11 -7 -21 -28 -28 l-32 -12 28 -10 c16 -6 27 -17 28 -29 4 -99 3
-104 -24 -117 -18 -9 -37 -10 -59 -4 -33 8 -33 9 -36 73 l-3 64 33 14 33 13
-32 9 c-28 8 -33 14 -33 39 0 22 7 33 28 44 l27 14 -27 7 -28 7 0 94 c0 92 1
94 25 100 14 3 25 10 25 14 0 4 -11 11 -25 14 -21 5 -25 12 -25 40 0 29 5 36
33 46 l32 12 -32 9 -33 10 0 89 c0 100 4 105 82 98 28 -2 43 1 46 11 4 11 -3
12 -33 7 -20 -4 -50 -4 -66 -1 -25 6 -29 11 -29 41 0 28 4 35 26 40 14 4 43 4
65 1 32 -4 39 -2 35 8 -3 10 6 16 32 21 129 22 282 72 282 93 0 5 3 16 6 24 8
22 -34 28 -75 10 -61 -26 -113 -33 -148 -18 -18 8 -33 19 -33 25 0 18 37 66
65 84 59 39 180 35 242 -7z m-514 -638 c28 -16 20 -34 -28 -58 -55 -28 -88
-66 -79 -95 7 -24 22 -34 79 -57 52 -22 53 -48 3 -67 -45 -17 -70 -12 -127 26
-110 74 -104 167 17 248 41 28 49 30 81 22 20 -6 44 -14 54 -19z m-23 -317
c51 -25 50 -47 -5 -71 -73 -32 -71 -60 4 -97 31 -14 40 -24 38 -41 -1 -13 -8
-23 -16 -23 -11 0 -12 -3 -4 -11 8 -8 17 -5 32 10 30 30 111 25 111 -6 0 -9 6
-13 13 -10 17 6 87 -24 105 -45 18 -22 23 -57 12 -78 -5 -10 -27 -32 -49 -49
l-40 -32 21 39 c28 49 19 83 -27 111 -19 11 -34 26 -33 33 2 7 -3 13 -9 12
-37 -3 -43 -5 -43 -14 0 -5 11 -10 25 -10 14 0 25 -6 26 -12 1 -20 1 -201 0
-219 -1 -13 -13 -16 -61 -16 l-60 1 0 117 0 117 32 13 32 13 -29 8 c-32 8 -46
3 -40 -15 3 -7 -8 -20 -25 -29 -47 -27 -57 -59 -32 -103 19 -31 19 -34 4 -26
-37 20 -72 64 -72 91 0 29 38 75 71 85 30 10 23 18 -42 48 -102 49 -117 123
-37 192 47 40 50 40 98 17z m-543 -546 c90 -20 108 -146 22 -146 -56 0 -83 53
-59 114 9 24 8 26 -21 26 -63 0 -88 -31 -96 -116 l-5 -54 81 0 c47 0 81 -4 81
-10 0 -6 -33 -10 -80 -10 l-80 0 2 -192 3 -192 25 -13 c14 -7 21 -13 15 -14
-40 -6 -218 -3 -228 3 -8 5 -4 8 10 8 12 0 25 5 29 11 5 9 9 323 5 377 -1 6
-12 12 -26 12 -14 0 -25 5 -25 10 0 6 11 10 25 10 14 0 26 3 26 8 1 4 3 16 4
27 12 107 149 173 292 141z m-2359 -70 c2 -49 0 -66 -10 -66 -8 0 -14 16 -15
42 -2 23 -9 49 -17 56 -17 18 -134 24 -139 8 -7 -22 -1 -542 6 -553 5 -7 18
-13 29 -13 12 0 18 -3 14 -7 -10 -10 -246 -10 -246 -1 0 5 9 8 20 8 12 0 24 9
28 20 4 11 7 140 7 287 l0 268 -52 0 c-71 2 -92 -8 -100 -47 -4 -18 -7 -41 -7
-50 1 -10 -5 -18 -12 -18 -10 0 -13 17 -13 64 1 78 -26 72 279 69 l225 -1 3
-66z m5605 53 c21 21 28 11 12 -19 -17 -34 -53 -47 -83 -31 -28 15 -59 14 -65
-1 -3 -8 -6 -6 -6 5 -1 10 10 29 24 43 24 24 25 24 65 8 31 -13 44 -14 53 -5z
m-4880 -178 c76 -37 90 -71 93 -217 1 -67 5 -127 9 -133 8 -15 38 -14 53 1 16
16 15 -2 -1 -23 -17 -22 -57 -43 -90 -47 -21 -2 -36 5 -62 31 -33 33 -36 34
-48 17 -23 -33 -79 -58 -127 -55 -97 4 -159 64 -144 139 7 43 28 62 90 86 58
21 49 20 124 20 l60 0 0 38 c0 109 -26 153 -89 158 -37 2 -42 0 -35 -14 33
-78 -4 -139 -72 -121 -36 10 -50 43 -34 83 13 34 49 56 107 65 60 9 107 1 166
-28z m1149 3 c73 -38 85 -144 17 -159 -56 -13 -91 36 -70 96 15 44 15 47 -17
63 -47 24 -102 -9 -102 -63 0 -23 44 -62 110 -97 81 -43 140 -103 140 -142 0
-139 -332 -178 -395 -46 -18 38 -13 85 10 104 23 19 72 20 88 2 24 -29 27 -50
12 -92 -13 -38 -13 -41 8 -54 37 -24 97 -24 121 0 23 23 20 67 -6 91 -13 11
-50 35 -83 53 -135 74 -170 129 -128 201 42 70 198 93 295 43z m4330 2 c120
-51 150 -249 55 -368 -29 -36 -99 -62 -167 -62 -85 0 -134 18 -177 63 -81 86
-77 260 9 337 24 22 95 51 138 56 34 5 97 -7 142 -26z m-4857 -10 c20 -15 41
-40 47 -54 6 -15 10 -84 10 -153 0 -70 4 -133 9 -140 6 -11 14 -11 38 -2 29
10 30 10 20 -8 -18 -34 -68 -58 -112 -54 -54 3 -87 40 -88 98 0 23 -1 87 -1
142 -1 103 -8 136 -32 161 -33 32 -99 2 -112 -51 -2 -11 -3 -87 -2 -170 3
-145 4 -150 26 -160 12 -5 22 -12 22 -15 0 -9 -228 -6 -236 3 -4 4 2 7 14 7
11 0 24 5 27 11 6 9 10 226 6 320 -1 33 -28 45 -52 23 -16 -15 -17 -14 -12 6
17 64 152 80 186 23 8 -12 12 -12 30 5 40 35 61 43 119 39 43 -2 65 -10 93
-31z m1320 23 c95 -26 148 -105 148 -219 0 -147 -98 -235 -247 -224 -71 5
-113 22 -154 65 -80 82 -75 257 10 336 50 47 157 66 243 42z m1161 -24 l35
-27 21 22 c43 46 120 53 188 17 69 -36 80 -68 80 -225 0 -113 2 -134 16 -139
9 -3 25 -1 35 6 22 13 24 8 8 -21 -15 -27 -72 -49 -112 -43 -17 3 -43 17 -56
30 -23 23 -25 30 -26 169 -2 158 -13 203 -50 212 -36 9 -56 2 -78 -28 -18 -24
-20 -42 -19 -186 0 -88 3 -165 7 -171 3 -6 15 -11 26 -11 11 0 18 -4 15 -8 -3
-6 -215 -9 -236 -3 -3 1 6 7 20 14 l25 13 0 171 c0 154 -2 173 -19 192 -26 29
-67 27 -96 -4 -23 -25 -24 -32 -25 -178 -2 -169 4 -197 36 -197 12 0 19 -3 15
-7 -10 -10 -236 -10 -236 -1 0 5 7 8 15 8 8 0 19 8 24 19 12 21 12 324 0 342
-6 10 -13 10 -35 1 -31 -15 -37 -13 -21 8 42 56 130 68 173 24 23 -22 28 -23
37 -10 42 54 168 60 233 11z m784 11 c77 -39 97 -89 97 -233 0 -129 9 -154 49
-128 30 19 31 6 3 -24 -47 -50 -99 -53 -145 -7 -30 30 -35 32 -43 17 -18 -32
-82 -59 -137 -56 -111 5 -174 92 -125 171 30 49 98 73 214 74 l47 0 0 54 c0
29 -7 69 -15 88 -16 39 -60 64 -94 53 -17 -5 -19 -10 -11 -31 23 -59 -2 -106
-57 -106 -30 0 -63 33 -63 64 0 24 52 75 83 82 46 10 162 -1 197 -18z m557 9
c20 -8 42 -23 49 -33 17 -22 18 -63 1 -86 -16 -22 -73 -24 -93 -4 -16 16 -21
69 -9 104 6 18 3 21 -18 19 -73 -8 -110 -76 -110 -204 -1 -142 37 -211 116
-211 37 0 102 29 119 54 5 7 8 5 8 -5 0 -36 -64 -71 -139 -74 -31 -2 -59 -4
-63 -4 -22 -2 -4 -30 22 -36 34 -8 60 -40 56 -70 -5 -38 -122 -72 -133 -38 -3
7 3 9 16 6 29 -7 51 14 51 49 0 21 -6 31 -20 35 -14 4 -20 14 -20 32 0 21 -10
31 -53 54 -66 34 -97 84 -104 166 -15 161 71 260 225 261 34 0 79 -7 99 -15z
m443 -2 c48 -19 98 -69 106 -107 4 -17 8 -78 9 -136 3 -137 2 -130 28 -130 13
0 29 6 36 13 10 10 10 7 0 -15 -8 -18 -27 -33 -56 -44 -41 -16 -47 -16 -78 -1
-18 9 -36 26 -40 37 -7 21 -8 21 -39 -9 -18 -17 -47 -36 -65 -41 -70 -20 -162
10 -189 61 -18 33 -8 96 19 125 19 20 105 56 127 53 4 -1 33 -1 65 0 l59 1 -3
48 c-4 76 -26 128 -59 142 -35 14 -66 9 -61 -11 9 -37 4 -90 -9 -103 -25 -25
-69 -27 -91 -5 -39 39 -15 101 51 128 35 15 148 11 190 -6z m-5490 -22 c25
-25 31 -27 41 -14 21 25 67 43 109 43 33 0 48 -6 71 -29 16 -16 29 -39 29 -51
0 -23 -44 -69 -63 -66 -57 10 -75 38 -63 96 8 41 -16 40 -60 -4 l-35 -35 3
-157 c3 -158 3 -158 28 -171 29 -15 28 -15 -95 -17 -49 -1 -99 1 -110 5 -19 7
-19 8 2 8 13 1 24 9 28 22 11 34 8 330 -3 341 -6 6 -17 6 -32 -2 -34 -18 -35
-4 -2 30 25 25 38 30 77 30 38 0 52 -5 75 -29z m2944 4 l27 -25 30 20 c77 55
189 25 189 -50 0 -51 -62 -83 -101 -51 -19 15 -23 28 -23 65 1 56 -10 58 -59
13 l-35 -34 1 -159 c2 -155 3 -159 25 -169 12 -5 22 -12 22 -15 0 -3 -54 -5
-120 -5 -66 0 -120 3 -120 8 0 4 9 7 20 7 12 0 24 9 28 20 10 27 9 337 -2 347
-4 4 -20 0 -36 -9 l-29 -16 11 24 c26 57 125 73 172 29z"/>
<path d="M3512 7215 c0 -116 4 -165 12 -166 109 -10 158 41 159 166 1 112 -42
165 -132 165 l-39 0 0 -165z"/>
<path d="M4595 7200 c-40 -44 -57 -216 -31 -317 15 -60 53 -91 93 -77 82 28
88 374 7 404 -37 14 -49 12 -69 -10z"/>
<path d="M6692 7003 c-55 -11 -85 -139 -42 -178 12 -11 28 -15 42 -12 29 8 68
43 69 62 0 8 1 41 2 73 0 54 -1 57 -24 58 -13 1 -34 0 -47 -3z"/>
<path d="M7224 7205 c-31 -21 -48 -97 -47 -205 1 -113 17 -168 56 -190 42 -23
77 1 97 67 15 49 19 197 7 250 -10 41 -37 81 -59 87 -31 8 -31 8 -54 -9z"/>
<path d="M4963 6240 c-23 -10 -68 -36 -100 -57 -63 -42 -113 -68 -126 -64 -5
1 -6 -3 -2 -8 9 -16 60 -3 177 45 59 24 123 44 142 44 20 0 60 -14 98 -35 55
-29 176 -70 184 -62 2 1 -26 17 -60 35 -35 18 -78 46 -97 63 -67 61 -140 74
-216 39z"/>
<path d="M5024 6097 c-100 -44 -206 -112 -118 -76 63 25 194 89 194 94 0 10
-25 4 -76 -18z"/>
<path d="M5144 6030 c-58 -31 -144 -90 -131 -90 14 0 143 71 186 103 37 27 9
20 -55 -13z"/>
<path d="M5279 5991 c-44 -30 -99 -81 -86 -81 12 0 79 46 117 79 44 39 27 40
-31 2z"/>
<path d="M5885 6243 c-16 -9 -48 -31 -70 -48 -22 -18 -67 -47 -100 -63 -52
-27 -55 -30 -25 -25 51 9 141 43 173 66 54 37 101 34 227 -16 97 -38 190 -63
190 -52 0 2 -21 13 -47 26 -27 12 -79 42 -116 67 -101 65 -170 78 -232 45z"/>
<path d="M5900 6116 c0 -12 207 -106 234 -106 12 0 -52 37 -129 74 -53 26
-105 42 -105 32z"/>
<path d="M5845 6017 c86 -54 135 -80 141 -74 5 5 -84 66 -131 89 -69 35 -75
27 -10 -15z"/>
<path d="M5705 5985 c47 -43 104 -80 112 -71 5 5 -77 69 -122 95 l-40 23 50
-47z"/>
<path d="M5564 5506 c-3 -8 -4 -23 -2 -33 4 -20 32 -20 103 -1 l40 10 -42 13
c-84 25 -93 26 -99 11z"/>
<path d="M5562 5353 c0 -111 0 -111 -29 -120 l-28 -10 23 -12 c26 -14 44 -7
36 13 -4 10 11 19 48 31 29 10 71 27 94 39 36 19 40 25 33 44 -9 24 -87 65
-146 77 l-32 6 1 -68z"/>
<path d="M3076 3839 c-33 -39 -37 -126 -8 -152 24 -22 62 -14 89 20 19 23 23
40 23 96 l0 67 -39 0 c-32 0 -44 -6 -65 -31z"/>
<path d="M8548 4069 c-32 -18 -51 -112 -46 -223 5 -105 21 -156 56 -175 35
-18 64 -5 89 42 20 39 28 221 12 284 -19 71 -63 100 -111 72z"/>
<path d="M5047 4068 c-33 -25 -47 -93 -44 -211 2 -84 7 -120 20 -145 41 -76
104 -61 132 30 17 58 19 195 3 259 -18 68 -68 98 -111 67z"/>
<path d="M6989 3864 c-46 -14 -68 -144 -30 -178 15 -14 26 -16 47 -9 45 15 63
50 66 123 l3 65 -35 2 c-19 0 -42 -1 -51 -3z"/>
<path d="M7993 3855 c-47 -33 -50 -165 -3 -180 10 -3 29 0 44 6 43 20 56 51
54 124 l-2 65 -36 0 c-19 0 -45 -7 -57 -15z"/>
</g>
</svg>
