<svg xmlns="http://www.w3.org/2000/svg" viewBox="0 0 825.66 825.66"><defs><style>.cls-1{fill:#4f5737;}.cls-2{fill:#fff;fill-rule:evenodd;}</style></defs><g id="Layer_2" data-name="Layer 2"><g id="Layer_1-2" data-name="Layer 1"><path class="cls-1" d="M412.83,825.66C185.2,825.66,0,640.46,0,412.83S185.2,0,412.83,0,825.66,185.19,825.66,412.83,640.47,825.66,412.83,825.66Z"/><path class="cls-2" d="M348.09,414.78V654.05a6.23,6.23,0,0,0,6.24,6.23h88.85a6.23,6.23,0,0,0,6.23-6.23V410.88h64.42a6.24,6.24,0,0,0,6.21-5.71l6.19-73.26a6.23,6.23,0,0,0-6.21-6.76H449.41v-52a22.06,22.06,0,0,1,22.06-22.06h49.65a6.23,6.23,0,0,0,6.23-6.23V171.61a6.23,6.23,0,0,0-6.23-6.23H437.23a89.14,89.14,0,0,0-89.14,89.14v70.63H303.67a6.23,6.23,0,0,0-6.24,6.23v73.27a6.23,6.23,0,0,0,6.24,6.23h44.42Z"/></g></g></svg>