<svg xmlns="http://www.w3.org/2000/svg" viewBox="0 0 1420 300"><defs><style>.cls-1{isolation:isolate;}.cls-2,.cls-40{fill:#fff;}.cls-3{opacity:0.4;}.cls-4{fill:#f0f1f1;}.cls-5{fill:#505738;}.cls-6{fill:#3e442c;}.cls-7{fill:#535a3b;}.cls-8{fill:#565c3c;}.cls-9{fill:#505739;}.cls-10{fill:#464d32;}.cls-11{fill:#9b853d;}.cls-12{fill:none;stroke:#dddb00;stroke-miterlimit:10;stroke-width:5px;}.cls-13{fill:#dddb00;}.cls-14{fill:#4f5938;}.cls-15{font-size:48px;fill:#171911;font-family:ZillaSlab-SemiBold, Zilla Slab;font-weight:600;}.cls-16{letter-spacing:-0.01em;}.cls-17{letter-spacing:-0.05em;}.cls-18{letter-spacing:0em;}.cls-19{letter-spacing:-0.02em;}.cls-20{fill:#c35c17;}.cls-21{fill:#4f5738;}.cls-22{fill:#394029;}.cls-23{opacity:0.75;mix-blend-mode:multiply;}.cls-24,.cls-40{font-size:35.66px;font-family:Rosmatika-Regular, Rosmatika;letter-spacing:0.01em;}.cls-25{letter-spacing:0.03em;}.cls-26{letter-spacing:0.01em;}.cls-27{letter-spacing:-0.01em;}.cls-28{letter-spacing:0.01em;}.cls-29{letter-spacing:0.02em;}.cls-30{letter-spacing:-0.08em;}.cls-31{letter-spacing:-0.02em;}.cls-32{letter-spacing:-0.01em;}.cls-33{letter-spacing:0.03em;}.cls-34{letter-spacing:0em;}.cls-35{letter-spacing:-0.09em;}.cls-36{letter-spacing:0.02em;}.cls-37{letter-spacing:0.04em;}.cls-38{letter-spacing:0.02em;}.cls-39{letter-spacing:0.01em;}</style></defs><g class="cls-1"><g id="Layer_1" data-name="Layer 1"><rect class="cls-2" width="1420" height="300"/><g class="cls-3"><path class="cls-4" d="M418,51.41c-.92-1.13-3.26-.81-4.21-1.89s-.62-3.65-1.65-4.72a112.78,112.78,0,0,0-10.74-9.87c-1-.85-8.19,2.6-8.19,2.6s.68-8.19-1.53-9.61c-18.33-11.73-38.76-17-57.17-14.84,7.84,6.18,17,19.06,17,19.06,13.34,23.46,1.63,46.8-13.56,57.57l0,0c-3.77-5.38-28.22-20.87-28.22-20.87s6.36,28.39,10,33.63h0c-15.31,10.42-40.93,13.29-58.32-7a2,2,0,0,0,0-.24c-4.79-5.62-9-13-12.11-22.46-8.23,16.6-10.27,37.58-5.46,58.81.58,2.56,8.51,4.71,8.51,4.71s-5.67,5.54-5.23,6.82a113.55,113.55,0,0,0,5.64,13.45c.66,1.33,3.16,1.83,3.87,3.15s-.4,3.36.35,4.61q2.28,3.84,4.9,7.58c22.9,32.61,62.26,53.4,89,45.51a64.46,64.46,0,0,1-16-17.38l-.22,0c-14-23.29-3.08-47.56,12.32-58.73l8.41,12a2.83,2.83,0,0,0,3.91.8L373,144.4a2.84,2.84,0,0,0,.57-4s-3.55-5-8.4-12c15.74-10.94,42.69-13.13,60,8.32h0v0A64.74,64.74,0,0,1,436,157.72c16.49-22.43,10.32-66.51-12.58-99.13Q420.84,54.86,418,51.41Z"/><path class="cls-5" d="M334.79,200.18l-1.52-.24a43.05,43.05,0,0,1-4.3-.83c-1.86-.39-4.08-1.05-6.62-1.84-1.25-.44-2.6-.89-4-1.42s-2.85-1.16-4.35-1.86a84.29,84.29,0,0,1-9.46-5.07,90,90,0,0,1-9.89-6.93,102.74,102.74,0,0,1-9.6-8.77,106.9,106.9,0,0,1-8.61-10.37l-.5-.69-.49-.73-.91-1.39c-.61-.93-1.23-1.83-1.8-2.83L271,154.28l-1.57-3a84.51,84.51,0,0,1-5.09-12c-.73-2-1.27-4-1.83-5.92s-1-3.88-1.29-5.76A79,79,0,0,1,259.83,117c-.14-1.65-.14-3.23-.18-4.73s.07-2.91.1-4.24c.16-2.66.35-5,.62-6.83s.54-3.32.72-4.32l.29-1.51-.11,1.55c-.07,1-.18,2.49-.22,4.38s-.08,4.19,0,6.81.36,5.6.77,8.81c.24,1.61.44,3.28.81,5s.68,3.49,1.12,5.3a97.37,97.37,0,0,0,3.45,11.19,95.35,95.35,0,0,0,5.17,11.42l1.53,2.83,1.66,2.75c1.1,1.8,2.44,3.75,3.64,5.44a103.8,103.8,0,0,0,8.19,10.06,118.88,118.88,0,0,0,9.09,8.68,109.74,109.74,0,0,0,9.33,7.1,104.8,104.8,0,0,0,9,5.46c2.87,1.53,5.55,2.82,8,3.88s4.58,1.85,6.37,2.41,3.22,1,4.2,1.3Z"/><path class="cls-4" d="M271.26,117.4A85.3,85.3,0,0,0,286,155.09a93.53,93.53,0,0,0,30.75,27.6,59.7,59.7,0,0,1,15.85-44.43L317.65,117A59.4,59.4,0,0,1,271.26,117.4Z"/><polygon class="cls-5" points="285.9 197.55 295.61 189.02 291.83 201.7 285.9 197.55"/><polygon class="cls-5" points="291 200.6 296.23 198.9 297.02 204.6 291 200.6"/><polygon class="cls-5" points="693.46 600.37 679.93 609.86 481.04 329.31 350.98 141.25 364.5 131.76 497.18 317.98 693.46 600.37"/><path class="cls-5" d="M696,604l-13.52,9.49c-.77.54-2.5-.6-3.88-2.56L479.68,330.34,349.54,142.17c-1.36-2-1.84-4-1.07-4.5L362,128.18c.76-.54,2.48.59,3.87,2.54L498.54,316.94,694.88,599.43C696.25,601.39,696.74,603.41,696,604Zm-17.17,1.36,10.76-7.56L495.76,318.92,365.65,136.3l-10.78,7.57L482.48,328.4Z"/><path class="cls-5" d="M366.49,138.79c-5.45-6.53-10.6-13.32-15.69-20.13q-5.4-7.2-10.65-14.53a171.59,171.59,0,0,0-10.92-13.61,130,130,0,0,1-9.52-11.68c8.51,5.22,15.81,12.87,21.52,21.1q9.91,14.28,19.2,29C362.5,132.17,364.54,135.46,366.49,138.79Z"/><path class="cls-2" d="M400.44,207c14,18.21,27.53,37.26,40.72,56.2s26.4,38.19,38.6,57.62c-14-18.2-27.53-37.26-40.72-56.2S412.64,226.47,400.44,207Z"/><path class="cls-5" d="M425.43,136.56s0-.54.1-1.56.18-2.5.2-4.38,0-4.18-.1-6.81-.48-5.59-.94-8.81a104.9,104.9,0,0,0-2.09-10.28,109.91,109.91,0,0,0-3.51-11.19A117.46,117.46,0,0,0,414,82a102.77,102.77,0,0,0-6.68-11.13c-1.18-1.7-2.56-3.62-3.88-5.27l-2-2.49-2.14-2.41a94.6,94.6,0,0,0-9-8.74A97.38,97.38,0,0,0,381,45c-1.56-1-3.09-2-4.61-2.85s-3-1.69-4.42-2.46c-2.89-1.48-5.6-2.7-8-3.72s-4.6-1.77-6.4-2.32-3.22-1-4.2-1.27l-1.49-.43,1.52.24c1,.17,2.47.33,4.3.79s4.08,1,6.63,1.74c1.26.42,2.62.84,4,1.35s2.88,1.08,4.39,1.77a81.35,81.35,0,0,1,9.54,4.92c1.66.94,3.28,2.07,5,3.17s3.33,2.37,4.94,3.73a84.92,84.92,0,0,1,9.55,8.86c.74.83,1.49,1.65,2.24,2.48l2.17,2.63c.75.88,1.38,1.77,2,2.66l1,1.33.52.71.47.7A105.27,105.27,0,0,1,417,80.61a103.34,103.34,0,0,1,5,12,90,90,0,0,1,3.16,11.66,85.11,85.11,0,0,1,1.55,10.62c.15,1.64.2,3.23.27,4.73s0,2.92,0,4.25c-.12,2.66-.26,5-.52,6.85s-.51,3.33-.68,4.32Z"/><path class="cls-4" d="M369.16,48.68A85.22,85.22,0,0,1,399.61,75.3a93.36,93.36,0,0,1,15.51,38.29,59.73,59.73,0,0,0-47.17-.18L353,92.18A59.41,59.41,0,0,0,369.16,48.68Z"/><path class="cls-5" d="M437.39,159a1.62,1.62,0,0,1-1.31.25,1.9,1.9,0,0,1-1.39-1.27c-5.49-17-15.26-28.54-28.26-33.47-12.28-4.67-27.2-3-38.51,4.28l7.35,10.47a4.59,4.59,0,0,1-.91,6.42l-13.64,9.58a4.6,4.6,0,0,1-6.35-1.33L347,143.46c-10.66,8.17-17.32,21.63-17.11,34.76.23,13.91,7.79,27,21.88,37.95a1.9,1.9,0,0,1,.73,1.75,1.64,1.64,0,0,1-1.15,1.36c-27.07,8-66.94-12.4-90.78-46.36-1.75-2.5-3.43-5.09-5-7.7a1.9,1.9,0,0,1-.27-.93l-.08-3.83-3.34-2.41a1.9,1.9,0,0,1-.61-.71,115,115,0,0,1-5.73-13.67,1.76,1.76,0,0,1,.24-1.65l3.94-5.15-6.6-3.66a1.93,1.93,0,0,1-.94-1.25c-4.91-21.56-3-42.83,5.46-59.92a1.66,1.66,0,0,1,1.68-.89,1.91,1.91,0,0,1,1.54,1.29c5.76,17.3,15.63,29,28.53,33.84,12.1,4.53,27,2.66,38.39-4.73-3.78-7.69-8.87-30-9.49-32.69a1.73,1.73,0,0,1,.65-1.79h0a1.71,1.71,0,0,1,1.9,0c2.33,1.49,21.52,13.75,27.52,20,8.43-6.64,17.58-19.34,17.3-34.92-.26-13.66-7.83-26.76-21.92-37.87a1.94,1.94,0,0,1-.69-1.9,1.63,1.63,0,0,1,1.41-1.27c18.94-2.13,39.61,3.28,58.21,15.22a1.93,1.93,0,0,1,.85,1.31l1.2,7.45,6.19-2a1.75,1.75,0,0,1,1.63.34,114.62,114.62,0,0,1,10.91,10,1.82,1.82,0,0,1,.46.81l1.13,4,3.58,1.38a1.85,1.85,0,0,1,.79.57c1.92,2.34,3.79,4.8,5.54,7.3,23.84,33.95,29.44,78.37,12.76,101.12A1.45,1.45,0,0,1,437.39,159Zm-72.85-32.33c12.31-8.58,29.14-10.74,42.93-5.5,9.33,3.54,21.75,12,29.32,32.4,13.2-22.1,7.06-63.28-14.58-94.1-1.6-2.28-3.3-4.53-5-6.68l-4-1.53A1.9,1.9,0,0,1,412,50l-1.26-4.43a112.8,112.8,0,0,0-9.46-8.75L394,39.11a1.73,1.73,0,0,1-1.49-.22,1.94,1.94,0,0,1-.85-1.3l-1.4-8.75c-16.36-10.32-34.3-15.41-51-14.54,16.09,14.08,19.8,28.28,20,38,.32,17.66-10.07,31.55-19.9,38.66a1.5,1.5,0,0,1-1.3.27,1.87,1.87,0,0,1-1.16-.77c-2.51-3.57-16.1-12.86-24.16-18.12,2.24,9.4,6.4,25.4,8.84,28.86a1.81,1.81,0,0,1-.34,2.5c-9.86,6.92-26.28,12.12-42.77,5.94-9.17-3.44-21.42-11.79-29.31-32.05-6.51,15.45-7.82,34.05-3.67,52.94l7.75,4.3a1.94,1.94,0,0,1,.94,1.24,1.78,1.78,0,0,1-.3,1.47l-4.64,6.06a112.71,112.71,0,0,0,5,11.87l3.75,2.7a1.9,1.9,0,0,1,.8,1.51l.08,4.28c1.43,2.38,3,4.74,4.56,7,21.64,30.83,58.28,50.6,83.55,45.68-16.57-14-20.35-28.6-20.51-38.58-.24-14.79,7.56-29.94,19.88-38.59a1.76,1.76,0,0,1,2.45.51l8.41,12a1.06,1.06,0,0,0,1.47.3l13.64-9.58a1,1,0,0,0,.21-1.47l-8.42-12a1.78,1.78,0,0,1,.19-2.34A1.12,1.12,0,0,1,364.54,126.67Z"/><polygon class="cls-5" points="441.45 96.66 428.25 95.91 439.57 89.68 441.45 96.66"/><polygon class="cls-5" points="442.42 102.53 437.32 99.85 440.7 95.52 442.42 102.53"/><polygon class="cls-5" points="321.53 101.21 335.53 124.12 318.74 103.17 321.53 101.21"/><polygon class="cls-5" points="339.47 88.25 362.73 124.36 336.67 90.21 339.47 88.25"/><path class="cls-4" d="M402.85,187.26l-12.7,8.91c-3.21,2.26-9.75-1.52-15.54-9.76h0c-5.78-8.24-6.22-14.41-3-16.66l12.7-8.91c3.21-2.26,8.86.25,14.64,8.49h0C404.73,177.57,406.06,185,402.85,187.26Z"/><path class="cls-5" d="M405.36,190.85l-12.69,8.9c-4.12,2.89-12.48-2.42-19.46-12.36-6.78-9.67-8.44-18.19-4.12-21.22l12.69-8.91c4.32-3,11.78,1.42,18.56,11.09C407.32,178.28,409.47,188,405.36,190.85Zm-31.24-17.52c-2.14,1.5-2.77,5.47,1.89,12.1,4.17,5.95,9.07,9,11.63,7.16l12.69-8.91c2.56-1.8,1.39-7.42-2.78-13.37-4.66-6.63-8.6-7.39-10.74-5.89Z"/><path class="cls-5" d="M381.64,188.9a16.21,16.21,0,0,1,6.74-8.75,16,16,0,0,1,10.52-3.37,18.62,18.62,0,0,1-17.26,12.12Z"/><path class="cls-4" d="M1001.26,66c.88-1.06,3.09-.76,4-1.78s.59-3.45,1.56-4.47A107.12,107.12,0,0,1,1017,50.45c1-.81,7.75,2.46,7.75,2.46s-.64-7.76,1.45-9.09c17.36-11.11,36.69-16,54.12-14.06-7.43,5.85-16.11,18.05-16.11,18.05-12.63,22.2-1.55,44.3,12.83,54.49l0,0c3.57-5.09,26.72-19.75,26.72-19.75s-6,26.87-9.51,31.83v0c14.49,9.85,38.74,12.57,55.2-6.62a1.66,1.66,0,0,0,0-.22,62.8,62.8,0,0,0,11.47-21.27c7.79,15.72,9.72,35.58,5.17,55.68-.54,2.42-8.06,4.45-8.06,4.45s5.37,5.25,5,6.46a106.37,106.37,0,0,1-5.33,12.73c-.63,1.27-3,1.74-3.67,3s.38,3.17-.33,4.36c-1.44,2.42-3,4.81-4.64,7.17-21.67,30.88-58.93,50.55-84.2,43.08a61.09,61.09,0,0,0,15.15-16.44l.21-.05c13.25-22,2.91-45-11.67-55.6l-8,11.34a2.67,2.67,0,0,1-3.7.76l-13-9.1a2.68,2.68,0,0,1-.54-3.74l7.94-11.32c-14.9-10.36-40.4-12.44-56.76,7.86h0a61.17,61.17,0,0,0-10.3,19.82c-15.61-21.23-9.77-63,11.9-93.84Q998.58,69.32,1001.26,66Z"/><path class="cls-5" d="M1080,206.88l1.45-.24a38.76,38.76,0,0,0,4.06-.78c1.76-.37,3.86-1,6.27-1.74,1.18-.42,2.46-.84,3.79-1.34s2.71-1.1,4.12-1.77a79.22,79.22,0,0,0,9-4.79,86.93,86.93,0,0,0,9.36-6.57,97,97,0,0,0,9.09-8.29,102.18,102.18,0,0,0,8.15-9.83l.47-.64.46-.7.87-1.31c.57-.88,1.16-1.73,1.7-2.68l1.65-2.78,1.49-2.8a80.08,80.08,0,0,0,4.81-11.34c.69-1.88,1.2-3.77,1.73-5.61s.92-3.66,1.23-5.45a76.22,76.22,0,0,0,1.3-10.07c.13-1.56.13-3.06.18-4.48s-.07-2.76-.1-4c-.16-2.51-.33-4.69-.59-6.46s-.51-3.15-.68-4.09-.27-1.43-.27-1.43l.09,1.47c.07,1,.18,2.36.22,4.15s.07,4,0,6.44-.35,5.3-.74,8.34c-.22,1.52-.41,3.11-.76,4.73s-.64,3.31-1.06,5a90.37,90.37,0,0,1-3.27,10.59,91.59,91.59,0,0,1-4.89,10.82l-1.45,2.67-1.57,2.6c-1,1.71-2.31,3.55-3.45,5.15a98.05,98.05,0,0,1-7.75,9.52,111.93,111.93,0,0,1-8.6,8.22,104.54,104.54,0,0,1-8.84,6.73c-2.9,2-5.79,3.68-8.48,5.17s-5.25,2.66-7.53,3.66-4.33,1.75-6,2.28-3.05,1-4,1.24Z"/><path class="cls-4" d="M1140.17,128.52a80.77,80.77,0,0,1-13.9,35.67,88.62,88.62,0,0,1-29.11,26.13,56.55,56.55,0,0,0-15-42.06l14.11-20.1A56.3,56.3,0,0,0,1140.17,128.52Z"/><polygon class="cls-5" points="1126.31 204.39 1117.13 196.31 1120.7 208.31 1126.31 204.39"/><polygon class="cls-5" points="1121.48 207.27 1116.54 205.66 1115.79 211.06 1121.48 207.27"/><polygon class="cls-5" points="740.52 585.69 753.32 594.68 941.59 329.12 1064.71 151.09 1051.91 142.11 926.31 318.39 740.52 585.69"/><path class="cls-5" d="M739.17,584.8,925,317.4l125.59-176.28c1.32-1.84,2.94-2.91,3.67-2.4l12.8,9c.72.51.27,2.4-1,4.26L942.88,330.08,754.61,595.65c-1.31,1.85-3,2.93-3.67,2.42l-12.8-9C737.41,588.57,737.87,586.67,739.17,584.8ZM940.22,328.25,1061,153.57l-10.21-7.16L927.66,319.28,744.2,583.22l10.19,7.15Z"/><path class="cls-5" d="M1050,148.76c5.15-6.18,10-12.61,14.85-19Q1070,122.89,1075,116a164.16,164.16,0,0,1,10.33-12.89,121.18,121.18,0,0,0,9-11.06c-8,4.94-15,12.19-20.37,20q-9.39,13.53-18.18,27.43C1053.8,142.5,1051.87,145.61,1050,148.76Z"/><path class="cls-2" d="M1017.89,213.37c-13.28,17.23-26.06,35.27-38.55,53.2s-25,36.14-36.54,54.54c13.29-17.23,26.07-35.27,38.55-53.2S1006.34,231.76,1017.89,213.37Z"/><path class="cls-5" d="M994.23,146.65s0-.51-.09-1.47S994,142.81,994,141s0-4,.1-6.44.44-5.29.88-8.33,1.09-6.32,2-9.74a103.26,103.26,0,0,1,3.33-10.59A107.51,107.51,0,0,1,1005.05,95a97.4,97.4,0,0,1,6.31-10.53c1.12-1.61,2.43-3.43,3.68-5l1.91-2.36,2-2.28a90.51,90.51,0,0,1,8.51-8.27,93.39,93.39,0,0,1,8.85-6.68c1.47-1,2.92-1.88,4.36-2.7s2.83-1.59,4.19-2.32c2.73-1.4,5.29-2.56,7.59-3.52s4.36-1.68,6.07-2.2,3-.94,4-1.2l1.42-.41-1.45.23c-.94.16-2.33.31-4.07.75s-3.86.93-6.28,1.64c-1.19.4-2.48.79-3.81,1.27s-2.73,1-4.15,1.69a74.85,74.85,0,0,0-9,4.65c-1.58.89-3.11,2-4.72,3s-3.15,2.25-4.68,3.53a80.34,80.34,0,0,0-9,8.39l-2.13,2.35-2.05,2.49c-.71.83-1.31,1.67-1.94,2.51l-.94,1.27-.5.66-.45.67a102.07,102.07,0,0,0-6.47,11,96.65,96.65,0,0,0-4.71,11.37,86.82,86.82,0,0,0-3,11,81.22,81.22,0,0,0-1.46,10c-.15,1.56-.19,3.06-.26,4.48s0,2.77,0,4c.12,2.51.25,4.7.49,6.48a41.38,41.38,0,0,0,.65,4.09Z"/><path class="cls-4" d="M1047.5,63.46a80.79,80.79,0,0,0-28.83,25.2A88.57,88.57,0,0,0,1004,124.91a56.56,56.56,0,0,1,44.66-.18l14.1-20.09A56.27,56.27,0,0,1,1047.5,63.46Z"/><path class="cls-5" d="M982.56,167.55C966.77,146,972.07,104,994.64,71.82c1.66-2.37,3.43-4.69,5.25-6.91a1.8,1.8,0,0,1,.74-.54l3.39-1.3,1.07-3.76a1.77,1.77,0,0,1,.44-.76A110,110,0,0,1,1015.85,49a1.66,1.66,0,0,1,1.55-.31l5.85,1.85,1.14-7a1.82,1.82,0,0,1,.81-1.24c17.61-11.31,37.17-16.42,55.1-14.41a1.54,1.54,0,0,1,1.33,1.21,1.81,1.81,0,0,1-.65,1.79c-13.33,10.52-20.51,22.92-20.75,35.84-.27,14.76,8.4,26.78,16.37,33.06,5.68-5.9,23.85-17.51,26.06-18.92a1.62,1.62,0,0,1,1.8,0h0a1.63,1.63,0,0,1,.62,1.7c-.58,2.56-5.41,23.66-9,30.94,10.78,7,24.88,8.77,36.34,4.48,12.21-4.58,21.55-15.66,27-32a1.8,1.8,0,0,1,1.46-1.22,1.54,1.54,0,0,1,1.59.84c8,16.17,9.82,36.31,5.17,56.71a1.82,1.82,0,0,1-.89,1.19l-6.24,3.46,3.72,4.88a1.63,1.63,0,0,1,.23,1.56,109.41,109.41,0,0,1-5.43,12.94,1.76,1.76,0,0,1-.57.67l-3.17,2.29-.07,3.62a1.8,1.8,0,0,1-.25.88c-1.47,2.47-3.06,4.93-4.72,7.29-22.56,32.15-60.31,51.42-85.93,43.89a1.54,1.54,0,0,1-1.09-1.3,1.8,1.8,0,0,1,.69-1.65c13.33-10.34,20.5-22.76,20.71-35.92.21-12.43-6.11-25.17-16.2-32.91l-7,9.91a4.35,4.35,0,0,1-6,1.26l-12.92-9.07a4.36,4.36,0,0,1-.86-6.08l7-9.91c-10.7-6.86-24.83-8.47-36.46-4-12.3,4.67-21.55,15.63-26.74,31.68a1.81,1.81,0,0,1-1.32,1.21,1.53,1.53,0,0,1-1.24-.24A1.61,1.61,0,0,1,982.56,167.55Zm69.59-30.06a1.68,1.68,0,0,1,.18,2.21l-8,11.36a1,1,0,0,0,.2,1.4l12.92,9.07a1,1,0,0,0,1.38-.29l8-11.35a1.67,1.67,0,0,1,2.31-.49c11.67,8.19,19.06,22.53,18.83,36.54-.16,9.44-3.73,23.23-19.42,36.52,23.92,4.65,58.6-14.06,79.09-43.24,1.51-2.16,3-4.4,4.32-6.65l.08-4a1.83,1.83,0,0,1,.75-1.44l3.54-2.55a103.72,103.72,0,0,0,4.75-11.23l-4.39-5.74a1.63,1.63,0,0,1-.28-1.39,1.84,1.84,0,0,1,.89-1.18l7.33-4.06c3.93-17.89,2.69-35.49-3.48-50.12-7.46,19.18-19.06,27.09-27.74,30.34-15.61,5.85-31.15.93-40.49-5.62a1.71,1.71,0,0,1-.31-2.37c2.3-3.28,6.24-18.42,8.36-27.32-7.62,5-20.49,13.78-22.86,17.16a1.87,1.87,0,0,1-1.1.73,1.5,1.5,0,0,1-1.24-.26c-9.3-6.73-19.14-19.88-18.83-36.6.17-9.18,3.68-22.62,18.91-35.95-15.86-.82-32.83,4-48.32,13.76L1026.19,53a1.88,1.88,0,0,1-.81,1.24,1.7,1.7,0,0,1-1.4.21l-6.89-2.18a105.85,105.85,0,0,0-9,8.28l-1.19,4.19a1.84,1.84,0,0,1-1.09,1.2l-3.79,1.45c-1.66,2-3.26,4.17-4.78,6.33-20.48,29.17-26.3,68.15-13.8,89.07,7.17-19.27,18.93-27.32,27.75-30.67,13-5,29-2.91,40.64,5.2A1.86,1.86,0,0,1,1052.15,137.49Z"/><polygon class="cls-5" points="979.07 108.88 991.57 108.17 980.85 102.28 979.07 108.88"/><polygon class="cls-5" points="978.15 114.44 982.98 111.9 979.77 107.8 978.15 114.44"/><polygon class="cls-5" points="1092.58 113.19 1079.33 134.88 1095.23 115.04 1092.58 113.19"/><polygon class="cls-5" points="1075.61 100.92 1053.58 135.1 1078.25 102.77 1075.61 100.92"/><path class="cls-4" d="M1015.61,194.65l12,8.43c3,2.14,9.23-1.44,14.71-9.24h0c5.47-7.8,5.89-13.64,2.85-15.77l-12-8.44c-3-2.13-8.39.24-13.87,8h0C1013.83,185.47,1012.57,192.51,1015.61,194.65Z"/><path class="cls-5" d="M1018,176.74c6.42-9.15,13.48-13.37,17.57-10.5l12,8.44c4.09,2.86,2.52,10.94-3.9,20.09-6.6,9.4-14.52,14.44-18.42,11.7l-12-8.43C1009.34,195.3,1011.38,186.15,1018,176.74Zm12.81-3.72c-2-1.42-5.76-.7-10.16,5.58-4,5.63-5.07,11-2.64,12.66l12,8.43c2.43,1.7,7.06-1.15,11-6.78,4.4-6.28,3.81-10,1.78-11.45Z"/><path class="cls-5" d="M1035.69,196.19a15.37,15.37,0,0,0-6.39-8.27,15.16,15.16,0,0,0-9.95-3.2,17.57,17.57,0,0,0,16.34,11.47Z"/></g><g class="cls-3"><path class="cls-6" d="M130.59,290.49c-.81.54-1.7-.23-2.68.21L124,287.94c-1.31-2.68-1-5.21-1.12-7.68a17.77,17.77,0,0,1,.77-5.16,40.27,40.27,0,0,0,.51-4.1c.46-3.3.66-6.65.88-10a57.6,57.6,0,0,0-.22-8.81,3.67,3.67,0,0,1,.23-1.06c.33-1,.28-2.31,1.2-2.84s1-1.14,1.45-1.71c1.32-1.56,1.35-3.73,2.43-5.14a12.82,12.82,0,0,0,.12-2.62c-.48-2.7.63-5.07,1.45-7.49a4.08,4.08,0,0,1,1.36-2.12c.91-.55,1.07-1.47,1.65-2.16s1.24-1.48,1.84-2.24c0-.07-.05-.25-.05-.23-1.58,0-3.12-.07-4.65-.16-.28,0-.55-.3-.82-.45a14.83,14.83,0,0,1,3.47-1.79c.59-.23,1-.92,1.77-.63l-.07,1.82c.61,1.24,1.83.82,2.69,1.23.81,1.68.27,3.4.38,5.07.08,1.1.17,2.21.18,3.32a31.13,31.13,0,0,1-.72,6.93,33,33,0,0,0-.51,4.1c-.31,3.25-.69,6.5-.86,9.76-.1,2,.14,4.12.2,6.18a4.55,4.55,0,0,1-.23,1.07l-.68,1.18c0,.83,0,1.43-.09,2-.22,1.65-.39,3.31-.74,4.94a18.74,18.74,0,0,1-1.28,4.23c-1.18,2.45-3.47,4.14-4.45,6.76l.24.92c-.94,3.24-1.19,6.24,1,9Z"/><path class="cls-7" d="M126.84,164.6a5.59,5.59,0,0,1-.19-1.44,14.49,14.49,0,0,0,0-4.21,24.37,24.37,0,0,1,.11-4.59c.16-3.88.11-7.76.21-11.64.1-4.17.21-8.35.2-12.53s0-8.38,0-12.57c0-2.61.11-5.26.22-7.88a94.81,94.81,0,0,0-.53-14.19,55.92,55.92,0,0,1,.15-10.1c.26-3.34.67-6.67.88-10,.13-2-.08-4,0-6,.09-1.59-.26-3.29.6-4.52l1.83-.71a3.72,3.72,0,0,1,1.15,3.13c0,2.28,0,4.56.07,6.84,0,2.87.36,5.73.29,8.63s.26,5.61.38,8.42.21,5.46.28,8.19c.09,4,.14,8.1.25,12.15.08,2.81.25,5.61.34,8.42.11,3.47.19,6.95.44,10.42a35.7,35.7,0,0,0,.61,4.93,3,3,0,0,1-.22,1.06,2.38,2.38,0,0,0-.28.84c.09,1.4-.26,2.77-.26,4.14,0,2.37-.74,4.59-1,6.91a33,33,0,0,1-1,5.15c-.42,1.67-.51,3.45-1.08,5.11.49,1.12-1,1.7-.74,2.77a4,4,0,0,1-1,3Z"/><path class="cls-8" d="M136.3,221.57c-.76-.29-1.18.4-1.77.63a14.83,14.83,0,0,0-3.47,1.79c-.67.72-1.58.41-2.27.25-.94-.22-1.67.68-2.64.24-.3-.14-.86.05-1.25-.26a65.72,65.72,0,0,1,.06-11.31c.27-4.07.81-8.12,1-12.2.12-2.33.16-4.69.09-7-.06-2.11.13-4.24.12-6.37,0-2.56.06-5.13.1-7.69l1.25-.5c.1-1.43,1.09-2.39,1.65-3.53s.5-2.41,1.39-3.34c-.27-1.44,1.1-2.27,1.33-3.56A34,34,0,0,1,133,165.3c.35-1.17.64-2.36,1.07-4l.64,2.92a27.33,27.33,0,0,1,0,3.62,31.59,31.59,0,0,0,.17,5.75,19.17,19.17,0,0,1,0,2.63c.08,3.54.17,7.07.28,10.61,0,1,.17,2.07.21,3.11.17,5.08-.11,10.19.56,15.26-.41,2.2.06,4.4,0,6.6s.19,4.29.27,6.43C136.33,219.37,136.3,220.47,136.3,221.57Z"/><path class="cls-9" d="M124.9,224.22c.39.31.95.12,1.25.26,1,.44,1.7-.46,2.64-.24.69.16,1.6.47,2.27-.25.27.15.54.43.82.45,1.53.09,3.07.11,4.65.16,0,0,.1.16.05.23-.6.76-1.22,1.5-1.84,2.24s-.74,1.61-1.65,2.16a4.08,4.08,0,0,0-1.36,2.12c-.82,2.42-1.93,4.79-1.45,7.49a12.82,12.82,0,0,1-.12,2.62c-1.08,1.41-1.11,3.58-2.43,5.14-.48.57-.67,1.26-1.45,1.71s-.87,1.85-1.2,2.84c-.87-.88-.42-2-.6-3q-.72-3.93-1.3-7.88c-.26-1.8-.91-3.56-.67-5.54a35.94,35.94,0,0,0-.08-5.28c-.05-1.47-.07-2.94-.1-4.51C122.94,224,124.08,224.69,124.9,224.22Z"/><path class="cls-9" d="M130.59,290.49l.75-.42c-2.17-2.74-1.92-5.74-1-9l-.24-.92c1-2.62,3.27-4.31,4.45-6.76a18.74,18.74,0,0,0,1.28-4.23c.35-1.63.52-3.29.74-4.94.08-.58,0-1.18.09-2l.68-1.18c.7,3.28.78,6.64,1.36,9.95a48.94,48.94,0,0,1,1.11,9.35c0,1.82.24,3.62-.22,5.46a6.58,6.58,0,0,1-2.82,3.88,4.67,4.67,0,0,1-4,.94C132,290.41,131.26,291.28,130.59,290.49Z"/><path class="cls-10" d="M134.7,164.26l-.64-2.92c-.43,1.6-.72,2.79-1.07,4a34,34,0,0,0-1.07,3.38c-.23,1.29-1.6,2.12-1.33,3.56-.89.93-.86,2.25-1.39,3.34s-1.55,2.1-1.65,3.53l-1.25.5c.11-3.63.28-7.26.29-10.89a11.65,11.65,0,0,1,.25-4.12l1.76-.24a4,4,0,0,0,1-3c-.21-1.07,1.23-1.65.74-2.77.57-1.66.66-3.44,1.08-5.11a33,33,0,0,0,1-5.15c.23-2.32,1-4.54,1-6.91,0-1.37.35-2.74.26-4.14a2.38,2.38,0,0,1,.28-.84c.82.73.31,1.73.45,2.58.57,3.4,1,6.82,1.33,10.26a46.06,46.06,0,0,1-.23,6.09c-.15,2.68-.33,5.36-.51,8A3.35,3.35,0,0,1,134.7,164.26Z"/></g><g class="cls-3"><path class="cls-6" d="M1281.1,283c-.81.54-1.7-.23-2.67.21l-3.89-2.76c-1.31-2.68-1-5.21-1.12-7.68a18.12,18.12,0,0,1,.77-5.16,40.29,40.29,0,0,0,.52-4.1c.46-3.3.65-6.65.87-10a58.9,58.9,0,0,0-.21-8.81,3.65,3.65,0,0,1,.22-1.06c.33-1,.28-2.31,1.2-2.84s1-1.14,1.45-1.7c1.32-1.57,1.35-3.74,2.44-5.15a12.75,12.75,0,0,0,.11-2.62c-.48-2.7.63-5.07,1.45-7.49a4.08,4.08,0,0,1,1.36-2.12c.91-.55,1.07-1.47,1.65-2.16s1.24-1.48,1.84-2.24c.05-.07,0-.25,0-.23-1.59,0-3.13-.07-4.66-.16-.28,0-.54-.3-.81-.45a14.44,14.44,0,0,1,3.47-1.79c.58-.23,1-.92,1.77-.63l-.08,1.82c.62,1.24,1.83.82,2.7,1.23.8,1.68.26,3.4.38,5.07.07,1.1.17,2.21.17,3.32a31.13,31.13,0,0,1-.72,6.93,33,33,0,0,0-.51,4.1c-.31,3.25-.69,6.5-.86,9.76-.1,2,.15,4.12.2,6.18a5.09,5.09,0,0,1-.22,1.07l-.69,1.18c0,.83,0,1.43-.09,2-.21,1.65-.39,3.31-.74,4.94a18.24,18.24,0,0,1-1.28,4.23c-1.17,2.45-3.46,4.14-4.44,6.76l.24.92c-1,3.24-1.2,6.24,1,9Z"/><path class="cls-7" d="M1277.35,157.1a5.57,5.57,0,0,1-.18-1.44,14.85,14.85,0,0,0,0-4.21,25.26,25.26,0,0,1,.11-4.59c.16-3.88.11-7.76.21-11.64.11-4.17.21-8.35.21-12.53s0-8.38,0-12.57c0-2.61.11-5.25.22-7.88a93.5,93.5,0,0,0-.52-14.19,54.15,54.15,0,0,1,.15-10.1c.25-3.34.66-6.67.87-10,.13-2-.08-4,0-5.95.08-1.59-.27-3.28.59-4.52l1.83-.71a3.73,3.73,0,0,1,1.16,3.13c0,2.28,0,4.56.06,6.84.05,2.88.36,5.74.29,8.63s.27,5.61.39,8.42.2,5.46.27,8.19c.1,4,.14,8.1.25,12.15.08,2.81.25,5.61.34,8.42.11,3.47.19,6.95.44,10.42a35.7,35.7,0,0,0,.61,4.93,2.8,2.8,0,0,1-.22,1.06,2.38,2.38,0,0,0-.28.84c.1,1.4-.26,2.77-.25,4.14,0,2.37-.75,4.59-1,6.91a34.24,34.24,0,0,1-1,5.15c-.43,1.67-.51,3.45-1.09,5.12.5,1.11-.94,1.69-.73,2.76a4,4,0,0,1-1,3Z"/><path class="cls-8" d="M1286.82,214.07c-.77-.29-1.19.4-1.77.63a14.44,14.44,0,0,0-3.47,1.79c-.68.72-1.58.41-2.28.25-.94-.22-1.67.68-2.64.24-.3-.14-.86.05-1.24-.25a66.85,66.85,0,0,1,0-11.32c.28-4.07.81-8.12,1-12.19.12-2.34.16-4.7.09-7.05-.06-2.11.13-4.24.12-6.37,0-2.56.06-5.13.1-7.69l1.25-.5c.11-1.43,1.09-2.39,1.65-3.53s.51-2.41,1.4-3.34c-.28-1.44,1.1-2.27,1.33-3.56a29.42,29.42,0,0,1,1.07-3.38c.34-1.17.63-2.36,1.06-4l.64,2.92a27.33,27.33,0,0,1,0,3.62,30.73,30.73,0,0,0,.18,5.75,19.18,19.18,0,0,1,0,2.63c.08,3.54.17,7.07.28,10.61,0,1,.17,2.07.21,3.11.17,5.09-.11,10.19.56,15.26-.41,2.2.06,4.4,0,6.6s.2,4.29.28,6.43C1286.85,211.87,1286.82,213,1286.82,214.07Z"/><path class="cls-9" d="M1275.42,216.73c.38.3.94.11,1.24.25,1,.44,1.7-.46,2.64-.24.7.16,1.6.47,2.28-.25.27.15.53.44.81.45,1.53.09,3.07.11,4.66.16,0,0,.09.16,0,.23-.6.76-1.22,1.5-1.84,2.24s-.74,1.61-1.65,2.16a4.08,4.08,0,0,0-1.36,2.12c-.82,2.42-1.93,4.79-1.45,7.49a12.75,12.75,0,0,1-.11,2.62c-1.09,1.41-1.12,3.58-2.44,5.15-.48.56-.67,1.26-1.45,1.7s-.87,1.85-1.2,2.84c-.86-.88-.42-2-.6-3q-.72-3.93-1.29-7.88c-.27-1.8-.92-3.56-.68-5.54a34.61,34.61,0,0,0-.08-5.28c0-1.47-.06-2.94-.1-4.51C1273.45,216.54,1274.6,217.19,1275.42,216.73Z"/><path class="cls-9" d="M1281.1,283l.75-.42c-2.17-2.74-1.92-5.74-1-9l-.24-.92c1-2.62,3.27-4.31,4.44-6.76a18.24,18.24,0,0,0,1.28-4.23c.35-1.63.53-3.29.74-4.94.08-.58.06-1.18.09-2l.69-1.18c.69,3.28.78,6.64,1.35,9.95a48.15,48.15,0,0,1,1.11,9.35,23.29,23.29,0,0,1-.22,5.46,6.58,6.58,0,0,1-2.82,3.88,4.65,4.65,0,0,1-4,.94C1282.54,282.91,1281.77,283.78,1281.1,283Z"/><path class="cls-10" d="M1285.21,156.76l-.64-2.92c-.43,1.6-.72,2.79-1.06,4a29.42,29.42,0,0,0-1.07,3.38c-.23,1.29-1.61,2.12-1.33,3.56-.89.93-.87,2.25-1.4,3.34s-1.54,2.1-1.65,3.53l-1.25.5c.11-3.63.28-7.26.29-10.89a11.65,11.65,0,0,1,.25-4.12l1.76-.23a4,4,0,0,0,1-3c-.21-1.07,1.23-1.65.73-2.76.58-1.67.66-3.45,1.09-5.12a34.24,34.24,0,0,0,1-5.15c.22-2.32,1-4.54,1-6.91,0-1.37.35-2.74.25-4.14a2.38,2.38,0,0,1,.28-.84c.82.73.31,1.73.45,2.58.57,3.4,1.06,6.82,1.33,10.26a46.06,46.06,0,0,1-.23,6.09q-.23,4-.51,8A3.35,3.35,0,0,1,1285.21,156.76Z"/></g><path class="cls-11" d="M709.16,93.64a14,14,0,1,1,14-14A14,14,0,0,1,709.16,93.64Zm0-27.27a13.32,13.32,0,1,0,13.32,13.32A13.4,13.4,0,0,0,709.16,66.37Z"/><path class="cls-11" d="M709.17,93.61a.39.39,0,0,1-.35-.21l-11.8-20a.4.4,0,0,1,0-.41.42.42,0,0,1,.36-.21l23.48-.22h0a.33.33,0,0,1,.17,0,.4.4,0,0,1,.18.58L709.5,93.4a.44.44,0,0,1-.36.21Zm.19-.59ZM697.78,73.43l11.38,19.26,11.29-19.43Z"/><path class="cls-11" d="M697.46,86.92a.42.42,0,0,1-.22,0,.47.47,0,0,1-.18-.64l11.7-20.13a.35.35,0,0,1,.31-.18h0a.35.35,0,0,1,.31.18l11.8,20a.46.46,0,0,1,0,.48.49.49,0,0,1-.41.25l-23.28.14Zm11.61-20L697.78,86.33l22.67-.16Z"/><ellipse class="cls-12" cx="709.07" cy="79.75" rx="6.77" ry="6.62"/><ellipse class="cls-13" cx="709.07" cy="79.75" rx="2.6" ry="2.54"/><path class="cls-14" d="M642.77,292.88l6.57-91.15L560.07,188l74.52-51.57-45-79.2L676,83.93l33.21-85,33.21,85,86.39-26.75-45,79.2L858.26,188,769,201.73l6.58,91.15-66.4-62Zm66.39-74.59,55.54,51.87-5.49-76.22,74.85-11.56-62.47-43.23,37.7-66.31-72.37,22.4L709.16,24.17,681.4,95.24,609,72.84l37.71,66.31-62.48,43.23,74.86,11.56-5.5,76.22Z"/><text class="cls-15" transform="translate(65.58 42.39)"><tspan class="cls-16">M</tspan><tspan x="42.43" y="0">agia</tspan></text><text class="cls-15" transform="translate(1207.82 42.39)">Cursos</text><text class="cls-15" transform="translate(504.84 42.4)"><tspan class="cls-17">T</tspan><tspan class="cls-18" x="28.27" y="0" xml:space="preserve">erapias     </tspan><tspan class="cls-19" x="230.88" y="0">H</tspan><tspan x="266.35" y="0">olisticas</tspan></text><path class="cls-11" d="M717.6,169.79c0-5.36-13.61-6-14.6-8.77h-4.14c.83,5.25,15.27,6.64,15.64,9.06h3.1A.56.56,0,0,1,717.6,169.79Z"/><path class="cls-11" d="M721.33,149c0-7.15-24.9-7-24.9-11.08,0-1.27,2.12-.57,2.12-.57,4.5,2.65,6.57,0,6.57,0a5.75,5.75,0,0,0-5.07-3.81c-2.12-.29-7.3.23-7.3,4.84,0,6.46,24.23,6.93,24.23,10.73a1,1,0,0,1-.15.52h4.4A1.52,1.52,0,0,0,721.33,149Z"/><path class="cls-11" d="M713.2,137.26s2.07,2.65,6.58,0c0,0,2.12-.69,2.12.58,0,4.15-24.9,3.92-24.9,11.07,0,4.73,10.09,6.86,12.16,7.5s6.27,2,6.27,4.27c0,3-14.65,3.46-14.65,9s12.94,4.68,12.94,8.66c0,1.67-1.87,3.17-1.87,3.17s3.84-1.85,3.84-3.92c0-4-11.81-4.91-11.81-7.44s15.69-3.87,15.69-9.58c0-7.5-18.28-8.48-18.28-11.54,0-3.8,24.23-4.26,24.23-10.73,0-4.61-5.17-5.13-7.3-4.84A5.62,5.62,0,0,0,713.2,137.26Z"/><path class="cls-11" d="M706.26,120.82a18.64,18.64,0,0,1-7.3-6.06c-2.59-4-10.66.29-13.15,2.19s-8.95,4.62-13.41,1.45c0,0,1.56,6.23,9.48,5.48,0,0-.16,3.92,5.59,3.17,0,0,.16,2.88,4.82,2.31,0,0,.67,2.59,5.69,1.32,0,0,.26,2.6,8.18,1.16v-11Z"/><path class="cls-11" d="M683.17,123.47a22.88,22.88,0,0,0,5.85-3.11c3.37-2.37,6.16-2.83,9.06-.29a18,18,0,0,0,6,3.46,15.45,15.45,0,0,1-7.3-2.6C693.06,118.4,688.19,123.76,683.17,123.47Z"/><path class="cls-11" d="M688.09,126.7s5.28-3.57,8-3.69A33.76,33.76,0,0,1,688.09,126.7Z"/><path class="cls-11" d="M692.8,129a25.46,25.46,0,0,1,7.3-4.15C700.05,124.86,694.72,128.55,692.8,129Z"/><path class="cls-11" d="M698.55,130.11s2.69-3,5.49-4C704,126.13,700.72,129.3,698.55,130.11Z"/><path class="cls-11" d="M712.06,120.82a18.64,18.64,0,0,0,7.3-6.06c2.59-4,10.67.29,13.15,2.19s9,4.62,13.41,1.45c0,0-1.55,6.23-9.47,5.48,0,0,.15,3.92-5.59,3.17,0,0-.16,2.88-4.82,2.31,0,0-.67,2.59-5.69,1.32,0,0-.26,2.6-8.18,1.16v-11Z"/><path class="cls-11" d="M735.15,123.47a23.07,23.07,0,0,1-5.85-3.11c-3.36-2.37-6.16-2.83-9.06-.29a18,18,0,0,1-6,3.46,15.48,15.48,0,0,0,7.3-2.6C725.26,118.4,730.13,123.76,735.15,123.47Z"/><path class="cls-11" d="M730.23,126.7s-5.28-3.57-8-3.69A33.76,33.76,0,0,0,730.23,126.7Z"/><path class="cls-11" d="M725.52,129a25.46,25.46,0,0,0-7.3-4.15S723.61,128.55,725.52,129Z"/><path class="cls-11" d="M719.78,130.11s-2.7-3-5.49-4C714.29,126.13,717.6,129.3,719.78,130.11Z"/><ellipse class="cls-11" cx="709.16" cy="111.65" rx="4.66" ry="5.19"/><rect class="cls-11" x="707.09" y="115.22" width="4.14" height="68.7"/><path class="cls-11" d="M717.55,170.08h-3.11v.12c0,2.48-11.8,3.4-11.8,7.44,0,2.07,3.83,3.92,3.83,3.92s-1.86-1.44-1.86-3.17C704.66,174.52,717.08,175.39,717.55,170.08Z"/><path class="cls-11" d="M716.88,149.55c-1.82,2.71-18.07,4-18.07,11a1.24,1.24,0,0,0,.05.46H703a.8.8,0,0,1,0-.34c0-2.25,4.19-3.64,6.26-4.27s11.34-2.6,12.12-6.92l-4.45.06Z"/><path class="cls-20" d="M709.16,188.35A8.66,8.66,0,1,0,718,197,8.75,8.75,0,0,0,709.16,188.35Zm6.54,7.55h-5.44v-5.28A6.58,6.58,0,0,1,715.7,195.9Zm-7.63-5.28v5.28h-5.44A6.57,6.57,0,0,1,708.07,190.62Zm-5.44,7.47h5.44v5.29A6.56,6.56,0,0,1,702.63,198.09Zm7.63,5.29v-5.29h5.44A6.57,6.57,0,0,1,710.26,203.38Z"/><polygon class="cls-21" points="932.92 289.23 1078.25 289.23 1051.28 251.91 1078.25 214.59 932.92 214.59 932.92 289.23"/><polygon class="cls-22" points="988.66 261.24 932.92 289.23 932.92 261.24 988.66 261.24"/><polygon class="cls-21" points="487.08 289.23 341.75 289.23 368.72 251.91 341.75 214.59 487.08 214.59 487.08 289.23"/><polygon class="cls-22" points="431.34 261.24 487.08 289.23 487.08 261.24 431.34 261.24"/><rect class="cls-21" x="431.34" y="202.5" width="557.36" height="74.64"/><g class="cls-23"><text class="cls-24" transform="translate(446.19 248.53) scale(1.13 1)">P<tspan class="cls-25" x="24.5" y="0">r</tspan><tspan class="cls-26" x="45.22" y="0">o</tspan><tspan class="cls-27" x="67.68" y="0">fi</tspan><tspan class="cls-28" x="91.11" y="0">ss</tspan><tspan class="cls-29" x="131.77" y="0">ã</tspan><tspan class="cls-28" x="154.34" y="0">o </tspan><tspan class="cls-30" x="187.86" y="0">T</tspan><tspan class="cls-31" x="206.9" y="0">r</tspan><tspan class="cls-32" x="225.8" y="0">a</tspan><tspan class="cls-33" x="247.38" y="0">n</tspan><tspan class="cls-34" x="273.05" y="0">s</tspan><tspan class="cls-35" x="292.84" y="0">f</tspan><tspan class="cls-26" x="307.04" y="0">o</tspan><tspan class="cls-36" x="329.5" y="0">r</tspan><tspan class="cls-37" x="350.01" y="0">m</tspan><tspan class="cls-38" x="387.52" y="0">a</tspan><tspan class="cls-39" x="410.13" y="0">ç</tspan><tspan class="cls-36" x="429.85" y="0">ã</tspan><tspan class="cls-26" x="452.42" y="0">o</tspan></text></g><text class="cls-40" transform="translate(445.19 247.53) scale(1.13 1)">P<tspan class="cls-25" x="24.5" y="0">r</tspan><tspan class="cls-26" x="45.22" y="0">o</tspan><tspan class="cls-27" x="67.68" y="0">fi</tspan><tspan class="cls-28" x="91.11" y="0">ss</tspan><tspan class="cls-29" x="131.77" y="0">ã</tspan><tspan class="cls-28" x="154.34" y="0">o </tspan><tspan class="cls-30" x="187.86" y="0">T</tspan><tspan class="cls-31" x="206.9" y="0">r</tspan><tspan class="cls-32" x="225.8" y="0">a</tspan><tspan class="cls-33" x="247.38" y="0">n</tspan><tspan class="cls-34" x="273.05" y="0">s</tspan><tspan class="cls-35" x="292.84" y="0">f</tspan><tspan class="cls-26" x="307.04" y="0">o</tspan><tspan class="cls-36" x="329.5" y="0">r</tspan><tspan class="cls-37" x="350.01" y="0">m</tspan><tspan class="cls-38" x="387.52" y="0">a</tspan><tspan class="cls-39" x="410.13" y="0">ç</tspan><tspan class="cls-36" x="429.85" y="0">ã</tspan><tspan class="cls-26" x="452.42" y="0">o</tspan></text></g></g></svg>