<svg id="Layer_1" data-name="Layer 1" xmlns="http://www.w3.org/2000/svg" viewBox="0 0 316.77 314.73"><defs><style>.cls-1{opacity:0.4;}.cls-2{fill:#f0f1f1;}.cls-3{fill:#505738;}.cls-4{fill:#fff;}.cls-5{fill:#3e442c;}.cls-6{fill:#535a3b;}.cls-7{fill:#565c3c;}.cls-8{fill:#505739;}.cls-9{fill:#464d32;}.cls-10{fill:#9b853d;}.cls-11{fill:none;stroke:#dddb00;stroke-miterlimit:10;stroke-width:5px;}.cls-12{fill:#dddb00;}.cls-13{fill:#4f5938;}.cls-14,.cls-15{fill:#171911;}.cls-15{font-size:12.32px;font-family:ZillaSlab-SemiBold, Zilla Slab;font-weight:600;}.cls-16{letter-spacing:-0.01em;}.cls-17{letter-spacing:-0.05em;}.cls-18{letter-spacing:-0.02em;}.cls-19{fill:#59643e;}.cls-20{fill:#394029;}.cls-21{fill:#4f5738;}.cls-22{fill:#c35c17;}</style></defs><g class="cls-1"><path class="cls-2" d="M147,62.84c-.29-.36-1-.26-1.33-.6s-.2-1.15-.52-1.49a36.61,36.61,0,0,0-3.39-3.11c-.33-.27-2.58.82-2.58.82s.21-2.58-.48-3a28.12,28.12,0,0,0-18-4.68,36.45,36.45,0,0,1,5.36,6c4.21,7.4.52,14.76-4.27,18.16v0c-1.19-1.7-8.9-6.58-8.9-6.58s2,9,3.16,10.61h0c-4.83,3.28-12.91,4.19-18.39-2.2a.22.22,0,0,1,0-.08,20.88,20.88,0,0,1-3.83-7.08c-2.59,5.23-3.23,11.85-1.72,18.55.18.8,2.69,1.48,2.69,1.48S93,91.35,93.13,91.75A35.91,35.91,0,0,0,94.9,96c.21.42,1,.58,1.23,1S96,98,96.24,98.44c.48.81,1,1.6,1.54,2.39,7.22,10.29,19.64,16.84,28.06,14.35a20.21,20.21,0,0,1-5-5.48h-.07c-4.42-7.35-1-15,3.88-18.53l2.66,3.78a.89.89,0,0,0,1.23.26l4.32-3a.88.88,0,0,0,.18-1.24l-2.65-3.78c5-3.45,13.47-4.14,18.91,2.63h0a20.37,20.37,0,0,1,3.44,6.6c5.2-7.07,3.25-21-4-31.26C148.17,64.32,147.59,63.56,147,62.84Z" transform="translate(-1.53 -2.14)"/><path class="cls-3" d="M120.76,109.76l-.48-.08c-.32-.06-.78-.11-1.36-.26s-1.28-.33-2.09-.58c-.39-.14-.82-.28-1.26-.45s-.9-.37-1.37-.59a26.59,26.59,0,0,1-3-1.59,30.68,30.68,0,0,1-3.12-2.19,32.34,32.34,0,0,1-3-2.77A31.86,31.86,0,0,1,102.35,98l-.16-.21-.15-.24-.29-.43c-.19-.3-.39-.58-.57-.9l-.54-.92-.5-.93a27.31,27.31,0,0,1-1.61-3.78c-.22-.63-.4-1.26-.57-1.87s-.31-1.22-.41-1.82a25.21,25.21,0,0,1-.43-3.35c-.05-.52-.05-1-.06-1.49s0-.92,0-1.34c0-.84.11-1.57.2-2.16s.17-1.05.22-1.36l.09-.48,0,.49c0,.32-.06.79-.07,1.39s0,1.32,0,2.14.11,1.77.24,2.78c.08.51.14,1,.26,1.58s.21,1.1.35,1.67a31.45,31.45,0,0,0,1.09,3.53,31,31,0,0,0,1.63,3.6l.49.89.52.87c.34.57.77,1.18,1.15,1.71a30.6,30.6,0,0,0,2.58,3.18,36.45,36.45,0,0,0,2.86,2.73,33.31,33.31,0,0,0,3,2.24c1,.67,1.93,1.23,2.82,1.73s1.75.88,2.51,1.22,1.45.58,2,.76,1,.32,1.33.41Z" transform="translate(-1.53 -2.14)"/><path class="cls-2" d="M100.72,83.65a26.83,26.83,0,0,0,4.63,11.88,29.52,29.52,0,0,0,9.7,8.71,18.83,18.83,0,0,1,5-14l-4.7-6.7A18.77,18.77,0,0,1,100.72,83.65Z" transform="translate(-1.53 -2.14)"/><polygon class="cls-3" points="103.81 106.78 106.87 104.09 105.68 108.09 103.81 106.78"/><polygon class="cls-3" points="105.42 107.75 107.07 107.21 107.31 109.01 105.42 107.75"/><polygon class="cls-3" points="232.34 233.82 228.07 236.81 165.35 148.34 124.33 89.03 128.6 86.03 170.44 144.76 232.34 233.82"/><path class="cls-3" d="M234.66,237.09l-4.26,3c-.25.17-.79-.19-1.23-.8L166.45,150.8l-41-59.34c-.43-.62-.58-1.25-.34-1.42l4.26-3c.24-.17.79.18,1.22.8l41.85,58.73,61.92,89.08C234.75,236.28,234.9,236.92,234.66,237.09Zm-5.41.43,3.39-2.38L171.52,147.2l-41-57.59L127.09,92l40.24,58.19Z" transform="translate(-1.53 -2.14)"/><rect class="cls-2" x="199.97" y="147.11" width="6.44" height="99.37" transform="translate(-77.71 150.32) rotate(-35.07)"/><path class="cls-3" d="M235.16,236.74l-5.27,3.7c-.24.17-.79-.2-1.23-.82l-57.09-81.33c-.44-.63-.6-1.27-.35-1.44l5.27-3.7c.24-.17.79.2,1.23.82l57.09,81.33C235.25,235.92,235.41,236.57,235.16,236.74Zm-6.41,1.13,4.39-3.08-55.51-79.07-4.39,3.08Z" transform="translate(-1.53 -2.14)"/><rect class="cls-3" x="204.24" y="145.76" width="1.74" height="99.37" transform="translate(-76.59 151.18) rotate(-35.07)"/><path class="cls-3" d="M235.16,236.74l-1.42,1c-.25.17-.8-.2-1.24-.82l-57.09-81.33c-.44-.62-.59-1.27-.35-1.44l1.43-1c.24-.17.79.2,1.23.82l57.09,81.33C235.25,235.92,235.41,236.57,235.16,236.74Zm-2.57-1.57.55-.38-55.51-79.07-.54.38Z" transform="translate(-1.53 -2.14)"/><rect class="cls-3" x="229" y="235.14" width="10.3" height="11.5" rx="3.34" transform="translate(-97.43 176.12) rotate(-35.07)"/><path class="cls-3" d="M240.62,245.06l-4.76,3.34c-1.25.88-4.11-1-6.37-4.24s-3.07-6.55-1.82-7.43l4.76-3.34c1.26-.89,4.11,1,6.37,4.23S241.88,244.18,240.62,245.06ZM229.26,239c-.77.54-.27,2.58,1.11,4.55s3.14,3.14,3.91,2.6L239,242.8c.77-.54.27-2.58-1.12-4.56s-3.13-3.14-3.9-2.6Z" transform="translate(-1.53 -2.14)"/><rect class="cls-3" x="167.38" y="147.65" width="10.7" height="11.5" rx="3.34" transform="translate(-58.31 124.95) rotate(-35.07)"/><path class="cls-3" d="M179.37,157.45,174.28,161c-1.25.88-4.11-1-6.37-4.24s-3.08-6.55-1.82-7.43l5.09-3.57c1.25-.88,4.11,1,6.37,4.23S180.63,156.57,179.37,157.45Zm-11.7-5.84c-.77.54-.27,2.58,1.12,4.56s3.13,3.13,3.9,2.59l5.09-3.57c.77-.54.27-2.58-1.11-4.56s-3.14-3.13-3.91-2.59Z" transform="translate(-1.53 -2.14)"/><path class="cls-3" d="M130.75,90.4c-1.72-2.06-3.34-4.21-5-6.35-1.13-1.52-2.25-3-3.35-4.58a52.78,52.78,0,0,0-3.45-4.3,40.8,40.8,0,0,1-3-3.68,23.5,23.5,0,0,1,6.79,6.65q3.12,4.5,6,9.14C129.49,88.31,130.14,89.34,130.75,90.4Z" transform="translate(-1.53 -2.14)"/><path class="cls-4" d="M167.33,153.67a8.92,8.92,0,0,1,3.15-3.47,8.78,8.78,0,0,1,4.34-1.78,10.64,10.64,0,0,1-7.49,5.25Z" transform="translate(-1.53 -2.14)"/><path class="cls-4" d="M228.76,240.88a8.21,8.21,0,0,1,3-3.38,8.12,8.12,0,0,1,4.19-1.68,9.82,9.82,0,0,1-7.2,5.06Z" transform="translate(-1.53 -2.14)"/><path class="cls-4" d="M141.46,111.92c4.42,5.74,8.68,11.75,12.84,17.72s8.33,12,12.17,18.17c-4.42-5.74-8.68-11.75-12.84-17.72S145.31,118.05,141.46,111.92Z" transform="translate(-1.53 -2.14)"/><path class="cls-3" d="M187.57,179.8c-.15.11-.39.07-.71-.14a4.48,4.48,0,0,1-1.61-2.22l-4.75-17.16c-.23-.8.13-1.1.8-.67a4.49,4.49,0,0,1,1.6,2.23L187.66,179C187.77,179.41,187.73,179.69,187.57,179.8Z" transform="translate(-1.53 -2.14)"/><path class="cls-3" d="M192.45,176.38c-.16.11-.44.05-.79-.2l-14.52-10.3a4.51,4.51,0,0,1-1.55-2.26c-.17-.77.23-1,.91-.53L191,173.39a4.52,4.52,0,0,1,1.55,2.27C192.65,176,192.6,176.27,192.45,176.38Z" transform="translate(-1.53 -2.14)"/><path class="cls-3" d="M197.21,193.53c-.15.11-.4.07-.71-.14a4.42,4.42,0,0,1-1.61-2.22L190.13,174c-.22-.8.14-1.1.8-.67a4.45,4.45,0,0,1,1.61,2.23l4.76,17.15C197.41,193.14,197.37,193.42,197.21,193.53Z" transform="translate(-1.53 -2.14)"/><path class="cls-3" d="M202.09,190.11c-.16.11-.44,0-.79-.2l-14.52-10.3a4.45,4.45,0,0,1-1.55-2.26c-.18-.77.23-1,.9-.53l14.52,10.3a4.48,4.48,0,0,1,1.55,2.27C202.28,189.76,202.24,190,202.09,190.11Z" transform="translate(-1.53 -2.14)"/><path class="cls-3" d="M206.85,207.26c-.15.11-.4.07-.72-.14a4.49,4.49,0,0,1-1.6-2.23l-4.76-17.15c-.22-.8.14-1.1.8-.67a4.43,4.43,0,0,1,1.6,2.23l4.76,17.15C207.05,206.87,207,207.15,206.85,207.26Z" transform="translate(-1.53 -2.14)"/><path class="cls-3" d="M211.73,203.84c-.16.11-.44,0-.79-.2l-14.52-10.3a4.48,4.48,0,0,1-1.55-2.27c-.18-.76.22-1,.9-.52l14.52,10.3a4.54,4.54,0,0,1,1.55,2.27C211.92,203.49,211.87,203.73,211.73,203.84Z" transform="translate(-1.53 -2.14)"/><path class="cls-3" d="M216.48,221c-.14.1-.39.06-.71-.14a4.49,4.49,0,0,1-1.6-2.23l-4.76-17.15c-.22-.8.14-1.1.8-.67a4.49,4.49,0,0,1,1.6,2.23l4.76,17.15C216.69,220.6,216.64,220.88,216.48,221Z" transform="translate(-1.53 -2.14)"/><path class="cls-3" d="M221.36,217.56c-.16.12-.44.06-.79-.19l-14.51-10.3a4.48,4.48,0,0,1-1.55-2.27c-.18-.76.22-1,.9-.52l14.51,10.3a4.48,4.48,0,0,1,1.55,2.27C221.56,217.21,221.51,217.46,221.36,217.56Z" transform="translate(-1.53 -2.14)"/><path class="cls-3" d="M226.12,234.72c-.15.1-.4.06-.71-.14a4.51,4.51,0,0,1-1.61-2.23l-4.75-17.15c-.23-.8.13-1.1.8-.67a4.46,4.46,0,0,1,1.6,2.22l4.76,17.16C226.32,234.33,226.28,234.61,226.12,234.72Z" transform="translate(-1.53 -2.14)"/><path class="cls-3" d="M231,231.29c-.16.12-.44.06-.79-.19l-14.52-10.3a4.54,4.54,0,0,1-1.55-2.27c-.18-.77.23-1,.9-.52l14.52,10.3a4.45,4.45,0,0,1,1.55,2.26C231.2,230.94,231.15,231.19,231,231.29Z" transform="translate(-1.53 -2.14)"/><path class="cls-3" d="M149.34,89.69l0-.49c0-.32.06-.79.07-1.38s0-1.32,0-2.15-.15-1.76-.29-2.78a32.74,32.74,0,0,0-.66-3.24,34.68,34.68,0,0,0-1.11-3.53,35.7,35.7,0,0,0-1.6-3.62A31.38,31.38,0,0,0,143.63,69c-.37-.54-.8-1.14-1.22-1.66l-.64-.79-.67-.76A28.19,28.19,0,0,0,138.26,63a30,30,0,0,0-2.94-2.23c-.49-.32-1-.63-1.46-.9s-.94-.53-1.39-.77c-.91-.47-1.77-.85-2.53-1.18s-1.45-.56-2-.73-1-.31-1.33-.4l-.47-.13.48.07c.32.06.78.11,1.36.25s1.29.31,2.09.55c.4.13.83.26,1.27.42s.91.35,1.39.56a25.36,25.36,0,0,1,3,1.55c.53.3,1,.66,1.57,1s1.05.75,1.56,1.18a27,27,0,0,1,3,2.79l.71.79.69.83c.23.27.43.55.64.83l.32.42.16.23.15.22a34.89,34.89,0,0,1,2.16,3.67,33.62,33.62,0,0,1,1.57,3.78,29.3,29.3,0,0,1,1,3.68,24.2,24.2,0,0,1,.49,3.35c.05.52.07,1,.09,1.49s0,.92,0,1.34c0,.84-.08,1.57-.16,2.16a13.34,13.34,0,0,1-.22,1.36Z" transform="translate(-1.53 -2.14)"/><path class="cls-2" d="M131.6,62a27,27,0,0,1,9.6,8.39,29.46,29.46,0,0,1,4.89,12.08,18.85,18.85,0,0,0-14.88-.06l-4.7-6.7A18.73,18.73,0,0,0,131.6,62Z" transform="translate(-1.53 -2.14)"/><path class="cls-3" d="M153.11,96.77a.52.52,0,0,1-.41.08.63.63,0,0,1-.44-.4c-1.73-5.35-4.81-9-8.91-10.56a13.89,13.89,0,0,0-12.14,1.35l2.31,3.3a1.45,1.45,0,0,1-.28,2l-4.31,3a1.45,1.45,0,0,1-2-.42l-2.32-3.3a13.89,13.89,0,0,0-5.39,11c.07,4.39,2.46,8.52,6.9,12a.59.59,0,0,1,.23.55.52.52,0,0,1-.37.43c-8.53,2.51-21.11-3.91-28.62-14.62-.56-.79-1.09-1.61-1.58-2.43a.6.6,0,0,1-.08-.29l0-1.21-1.06-.76a.66.66,0,0,1-.19-.22,35.92,35.92,0,0,1-1.81-4.32.57.57,0,0,1,.08-.52l1.24-1.62-2.08-1.16a.59.59,0,0,1-.3-.39,28.52,28.52,0,0,1,1.73-18.89.52.52,0,0,1,.52-.29.59.59,0,0,1,.49.41c1.82,5.46,4.93,9.15,9,10.67a13.88,13.88,0,0,0,12.1-1.49c-1.19-2.43-2.79-9.45-3-10.31a.52.52,0,0,1,.21-.56h0a.53.53,0,0,1,.6,0c.74.47,6.79,4.34,8.68,6.31a14.18,14.18,0,0,0,5.45-11c-.08-4.3-2.47-8.43-6.91-11.94a.6.6,0,0,1-.22-.6.53.53,0,0,1,.45-.4c6-.67,12.49,1,18.35,4.8a.62.62,0,0,1,.28.42l.37,2.34,2-.61a.55.55,0,0,1,.52.1,36.69,36.69,0,0,1,3.44,3.17.52.52,0,0,1,.14.25l.36,1.26,1.13.43a.72.72,0,0,1,.25.18c.6.74,1.19,1.51,1.75,2.3,7.51,10.71,9.28,24.72,4,31.89A.34.34,0,0,1,153.11,96.77Zm-23-10.2a15,15,0,0,1,13.54-1.73c2.94,1.11,6.85,3.8,9.24,10.21,4.17-7,2.23-20-4.59-29.67-.51-.72-1.05-1.43-1.6-2.11l-1.26-.48a.62.62,0,0,1-.36-.4l-.4-1.4a36.89,36.89,0,0,0-3-2.76l-2.3.73a.56.56,0,0,1-.47-.07.57.57,0,0,1-.26-.41l-.45-2.76a27.83,27.83,0,0,0-16.1-4.58c5.08,4.44,6.25,8.91,6.3,12a15,15,0,0,1-6.27,12.19.47.47,0,0,1-.41.09.62.62,0,0,1-.37-.24c-.79-1.13-5.08-4.06-7.62-5.72.71,3,2,8,2.79,9.11a.55.55,0,0,1-.11.78A14.81,14.81,0,0,1,103,81.2c-2.89-1.09-6.76-3.72-9.25-10.11a27.91,27.91,0,0,0-1.16,16.69L95,89.14a.55.55,0,0,1,.29.39.53.53,0,0,1-.09.46l-1.46,1.92a35.77,35.77,0,0,0,1.58,3.74l1.18.85a.61.61,0,0,1,.25.48l0,1.35c.45.75.93,1.49,1.44,2.21,6.82,9.72,18.38,16,26.34,14.41-5.22-4.43-6.41-9-6.46-12.17a15,15,0,0,1,6.27-12.17.56.56,0,0,1,.77.16l2.65,3.78a.33.33,0,0,0,.46.1l4.31-3a.34.34,0,0,0,.06-.47L130,87.38a.55.55,0,0,1,.06-.74A.31.31,0,0,1,130.14,86.57Z" transform="translate(-1.53 -2.14)"/><polygon class="cls-3" points="152.87 74.97 148.7 74.73 152.27 72.77 152.87 74.97"/><polygon class="cls-3" points="153.17 76.82 151.56 75.97 152.63 74.6 153.17 76.82"/><polygon class="cls-3" points="115.05 76.4 119.46 83.63 114.17 77.02 115.05 76.4"/><polygon class="cls-3" points="120.7 72.31 128.04 83.7 119.82 72.93 120.7 72.31"/><path class="cls-2" d="M142.22,105.68l-4,2.81c-1,.71-3.08-.48-4.91-3.08h0c-1.82-2.6-2-4.54-.94-5.25l4-2.81c1-.71,2.79.08,4.62,2.68h0C142.81,102.62,143.23,105,142.22,105.68Z" transform="translate(-1.53 -2.14)"/><path class="cls-3" d="M143,106.81l-4,2.81c-1.3.91-3.94-.77-6.14-3.9s-2.66-5.74-1.3-6.69l4-2.81c1.36-1,3.71.45,5.85,3.5S144.31,105.9,143,106.81Zm-9.85-5.52c-.68.47-.87,1.72.59,3.81,1.32,1.88,2.87,2.83,3.67,2.26l4-2.81c.8-.57.43-2.34-.88-4.22-1.47-2.09-2.71-2.33-3.39-1.85Z" transform="translate(-1.53 -2.14)"/><path class="cls-3" d="M135.53,106.2a5.12,5.12,0,0,1,2.13-2.76,5,5,0,0,1,3.31-1.06,5.87,5.87,0,0,1-5.44,3.82Z" transform="translate(-1.53 -2.14)"/><path class="cls-2" d="M175.73,62.84c.29-.36,1-.26,1.33-.6s.2-1.15.52-1.49A36.61,36.61,0,0,1,181,57.64c.33-.27,2.58.82,2.58.82s-.21-2.58.48-3a28.12,28.12,0,0,1,18-4.68,36.45,36.45,0,0,0-5.36,6c-4.21,7.4-.52,14.76,4.27,18.16v0c1.19-1.7,8.9-6.58,8.9-6.58s-2,9-3.16,10.61h0c4.83,3.28,12.91,4.19,18.39-2.2v-.08a21.05,21.05,0,0,0,3.82-7.08c2.59,5.23,3.23,11.85,1.72,18.55-.18.8-2.69,1.48-2.69,1.48s1.79,1.75,1.65,2.15A35.91,35.91,0,0,1,227.83,96c-.21.42-1,.58-1.23,1s.13,1.05-.11,1.45c-.48.81-1,1.6-1.54,2.39-7.22,10.29-19.64,16.84-28.06,14.35a20.21,20.21,0,0,0,5.05-5.48H202c4.42-7.35,1-15-3.88-18.53l-2.66,3.78a.89.89,0,0,1-1.23.26l-4.32-3a.88.88,0,0,1-.18-1.24l2.65-3.78c-5-3.45-13.47-4.14-18.91,2.63h0a20.37,20.37,0,0,0-3.44,6.6c-5.2-7.07-3.25-21,4-31.26C174.56,64.32,175.14,63.56,175.73,62.84Z" transform="translate(-1.53 -2.14)"/><path class="cls-3" d="M202,109.76l.48-.08c.32-.06.78-.11,1.36-.26s1.28-.33,2.09-.58c.39-.14.82-.28,1.26-.45s.9-.37,1.37-.59a26.59,26.59,0,0,0,3-1.59,30.68,30.68,0,0,0,3.12-2.19,32.34,32.34,0,0,0,3-2.77A31.86,31.86,0,0,0,220.38,98l.16-.21.15-.24.29-.43c.19-.3.39-.58.57-.9l.54-.92.5-.93a27.31,27.31,0,0,0,1.61-3.78c.22-.63.4-1.26.57-1.87s.31-1.22.41-1.82a25.21,25.21,0,0,0,.43-3.35c0-.52,0-1,.06-1.49s0-.92,0-1.34c0-.84-.11-1.57-.2-2.16s-.17-1.05-.22-1.36l-.09-.48,0,.49c0,.32.06.79.07,1.39s0,1.32,0,2.14-.11,1.77-.24,2.78c-.08.51-.14,1-.26,1.58s-.21,1.1-.35,1.67a31.45,31.45,0,0,1-1.09,3.53,31,31,0,0,1-1.63,3.6l-.48.89-.53.87c-.34.57-.77,1.18-1.15,1.71a30.6,30.6,0,0,1-2.58,3.18,36.45,36.45,0,0,1-2.86,2.73,33.31,33.31,0,0,1-2.95,2.24c-1,.67-1.93,1.23-2.82,1.73s-1.75.88-2.51,1.22-1.45.58-2,.76-1,.32-1.32.41Z" transform="translate(-1.53 -2.14)"/><path class="cls-2" d="M222,83.65a26.83,26.83,0,0,1-4.63,11.88,29.42,29.42,0,0,1-9.7,8.71,18.83,18.83,0,0,0-5-14l4.7-6.7A18.77,18.77,0,0,0,222,83.65Z" transform="translate(-1.53 -2.14)"/><polygon class="cls-3" points="215.86 106.78 212.8 104.09 213.99 108.09 215.86 106.78"/><polygon class="cls-3" points="214.25 107.75 212.61 107.21 212.36 109.01 214.25 107.75"/><polygon class="cls-3" points="87.33 233.82 91.6 236.81 154.32 148.34 195.34 89.03 191.07 86.03 149.23 144.76 87.33 233.82"/><path class="cls-3" d="M88.41,235.66l61.92-89.08,41.85-58.73c.43-.62,1-1,1.22-.8l4.26,3c.24.17.09.8-.34,1.42l-41,59.34L93.56,239.28c-.44.61-1,1-1.23.8l-4.26-3C87.83,236.92,88,236.28,88.41,235.66Zm67-85.47L195.64,92l-3.4-2.39-41,57.59L90.09,235.14l3.39,2.38Z" transform="translate(-1.53 -2.14)"/><rect class="cls-2" x="116.32" y="147.11" width="6.44" height="99.37" transform="translate(102.78 424.4) rotate(-144.93)"/><path class="cls-3" d="M87.92,235.3,145,154c.44-.62,1-1,1.23-.82l5.27,3.7c.25.17.09.81-.35,1.44L94.07,239.62c-.44.62-1,1-1.23.82l-5.27-3.7C87.32,236.57,87.48,235.92,87.92,235.3Zm61.57-76.5-4.39-3.08L89.59,234.79,94,237.87Z" transform="translate(-1.53 -2.14)"/><rect class="cls-3" x="67.94" y="194.57" width="99.37" height="1.74" transform="translate(-111.45 177.28) rotate(-54.93)"/><path class="cls-3" d="M87.92,235.3,145,154c.44-.62,1-1,1.23-.82l1.43,1c.24.17.09.82-.35,1.44L90.23,236.92c-.44.62-1,1-1.24.82l-1.42-1C87.32,236.57,87.48,235.92,87.92,235.3Zm57.72-79.2-.54-.38L89.59,234.79l.55.38Z" transform="translate(-1.53 -2.14)"/><rect class="cls-3" x="83.43" y="235.14" width="10.3" height="11.5" rx="3.34" transform="translate(21.15 486.81) rotate(-144.93)"/><path class="cls-3" d="M83.93,237.62c2.26-3.21,5.11-5.12,6.37-4.23l4.76,3.34c1.25.88.44,4.21-1.82,7.43s-5.12,5.12-6.37,4.24l-4.76-3.34C80.85,244.18,81.67,240.84,83.93,237.62Zm4.78-2c-.77-.54-2.52.63-3.9,2.6s-1.89,4-1.12,4.56l4.76,3.34c.77.54,2.52-.62,3.91-2.6s1.88-4,1.11-4.55Z" transform="translate(-1.53 -2.14)"/><rect class="cls-3" x="144.65" y="147.65" width="10.7" height="11.5" rx="3.34" transform="translate(183.11 362.99) rotate(-144.93)"/><path class="cls-3" d="M145.18,150c2.26-3.21,5.12-5.11,6.37-4.23l5.09,3.57c1.26.88.44,4.22-1.82,7.43s-5.11,5.12-6.37,4.24l-5.09-3.57C142.1,156.57,142.92,153.23,145.18,150Zm4.79-2c-.77-.54-2.52.62-3.91,2.59s-1.88,4-1.11,4.56l5.09,3.57c.77.54,2.52-.62,3.9-2.59s1.89-4,1.12-4.56Z" transform="translate(-1.53 -2.14)"/><path class="cls-3" d="M192,90.4c1.72-2.06,3.34-4.21,5-6.35,1.13-1.52,2.25-3,3.35-4.58a52.78,52.78,0,0,1,3.45-4.3,40.8,40.8,0,0,0,3-3.68,23.5,23.5,0,0,0-6.79,6.65q-3.12,4.5-6.05,9.14C193.24,88.31,192.59,89.34,192,90.4Z" transform="translate(-1.53 -2.14)"/><path class="cls-4" d="M155.4,153.67a8.92,8.92,0,0,0-3.15-3.47,8.78,8.78,0,0,0-4.34-1.78,10.64,10.64,0,0,0,7.49,5.25Z" transform="translate(-1.53 -2.14)"/><path class="cls-4" d="M94,240.88a8.21,8.21,0,0,0-3-3.38,8.12,8.12,0,0,0-4.19-1.68,9.82,9.82,0,0,0,7.2,5.06Z" transform="translate(-1.53 -2.14)"/><path class="cls-4" d="M181.27,111.92c-4.42,5.74-8.68,11.75-12.84,17.72s-8.33,12-12.17,18.17c4.42-5.74,8.68-11.75,12.84-17.72S177.42,118.05,181.27,111.92Z" transform="translate(-1.53 -2.14)"/><path class="cls-3" d="M135.16,179.8c.15.11.4.07.71-.14a4.48,4.48,0,0,0,1.61-2.22l4.75-17.16c.23-.8-.13-1.1-.8-.67a4.49,4.49,0,0,0-1.6,2.23L135.07,179C135,179.41,135,179.69,135.16,179.8Z" transform="translate(-1.53 -2.14)"/><path class="cls-3" d="M130.28,176.38c.16.11.44.05.79-.2l14.52-10.3a4.51,4.51,0,0,0,1.55-2.26c.18-.77-.23-1-.9-.53l-14.52,10.3a4.52,4.52,0,0,0-1.55,2.27C130.08,176,130.13,176.27,130.28,176.38Z" transform="translate(-1.53 -2.14)"/><path class="cls-3" d="M125.52,193.53c.15.11.4.07.72-.14a4.46,4.46,0,0,0,1.6-2.22L132.6,174c.22-.8-.14-1.1-.8-.67a4.45,4.45,0,0,0-1.61,2.23l-4.76,17.15C125.32,193.14,125.36,193.42,125.52,193.53Z" transform="translate(-1.53 -2.14)"/><path class="cls-3" d="M120.64,190.11c.16.11.44,0,.79-.2L136,179.61a4.45,4.45,0,0,0,1.55-2.26c.18-.77-.23-1-.9-.53l-14.52,10.3a4.48,4.48,0,0,0-1.55,2.27C120.45,189.76,120.49,190,120.64,190.11Z" transform="translate(-1.53 -2.14)"/><path class="cls-3" d="M115.88,207.26c.15.11.4.07.72-.14a4.49,4.49,0,0,0,1.6-2.23L123,187.74c.22-.8-.14-1.1-.8-.67a4.43,4.43,0,0,0-1.6,2.23l-4.76,17.15C115.68,206.87,115.72,207.15,115.88,207.26Z" transform="translate(-1.53 -2.14)"/><path class="cls-3" d="M111,203.84c.16.11.44,0,.8-.2l14.51-10.3a4.48,4.48,0,0,0,1.55-2.27c.18-.76-.22-1-.9-.52l-14.52,10.3a4.54,4.54,0,0,0-1.55,2.27C110.81,203.49,110.86,203.73,111,203.84Z" transform="translate(-1.53 -2.14)"/><path class="cls-3" d="M106.25,221c.14.1.39.06.71-.14a4.49,4.49,0,0,0,1.6-2.23l4.76-17.15c.22-.8-.14-1.1-.8-.67a4.49,4.49,0,0,0-1.6,2.23l-4.76,17.15C106,220.6,106.09,220.88,106.25,221Z" transform="translate(-1.53 -2.14)"/><path class="cls-3" d="M101.37,217.56c.16.12.44.06.79-.19l14.51-10.3a4.42,4.42,0,0,0,1.55-2.27c.18-.76-.22-1-.9-.52l-14.51,10.3a4.48,4.48,0,0,0-1.55,2.27C101.17,217.21,101.22,217.46,101.37,217.56Z" transform="translate(-1.53 -2.14)"/><path class="cls-3" d="M96.61,234.72c.15.1.4.06.71-.14a4.51,4.51,0,0,0,1.61-2.23l4.75-17.15c.23-.8-.13-1.1-.8-.67a4.46,4.46,0,0,0-1.6,2.22l-4.76,17.16C96.41,234.33,96.45,234.61,96.61,234.72Z" transform="translate(-1.53 -2.14)"/><path class="cls-3" d="M91.73,231.29c.16.12.44.06.79-.19L107,220.8a4.54,4.54,0,0,0,1.55-2.27c.18-.77-.23-1-.9-.52l-14.52,10.3a4.45,4.45,0,0,0-1.55,2.26C91.53,230.94,91.58,231.19,91.73,231.29Z" transform="translate(-1.53 -2.14)"/><path class="cls-3" d="M173.39,89.69l0-.49c0-.32-.06-.79-.06-1.38s0-1.32,0-2.15.15-1.76.29-2.78a32.74,32.74,0,0,1,.66-3.24,34.68,34.68,0,0,1,1.11-3.53A35.7,35.7,0,0,1,177,72.5,31.38,31.38,0,0,1,179.1,69c.37-.54.8-1.14,1.22-1.66l.64-.79.67-.76A28.19,28.19,0,0,1,184.47,63a30,30,0,0,1,2.94-2.23c.49-.32,1-.63,1.46-.9s.94-.53,1.39-.77c.91-.47,1.77-.85,2.53-1.18s1.45-.56,2-.73,1-.31,1.33-.4l.47-.13-.48.07c-.32.06-.78.11-1.36.25s-1.29.31-2.09.55c-.4.13-.83.26-1.27.42s-.91.35-1.38.56a24.7,24.7,0,0,0-3,1.55c-.53.3-1,.66-1.57,1s-1,.75-1.56,1.18a27,27,0,0,0-3,2.79l-.71.79-.68.83c-.24.27-.44.55-.65.83l-.32.42-.16.23-.15.22a34.89,34.89,0,0,0-2.16,3.67,33.62,33.62,0,0,0-1.57,3.78,29.3,29.3,0,0,0-1,3.68,24.2,24.2,0,0,0-.49,3.35c-.05.52-.06,1-.09,1.49s0,.92,0,1.34c0,.84.08,1.57.16,2.16a13.34,13.34,0,0,0,.22,1.36Z" transform="translate(-1.53 -2.14)"/><path class="cls-2" d="M191.13,62a27,27,0,0,0-9.6,8.39,29.46,29.46,0,0,0-4.89,12.08,18.85,18.85,0,0,1,14.88-.06l4.7-6.7A18.73,18.73,0,0,1,191.13,62Z" transform="translate(-1.53 -2.14)"/><path class="cls-3" d="M169.5,96.65c-5.26-7.17-3.49-21.18,4-31.89.56-.79,1.15-1.56,1.75-2.3a.72.72,0,0,1,.25-.18l1.13-.43.36-1.26a.52.52,0,0,1,.14-.25,36.69,36.69,0,0,1,3.44-3.17.55.55,0,0,1,.52-.1l1.95.61.38-2.34a.57.57,0,0,1,.27-.42c5.86-3.76,12.38-5.47,18.35-4.8a.53.53,0,0,1,.45.4.6.6,0,0,1-.22.6c-4.44,3.51-6.83,7.64-6.91,11.94a14.18,14.18,0,0,0,5.45,11c1.89-2,7.95-5.84,8.68-6.31a.53.53,0,0,1,.6,0h0a.52.52,0,0,1,.21.56c-.2.86-1.8,7.88-3,10.31a13.88,13.88,0,0,0,12.1,1.49c4.07-1.52,7.18-5.21,9-10.67a.59.59,0,0,1,.49-.41.51.51,0,0,1,.52.29,28.52,28.52,0,0,1,1.73,18.89.59.59,0,0,1-.3.39l-2.08,1.16L230,91.41a.57.57,0,0,1,.08.52,35.92,35.92,0,0,1-1.81,4.32.66.66,0,0,1-.19.22l-1.06.76,0,1.21a.6.6,0,0,1-.08.29c-.49.82-1,1.64-1.58,2.43-7.51,10.71-20.09,17.13-28.62,14.62a.52.52,0,0,1-.37-.43.59.59,0,0,1,.23-.55c4.44-3.45,6.83-7.58,6.9-12a13.89,13.89,0,0,0-5.39-11l-2.32,3.3a1.45,1.45,0,0,1-2,.42l-4.31-3a1.45,1.45,0,0,1-.28-2l2.31-3.3a13.89,13.89,0,0,0-12.14-1.35c-4.1,1.56-7.18,5.21-8.91,10.56a.63.63,0,0,1-.44.4.52.52,0,0,1-.41-.08A.34.34,0,0,1,169.5,96.65Zm23.18-10a.55.55,0,0,1,.06.74l-2.65,3.78a.34.34,0,0,0,.06.47l4.31,3a.33.33,0,0,0,.46-.1l2.65-3.78a.56.56,0,0,1,.77-.16,15,15,0,0,1,6.27,12.17c-.05,3.15-1.24,7.74-6.46,12.17,8,1.55,19.52-4.69,26.34-14.41.51-.72,1-1.46,1.44-2.21L226,97a.61.61,0,0,1,.25-.48l1.18-.85A35.77,35.77,0,0,0,229,91.91L227.51,90a.53.53,0,0,1-.09-.46.55.55,0,0,1,.29-.39l2.45-1.36A27.91,27.91,0,0,0,229,71.09c-2.49,6.39-6.35,9-9.25,10.11a14.81,14.81,0,0,1-13.48-1.88.55.55,0,0,1-.11-.78c.77-1.1,2.08-6.14,2.79-9.11-2.54,1.66-6.83,4.59-7.62,5.72a.62.62,0,0,1-.37.24.47.47,0,0,1-.41-.09,15,15,0,0,1-6.27-12.19c.05-3.06,1.22-7.53,6.3-12a27.83,27.83,0,0,0-16.1,4.58L184,58.48a.57.57,0,0,1-.26.41.56.56,0,0,1-.47.07l-2.3-.73A36.89,36.89,0,0,0,178,61l-.4,1.4a.62.62,0,0,1-.36.4l-1.26.48c-.55.68-1.09,1.39-1.6,2.11-6.82,9.72-8.76,22.71-4.59,29.67,2.39-6.41,6.3-9.1,9.24-10.21a15,15,0,0,1,13.54,1.73A.31.31,0,0,1,192.68,86.64Z" transform="translate(-1.53 -2.14)"/><polygon class="cls-3" points="166.81 74.97 170.97 74.73 167.4 72.77 166.81 74.97"/><polygon class="cls-3" points="166.5 76.82 168.11 75.97 167.04 74.6 166.5 76.82"/><polygon class="cls-3" points="204.63 76.4 200.21 83.63 205.51 77.02 204.63 76.4"/><polygon class="cls-3" points="198.97 72.31 191.63 83.7 199.85 72.93 198.97 72.31"/><path class="cls-2" d="M180.51,105.68l4,2.81c1,.71,3.08-.48,4.91-3.08h0c1.82-2.6,2-4.54.94-5.25l-4-2.81c-1-.71-2.79.08-4.62,2.68h0C179.92,102.62,179.5,105,180.51,105.68Z" transform="translate(-1.53 -2.14)"/><path class="cls-3" d="M181.3,99.72c2.14-3,4.49-4.46,5.85-3.5l4,2.81c1.36,1,.84,3.64-1.3,6.69s-4.84,4.81-6.14,3.9l-4-2.81C178.42,105.9,179.1,102.85,181.3,99.72Zm4.27-1.24c-.68-.48-1.92-.24-3.39,1.85-1.31,1.88-1.68,3.65-.88,4.22l4,2.81c.81.57,2.35-.38,3.67-2.26,1.46-2.09,1.27-3.34.59-3.81Z" transform="translate(-1.53 -2.14)"/><path class="cls-3" d="M187.2,106.2a5.07,5.07,0,0,0-2.13-2.76,5,5,0,0,0-3.31-1.06,5.87,5.87,0,0,0,5.44,3.82Z" transform="translate(-1.53 -2.14)"/></g><g class="cls-1"><path class="cls-5" d="M32,234.77c-.53.36-1.12-.15-1.77.14l-2.56-1.82c-.86-1.77-.66-3.44-.74-5.07a11.92,11.92,0,0,1,.51-3.4,24.47,24.47,0,0,0,.34-2.71c.31-2.18.43-4.38.58-6.58a38.86,38.86,0,0,0-.14-5.81,2.49,2.49,0,0,1,.14-.7c.22-.66.19-1.52.8-1.87s.64-.76.95-1.13c.88-1,.89-2.46,1.61-3.39a8.12,8.12,0,0,0,.07-1.73c-.31-1.78.42-3.35,1-4.94a2.69,2.69,0,0,1,.9-1.4c.6-.36.71-1,1.09-1.43s.82-1,1.21-1.48c0,0,0-.16,0-.15-1,0-2.06,0-3.07-.1-.18,0-.36-.2-.54-.3a10.14,10.14,0,0,1,2.29-1.18c.39-.15.66-.6,1.17-.42l0,1.21c.41.81,1.21.54,1.78.8.53,1.12.18,2.25.25,3.35,0,.73.11,1.46.11,2.19a20.1,20.1,0,0,1-.47,4.57,22,22,0,0,0-.34,2.71c-.2,2.14-.45,4.29-.56,6.44-.07,1.35.09,2.72.13,4.08a3.66,3.66,0,0,1-.15.7l-.45.78c0,.55,0,.94-.06,1.32-.14,1.09-.26,2.19-.49,3.26a12.1,12.1,0,0,1-.84,2.79c-.78,1.62-2.29,2.74-2.94,4.46l.16.61c-.62,2.14-.79,4.12.65,5.92Z" transform="translate(-1.53 -2.14)"/><path class="cls-6" d="M29.49,151.72a3.51,3.51,0,0,1-.13-.95,9.59,9.59,0,0,0,0-2.78,16.23,16.23,0,0,1,.07-3c.1-2.55.07-5.12.14-7.67.07-2.76.14-5.52.13-8.27s0-5.53,0-8.29c0-1.73.07-3.47.14-5.2a62.48,62.48,0,0,0-.34-9.37,34.51,34.51,0,0,1,.1-6.66c.17-2.2.43-4.4.57-6.6.09-1.3-.05-2.62,0-3.93.06-1-.17-2.16.39-3l1.21-.47a2.49,2.49,0,0,1,.76,2.07c0,1.5,0,3,0,4.51,0,1.9.24,3.78.19,5.69s.18,3.71.26,5.56.13,3.6.18,5.4c.06,2.67.09,5.35.17,8,.05,1.85.16,3.7.22,5.55.07,2.29.13,4.58.29,6.87a23.79,23.79,0,0,0,.4,3.26c0,.21-.09.46-.14.7a1.51,1.51,0,0,0-.19.55c.07.92-.17,1.83-.17,2.73a43.49,43.49,0,0,1-.64,4.56,22.45,22.45,0,0,1-.67,3.4c-.28,1.1-.34,2.28-.72,3.37.33.74-.62,1.12-.48,1.83a2.65,2.65,0,0,1-.66,2Z" transform="translate(-1.53 -2.14)"/><path class="cls-7" d="M35.73,189.3c-.51-.18-.78.27-1.17.42a10.14,10.14,0,0,0-2.29,1.18c-.44.48-1,.27-1.5.16-.62-.14-1.1.46-1.74.16-.2-.09-.57,0-.82-.16a43.33,43.33,0,0,1,0-7.47c.18-2.69.53-5.36.67-8,.09-1.55.11-3.1.07-4.66,0-1.39.08-2.79.07-4.19,0-1.7,0-3.39.07-5.08l.82-.33A6.4,6.4,0,0,1,31,159c.35-.72.34-1.58.92-2.2-.18-.95.73-1.5.88-2.35a18.59,18.59,0,0,1,.71-2.23c.23-.77.42-1.55.7-2.61l.42,1.92a17.34,17.34,0,0,1,0,2.39,20,20,0,0,0,.11,3.79,11.22,11.22,0,0,1,0,1.74c.06,2.34.11,4.67.19,7,0,.68.11,1.37.13,2.05.12,3.36-.07,6.73.38,10.07a24.43,24.43,0,0,0,0,4.36c0,1.41.13,2.82.18,4.24C35.75,187.85,35.73,188.58,35.73,189.3Z" transform="translate(-1.53 -2.14)"/><path class="cls-8" d="M28.21,191.06c.25.2.62.07.82.16.64.3,1.12-.3,1.74-.16.46.11,1.06.32,1.5-.16.18.1.36.29.54.3,1,.06,2,.07,3.07.1,0,0,.06.11,0,.15-.39.5-.8,1-1.21,1.48s-.49,1.07-1.09,1.43a2.69,2.69,0,0,0-.9,1.4c-.54,1.59-1.27,3.16-1,4.94a8.12,8.12,0,0,1-.07,1.73c-.72.93-.73,2.36-1.61,3.39-.31.37-.44.83-.95,1.13s-.58,1.21-.8,1.87c-.57-.58-.27-1.34-.39-2-.32-1.73-.6-3.47-.86-5.2a13.31,13.31,0,0,1-.44-3.66,23.88,23.88,0,0,0-.05-3.48c0-1,0-1.94-.07-3C26.91,190.93,27.67,191.36,28.21,191.06Z" transform="translate(-1.53 -2.14)"/><path class="cls-8" d="M32,234.77l.5-.28c-1.44-1.8-1.27-3.78-.65-5.92l-.16-.61c.65-1.72,2.16-2.84,2.94-4.46a12.1,12.1,0,0,0,.84-2.79c.23-1.07.35-2.17.49-3.26,0-.38,0-.77.06-1.32l.45-.78c.46,2.16.51,4.38.89,6.56a32.1,32.1,0,0,1,.74,6.17,16.23,16.23,0,0,1-.15,3.61,4.37,4.37,0,0,1-1.86,2.56,3.09,3.09,0,0,1-2.65.61C32.91,234.72,32.4,235.29,32,234.77Z" transform="translate(-1.53 -2.14)"/><path class="cls-9" d="M34.67,151.49l-.42-1.92c-.28,1.06-.47,1.84-.7,2.61a18.59,18.59,0,0,0-.71,2.23c-.15.85-1.06,1.4-.88,2.35-.58.62-.57,1.48-.92,2.2A6.4,6.4,0,0,0,30,161.29l-.82.33c.07-2.39.18-4.79.19-7.18a7.54,7.54,0,0,1,.17-2.72l1.16-.16a2.65,2.65,0,0,0,.66-2c-.14-.71.81-1.09.48-1.83.38-1.09.44-2.27.72-3.37a22.45,22.45,0,0,0,.67-3.4,43.49,43.49,0,0,0,.64-4.56c0-.9.24-1.81.17-2.73a1.51,1.51,0,0,1,.19-.55c.54.48.2,1.14.29,1.7.38,2.24.7,4.5.88,6.77a30.15,30.15,0,0,1-.15,4c-.1,1.77-.22,3.53-.34,5.3A1.89,1.89,0,0,1,34.67,151.49Z" transform="translate(-1.53 -2.14)"/></g><g class="cls-1"><path class="cls-5" d="M290.41,85.75c.54-.36,1.12.15,1.77-.15l2.56,1.83c.87,1.76.67,3.43.74,5.06A11.65,11.65,0,0,1,295,95.9c-.21.88-.21,1.8-.34,2.7-.3,2.18-.43,4.39-.58,6.58a39,39,0,0,0,.15,5.82,2.51,2.51,0,0,1-.15.7c-.22.65-.19,1.52-.79,1.87s-.64.75-1,1.13c-.87,1-.89,2.46-1.61,3.39a8.81,8.81,0,0,0-.07,1.73c.31,1.78-.42,3.34-1,4.94a2.63,2.63,0,0,1-.9,1.4c-.6.36-.7,1-1.08,1.42s-.82,1-1.22,1.48c0,0,0,.16,0,.16,1.05,0,2.06,0,3.07.1.19,0,.36.19.54.3a10.13,10.13,0,0,1-2.29,1.18c-.39.15-.66.6-1.17.41l.05-1.2c-.4-.82-1.2-.54-1.78-.81-.53-1.11-.17-2.25-.25-3.34,0-.73-.11-1.46-.11-2.19a20.83,20.83,0,0,1,.47-4.58,22.13,22.13,0,0,0,.34-2.7c.21-2.15.46-4.29.57-6.44.07-1.36-.1-2.72-.13-4.08a2.9,2.9,0,0,1,.14-.7l.46-.78c0-.55,0-.94.05-1.33.15-1.09.26-2.18.49-3.26a12.13,12.13,0,0,1,.85-2.79c.77-1.62,2.28-2.73,2.93-4.46l-.16-.6c.62-2.14.79-4.12-.64-5.93Z" transform="translate(-1.53 -2.14)"/><path class="cls-6" d="M292.89,168.8a3.87,3.87,0,0,1,.12.95,9.53,9.53,0,0,0,0,2.77,16.2,16.2,0,0,1-.08,3c-.1,2.56-.07,5.12-.14,7.68-.06,2.75-.14,5.51-.13,8.27s0,5.53,0,8.29c0,1.72-.07,3.47-.15,5.2a62.3,62.3,0,0,0,.35,9.36,36.18,36.18,0,0,1-.1,6.66c-.17,2.21-.44,4.4-.58,6.61-.08,1.3.06,2.62,0,3.92-.06,1.05.17,2.17-.4,3l-1.21.47a2.49,2.49,0,0,1-.76-2.07c0-1.51,0-3,0-4.51,0-1.9-.24-3.79-.19-5.69s-.18-3.71-.25-5.57-.14-3.6-.18-5.4c-.07-2.67-.1-5.34-.17-8-.05-1.85-.17-3.7-.23-5.56-.07-2.29-.12-4.58-.29-6.87a23.65,23.65,0,0,0-.4-3.25,1.8,1.8,0,0,1,.15-.7,1.82,1.82,0,0,0,.18-.56c-.06-.92.17-1.83.17-2.73,0-1.56.49-3,.64-4.56a22.09,22.09,0,0,1,.67-3.39c.28-1.1.34-2.28.72-3.38-.33-.73.62-1.12.48-1.82a2.68,2.68,0,0,1,.67-2Z" transform="translate(-1.53 -2.14)"/><path class="cls-7" d="M286.64,131.21c.51.19.78-.26,1.17-.41a10.13,10.13,0,0,0,2.29-1.18c.45-.48,1-.28,1.5-.17.62.15,1.11-.45,1.74-.15.2.09.57,0,.82.16a43.34,43.34,0,0,1,0,7.47c-.18,2.68-.54,5.36-.68,8-.08,1.54-.11,3.1-.06,4.65,0,1.39-.09,2.8-.08,4.2,0,1.69,0,3.38-.06,5.08l-.83.32a6.45,6.45,0,0,1-1.09,2.34c-.35.71-.33,1.58-.92,2.2.18,1-.73,1.49-.88,2.35a20.51,20.51,0,0,1-.7,2.23c-.23.77-.42,1.55-.71,2.61L287.7,169a17.33,17.33,0,0,1,0-2.39,20,20,0,0,0-.12-3.79,14.38,14.38,0,0,1,0-1.74q-.07-3.49-.18-7c0-.69-.12-1.37-.14-2.06-.11-3.35.07-6.72-.37-10.06a24.42,24.42,0,0,0,0-4.36c0-1.41-.13-2.83-.18-4.24C286.62,132.67,286.64,131.94,286.64,131.21Z" transform="translate(-1.53 -2.14)"/><path class="cls-8" d="M294.16,129.46c-.25-.2-.62-.07-.82-.16-.63-.3-1.12.3-1.74.15-.46-.11-1.05-.31-1.5.17-.18-.11-.35-.29-.54-.3-1-.06-2-.07-3.07-.1,0,0-.06-.12,0-.16.4-.5.81-1,1.22-1.48s.48-1.06,1.08-1.42a2.63,2.63,0,0,0,.9-1.4c.54-1.6,1.27-3.16,1-4.94a8.81,8.81,0,0,1,.07-1.73c.72-.93.74-2.36,1.61-3.39.32-.38.44-.84,1-1.13s.57-1.22.79-1.87c.57.58.28,1.33.4,2,.31,1.73.59,3.47.85,5.2a13.31,13.31,0,0,1,.44,3.66,23.91,23.91,0,0,0,.06,3.48c0,1,0,1.94.06,3C295.46,129.58,294.7,129.15,294.16,129.46Z" transform="translate(-1.53 -2.14)"/><path class="cls-8" d="M290.41,85.75l-.49.27c1.43,1.81,1.26,3.79.64,5.93l.16.6c-.65,1.73-2.16,2.84-2.93,4.46a12.13,12.13,0,0,0-.85,2.79c-.23,1.08-.34,2.17-.49,3.26-.05.39,0,.78-.05,1.33l-.46.78c-.46-2.17-.51-4.39-.89-6.57a31.9,31.9,0,0,1-.73-6.17,15.54,15.54,0,0,1,.14-3.6,4.34,4.34,0,0,1,1.86-2.56,3.1,3.1,0,0,1,2.65-.62C289.47,85.79,290,85.22,290.41,85.75Z" transform="translate(-1.53 -2.14)"/><path class="cls-9" d="M287.7,169l.42,1.93c.29-1.06.48-1.84.71-2.61a20.51,20.51,0,0,0,.7-2.23c.15-.86,1.06-1.4.88-2.35.59-.62.57-1.49.92-2.2a6.45,6.45,0,0,0,1.09-2.34l.83-.32c-.08,2.39-.19,4.78-.2,7.18a7.55,7.55,0,0,1-.16,2.72l-1.16.15a2.68,2.68,0,0,0-.67,2c.14.7-.81,1.09-.48,1.82-.38,1.1-.44,2.28-.72,3.38a22.09,22.09,0,0,0-.67,3.39c-.15,1.53-.64,3-.64,4.56,0,.9-.23,1.81-.17,2.73a1.82,1.82,0,0,1-.18.56c-.54-.49-.21-1.14-.3-1.7-.38-2.25-.7-4.51-.88-6.77a30.1,30.1,0,0,1,.16-4c.09-1.77.21-3.54.33-5.31A2.12,2.12,0,0,1,287.7,169Z" transform="translate(-1.53 -2.14)"/></g><path class="cls-10" d="M159.91,104.53a10.6,10.6,0,1,1,10.6-10.6A10.62,10.62,0,0,1,159.91,104.53Zm0-20.72A10.12,10.12,0,1,0,170,93.93,10.19,10.19,0,0,0,159.91,83.81Z" transform="translate(-1.53 -2.14)"/><path class="cls-10" d="M159.92,104.5a.32.32,0,0,1-.27-.15l-9-15.17a.34.34,0,0,1,0-.31.32.32,0,0,1,.27-.16l17.84-.17h0a.31.31,0,0,1,.13,0,.32.32,0,0,1,.14.44l-8.91,15.34a.33.33,0,0,1-.27.15Zm.14-.44Zm-8.8-14.89,8.65,14.64,8.58-14.76Z" transform="translate(-1.53 -2.14)"/><path class="cls-10" d="M151,99.43a.34.34,0,0,1-.17-.05.34.34,0,0,1-.13-.48l8.88-15.3a.28.28,0,0,1,.24-.13h0a.26.26,0,0,1,.23.13l9,15.17a.38.38,0,0,1,0,.36.35.35,0,0,1-.31.18L151,99.43Zm8.82-15.21L151.26,99l17.23-.13Z" transform="translate(-1.53 -2.14)"/><ellipse class="cls-11" cx="158.31" cy="91.84" rx="5.14" ry="5.03"/><ellipse class="cls-12" cx="158.31" cy="91.84" rx="1.97" ry="1.93"/><path class="cls-13" d="M109.46,266.55l5-69.26L46.63,186.82l56.62-39.18L69,87.47l65.64,20.32,25.23-64.6,25.23,64.6,65.64-20.32-34.21,60.17,56.62,39.18-67.83,10.47,5,69.26-50.45-47.12Zm50.45-56.68,42.2,39.42-4.18-57.92,56.88-8.78-47.47-32.85L236,99.36l-55,17-21.09-54-21.09,54-55-17,28.64,50.38L65,182.59l56.88,8.78-4.18,57.92Z" transform="translate(-1.53 -2.14)"/><path class="cls-14" d="M150.51,121.61a1.5,1.5,0,0,1-1.21-.62,1.57,1.57,0,0,1-.37.05h-.62a1.61,1.61,0,0,1-.44-.06,1.5,1.5,0,0,1-1.22.63h-3a1.5,1.5,0,0,1-1.5-1.5v-1.17a1.49,1.49,0,0,1,.91-1.38v-2.87a1.49,1.49,0,0,1-1-1.42V112.1a1.5,1.5,0,0,1,1.5-1.5h2.17a1.48,1.48,0,0,1,1.31.79l1.63,3,1.54-3a1.49,1.49,0,0,1,1.33-.82h2.18a1.5,1.5,0,0,1,1.5,1.5v1.17a1.49,1.49,0,0,1-1,1.42v2.87a1.49,1.49,0,0,1,.91,1.38v1.17a1.5,1.5,0,0,1-1.5,1.5Z" transform="translate(-1.53 -2.14)"/><path class="cls-4" d="M153.68,112.1v1.17h-1v5.67h.91v1.17h-3.07v-1.17h.79v-3.83h-.05l-2.32,4.43h-.62L145.86,115h-.05v3.94h.84v1.17h-3v-1.17h.91v-5.67h-1V112.1h2.17l2.95,5.46h.05l2.81-5.46h2.18m0-3H151.5a3,3,0,0,0-2.67,1.63l-.23.45-.28-.51a3,3,0,0,0-2.63-1.57h-2.17a3,3,0,0,0-3,3v1.17a3,3,0,0,0,1,2.25v1.26a3,3,0,0,0-.91,2.16v1.17a3,3,0,0,0,3,3h3a3,3,0,0,0,1.75-.57h.36a3,3,0,0,0,1.75.57h3.07a3,3,0,0,0,3-3v-1.17a3,3,0,0,0-.91-2.16v-1.26a3,3,0,0,0,1-2.25V112.1a3,3,0,0,0-3-3Z" transform="translate(-1.53 -2.14)"/><path class="cls-14" d="M159,121.73a2.74,2.74,0,0,1-1.4-.35,3.43,3.43,0,0,1-1.55.35,3.54,3.54,0,0,1-1.93-.58,2.76,2.76,0,0,1-1.27-2.5,3.09,3.09,0,0,1,.43-1.63,1.51,1.51,0,0,1-.14-.91l.24-1.38a1.49,1.49,0,0,1,.83-1.1,6.58,6.58,0,0,1,1.41-.51,6.31,6.31,0,0,1,1.44-.15,3.88,3.88,0,0,1,2.45.78,3.15,3.15,0,0,1,1.17,2.59v1.71l.07,0a1.52,1.52,0,0,1,.62,1.15V120a1.5,1.5,0,0,1-.75,1.33A3.21,3.21,0,0,1,159,121.73Z" transform="translate(-1.53 -2.14)"/><path class="cls-4" d="M157.09,114.47a2.34,2.34,0,0,1,1.52.47,1.67,1.67,0,0,1,.6,1.4v2.49c0,.33.14.49.41.49a1.28,1.28,0,0,0,.28,0V120a1.78,1.78,0,0,1-.88.23,1,1,0,0,1-1.14-1.09v0a2.52,2.52,0,0,1-.69.78,1.78,1.78,0,0,1-1.12.34,2.19,2.19,0,0,1-1.14-.35,1.33,1.33,0,0,1-.56-1.23,1.29,1.29,0,0,1,.81-1.34A4.68,4.68,0,0,1,157,117h.48l.45,0v-.31a2.31,2.31,0,0,0-.17-.89c-.12-.26-.4-.39-.86-.39a2.56,2.56,0,0,0-.49,0,1.41,1.41,0,0,0-.44.14l-.22.85-1.06-.11.24-1.38a5.48,5.48,0,0,1,1.09-.4,4.63,4.63,0,0,1,1.11-.11m-.55,4.79a1.38,1.38,0,0,0,1.35-1.34v-.2l-.43,0a3.4,3.4,0,0,0-.45,0,2.11,2.11,0,0,0-.89.18.68.68,0,0,0-.38.69c0,.5.26.75.8.75m.55-7.79a7.25,7.25,0,0,0-3.5.81,3,3,0,0,0-1.66,2.2l-.23,1.38a3,3,0,0,0,0,1,4.74,4.74,0,0,0-.32,1.75,4.31,4.31,0,0,0,2,3.77,5.08,5.08,0,0,0,2.73.81,5.15,5.15,0,0,0,1.53-.23,4.31,4.31,0,0,0,1.42.23,4.71,4.71,0,0,0,2.38-.63,3,3,0,0,0,1.5-2.65v-.73a3,3,0,0,0-.69-1.86v-1a4.66,4.66,0,0,0-1.75-3.77,5.41,5.41,0,0,0-3.37-1.1Z" transform="translate(-1.53 -2.14)"/><path class="cls-14" d="M163.11,124.34a5,5,0,0,1-2.27-.52,3.62,3.62,0,0,1-1.82-2.13,1.51,1.51,0,0,1,.61-1.75,4.36,4.36,0,0,1-.68-2.48,5.05,5.05,0,0,1,.91-2.95,3.59,3.59,0,0,1,3.07-1.54,4,4,0,0,1,1.27.2,1.5,1.5,0,0,1,.52-.09h2.11a1.5,1.5,0,0,1,1.5,1.5v1a1.49,1.49,0,0,1-.8,1.33v3a4.51,4.51,0,0,1-1.11,3.13A4.26,4.26,0,0,1,163.11,124.34Z" transform="translate(-1.53 -2.14)"/><path class="cls-4" d="M162.93,114.47a1.87,1.87,0,0,1,1.79,1v-.86h2.11v1H166v4.3a3,3,0,0,1-.73,2.13,2.81,2.81,0,0,1-2.19.81,3.56,3.56,0,0,1-1.61-.37,2.09,2.09,0,0,1-1.06-1.27l1-.55a1.74,1.74,0,0,0,1.68,1.13,1.43,1.43,0,0,0,1.13-.49,2,2,0,0,0,.45-1.4v-.83a2.14,2.14,0,0,1-.68.76,2,2,0,0,1-1.2.31,2.31,2.31,0,0,1-1.68-.68,2.66,2.66,0,0,1-.71-2,3.59,3.59,0,0,1,.64-2.09,2.11,2.11,0,0,1,1.84-.9m.28,4.6a1.35,1.35,0,0,0,1.11-.49,1.76,1.76,0,0,0,.4-1.11V117a1.53,1.53,0,0,0-.4-1.1,1.3,1.3,0,0,0-1-.4,1.21,1.21,0,0,0-1.06.5,2.17,2.17,0,0,0-.37,1.34,1.86,1.86,0,0,0,.37,1.29,1.17,1.17,0,0,0,.93.41m-.28-7.6a5.09,5.09,0,0,0-4.3,2.18,6.54,6.54,0,0,0-1.18,3.81,6.39,6.39,0,0,0,.39,2.25,3,3,0,0,0-.24,2.47,5.11,5.11,0,0,0,2.58,3,6.69,6.69,0,0,0,2.93.67,5.7,5.7,0,0,0,4.42-1.8,6.09,6.09,0,0,0,1.5-4.14v-2.26a3,3,0,0,0,.8-2v-1a3,3,0,0,0-3-3h-2.11a2.63,2.63,0,0,0-.49,0,5.51,5.51,0,0,0-1.3-.15Z" transform="translate(-1.53 -2.14)"/><path class="cls-14" d="M167.41,121.61a1.5,1.5,0,0,1-1.5-1.5v-1a1.49,1.49,0,0,1,.83-1.34V117a1.48,1.48,0,0,1-.88-1.36v-1a1.51,1.51,0,0,1,.8-1.33V112a1.5,1.5,0,0,1,1.5-1.5h1.35A1.5,1.5,0,0,1,171,112v1.45a1.51,1.51,0,0,1-.1.53,1.44,1.44,0,0,1,.13.62v3.18a1.49,1.49,0,0,1,.83,1.34v1a1.5,1.5,0,0,1-1.5,1.5Z" transform="translate(-1.53 -2.14)"/><path class="cls-4" d="M169.51,112v1.45h-1.35V112h1.35m0,2.6v4.52h.83v1h-3v-1h.83v-3.5h-.88v-1h2.18m0-5.6h-1.35a3,3,0,0,0-3,3v.56a3,3,0,0,0-.8,2v1a3,3,0,0,0,.59,1.78,3,3,0,0,0-.54,1.72v1a3,3,0,0,0,3,3h3a3,3,0,0,0,3-3v-1a3,3,0,0,0-.83-2.07v-2.45a2.93,2.93,0,0,0-.07-.67,3.88,3.88,0,0,0,0-.48V112a3,3,0,0,0-3-3Z" transform="translate(-1.53 -2.14)"/><path class="cls-14" d="M175.64,121.73a2.71,2.71,0,0,1-1.39-.35,3.43,3.43,0,0,1-1.55.35,3.59,3.59,0,0,1-1.94-.58,2.78,2.78,0,0,1-1.26-2.5,3.09,3.09,0,0,1,.42-1.63,1.49,1.49,0,0,1-.13-.91l.23-1.38a1.49,1.49,0,0,1,.83-1.1,6.77,6.77,0,0,1,1.41-.51,6.4,6.4,0,0,1,1.45-.15,3.85,3.85,0,0,1,2.44.78,3.12,3.12,0,0,1,1.18,2.59v1.71l.07,0a1.55,1.55,0,0,1,.62,1.15V120a1.5,1.5,0,0,1-.75,1.33A3.22,3.22,0,0,1,175.64,121.73Z" transform="translate(-1.53 -2.14)"/><path class="cls-4" d="M173.71,114.47a2.36,2.36,0,0,1,1.52.47,1.67,1.67,0,0,1,.6,1.4v2.49c0,.33.13.49.4.49a1.26,1.26,0,0,0,.29,0V120a1.82,1.82,0,0,1-.89.23,1,1,0,0,1-1.13-1.09v0a2.7,2.7,0,0,1-.7.78,1.77,1.77,0,0,1-1.11.34,2.14,2.14,0,0,1-1.14-.35,1.31,1.31,0,0,1-.56-1.23,1.29,1.29,0,0,1,.81-1.34,4.63,4.63,0,0,1,1.76-.33h.48l.46,0v-.31a2.31,2.31,0,0,0-.17-.89q-.18-.39-.87-.39a2.45,2.45,0,0,0-.48,0,1.33,1.33,0,0,0-.44.14l-.22.85-1.06-.11.23-1.38a5.55,5.55,0,0,1,1.1-.4,4.63,4.63,0,0,1,1.11-.11m-.56,4.79a1.38,1.38,0,0,0,1.36-1.34v-.2l-.43,0a3.44,3.44,0,0,0-.46,0,2.07,2.07,0,0,0-.88.18.67.67,0,0,0-.39.69c0,.5.27.75.8.75m.56-7.79a8.28,8.28,0,0,0-1.79.18,8.47,8.47,0,0,0-1.72.63,3,3,0,0,0-1.66,2.2l-.23,1.38a3,3,0,0,0,0,1,4.74,4.74,0,0,0-.32,1.75,4.29,4.29,0,0,0,2,3.77,5,5,0,0,0,2.73.81,5.08,5.08,0,0,0,1.52-.23,4.4,4.4,0,0,0,1.42.23,4.71,4.71,0,0,0,2.38-.63,3,3,0,0,0,1.51-2.65l0-.73a3,3,0,0,0-.68-1.86v-1a4.66,4.66,0,0,0-1.75-3.77,5.43,5.43,0,0,0-3.37-1.1Z" transform="translate(-1.53 -2.14)"/><path class="cls-14" d="M145.34,194.57a5.37,5.37,0,0,1-5.5-5.53,6.44,6.44,0,0,1,.55-2.56,5.13,5.13,0,0,1,5-3.16,6.13,6.13,0,0,1,2.27.39,5.08,5.08,0,0,1,1.59.95,1.46,1.46,0,0,1,.48.93l.21,1.73a1.5,1.5,0,0,1-1.18,1.65,1.58,1.58,0,0,1,.83.51,1.52,1.52,0,0,1,.33,1.1l-.17,1.75a1.52,1.52,0,0,1-.47.95,4.46,4.46,0,0,1-1.82,1A7.15,7.15,0,0,1,145.34,194.57Zm0-7a.79.79,0,0,0-.68.27,1.76,1.76,0,0,0-.32,1.17,1.72,1.72,0,0,0,.29,1.11,1.11,1.11,0,0,0,.85.28h.28l.05-.27a1.5,1.5,0,0,1,.85-1.12,1.49,1.49,0,0,1-.83-1.08l-.05-.32A2.94,2.94,0,0,0,145.31,187.53Z" transform="translate(-1.53 -2.14)"/><path class="cls-4" d="M145.34,184.82a4.66,4.66,0,0,1,1.72.28,3.56,3.56,0,0,1,1.13.67l.21,1.73-1.12.12-.2-1.11a3.17,3.17,0,0,0-1.77-.48,2.32,2.32,0,0,0-1.82.78,3.23,3.23,0,0,0-.68,2.16,2.93,2.93,0,0,0,.73,2.16,2.55,2.55,0,0,0,1.91.73,3.34,3.34,0,0,0,1.61-.34l.2-1.19,1.12.11-.17,1.74a3,3,0,0,1-1.23.65,5.66,5.66,0,0,1-1.64.24,3.86,3.86,0,0,1-2.87-1.13,3.92,3.92,0,0,1-1.13-2.9,5,5,0,0,1,.42-2,3.86,3.86,0,0,1,1.31-1.61,3.76,3.76,0,0,1,2.27-.64m0-3a6.65,6.65,0,0,0-6.33,4.07,7.93,7.93,0,0,0-.67,3.15,6.85,6.85,0,0,0,7,7,8.52,8.52,0,0,0,2.51-.37,5.92,5.92,0,0,0,2.41-1.33,3,3,0,0,0,.93-1.89l.17-1.75A3,3,0,0,0,151,189a3,3,0,0,0,.37-1.84l-.21-1.74a2.91,2.91,0,0,0-1-1.86,6.69,6.69,0,0,0-2-1.24,7.85,7.85,0,0,0-2.83-.49Z" transform="translate(-1.53 -2.14)"/><path class="cls-14" d="M151.83,194.56a3.57,3.57,0,0,1-2.32-.82,3.26,3.26,0,0,1-1.12-2.66v-1.31a1.5,1.5,0,0,1-.82-1.34v-1a1.5,1.5,0,0,1,1.5-1.5h2.14a1.53,1.53,0,0,1,.73.19,1.46,1.46,0,0,1,.72-.19H155a1.5,1.5,0,0,1,1.5,1.5v3.16a1.5,1.5,0,0,1,.86,1.36v1a1.5,1.5,0,0,1-1.5,1.5h-2.18a1.51,1.51,0,0,1-.53-.1A3.88,3.88,0,0,1,151.83,194.56Z" transform="translate(-1.53 -2.14)"/><path class="cls-4" d="M155,187.42v4.52h.86v1h-2.18V192a1.9,1.9,0,0,1-1.82,1,2.08,2.08,0,0,1-1.36-.47,1.83,1.83,0,0,1-.58-1.51v-2.65h-.82v-1h2.14v3.18a1.7,1.7,0,0,0,.28,1.11,1,1,0,0,0,.8.33,1.24,1.24,0,0,0,1-.43,1.58,1.58,0,0,0,.38-1v-2.15h-1v-1H155m0-3h-2.31a2.84,2.84,0,0,0-.72.09,3,3,0,0,0-.73-.09h-2.14a3,3,0,0,0-3,3v1a3,3,0,0,0,.82,2.06v.59a4.73,4.73,0,0,0,1.66,3.82,5.07,5.07,0,0,0,3.28,1.16,5.66,5.66,0,0,0,1.31-.15,4.38,4.38,0,0,0,.51,0h2.18a3,3,0,0,0,3-3v-1a3,3,0,0,0-.86-2.11v-2.41a3,3,0,0,0-3-3Z" transform="translate(-1.53 -2.14)"/><path class="cls-14" d="M156.37,194.45a1.5,1.5,0,0,1-1.5-1.5v-1a1.5,1.5,0,0,1,.83-1.34v-.8a1.51,1.51,0,0,1-.87-1.36v-1a1.5,1.5,0,0,1,1.5-1.5h2.09a1.4,1.4,0,0,1,.41.06,2.77,2.77,0,0,1,.92-.15,3.41,3.41,0,0,1,1.84.55,1.48,1.48,0,0,1,.68,1.06l.23,1.72a1.5,1.5,0,0,1-.3,1.12,1.45,1.45,0,0,1-1,.57l-.49.06a1.47,1.47,0,0,1,.41,1v1a1.5,1.5,0,0,1-1.5,1.5Z" transform="translate(-1.53 -2.14)"/><path class="cls-4" d="M159.75,187.33a1.83,1.83,0,0,1,1,.31l.23,1.72-1,.13-.21-1a1,1,0,0,0-.42-.12.74.74,0,0,0-.59.28,1.14,1.14,0,0,0-.26.79v2.45h1.1v1h-3.24v-1h.83v-3.5h-.87v-1h2.09v1a1.82,1.82,0,0,1,.47-.79,1.15,1.15,0,0,1,.86-.33m0-3a4.53,4.53,0,0,0-1,.11l-.35,0h-2.09a3,3,0,0,0-3,3v1a3,3,0,0,0,.59,1.78,2.92,2.92,0,0,0-.55,1.72v1a3,3,0,0,0,3,3h3.24a3,3,0,0,0,3-3v-1a2.89,2.89,0,0,0,.78-.7A3,3,0,0,0,164,189l-.24-1.72a3,3,0,0,0-1.35-2.13,4.93,4.93,0,0,0-2.65-.78Z" transform="translate(-1.53 -2.14)"/><path class="cls-14" d="M164,194.57a7.23,7.23,0,0,1-1.52-.17,5.34,5.34,0,0,1-1.48-.56,1.5,1.5,0,0,1-.75-1.51l.19-1.43a1.46,1.46,0,0,1,.18-.52,3,3,0,0,1-.31-1.4,2.82,2.82,0,0,1,1.57-2.66,5,5,0,0,1,2.21-.51,5.74,5.74,0,0,1,2.72.68,1.51,1.51,0,0,1,.79,1.17l.13,1.37a1.48,1.48,0,0,1-.1.73,3,3,0,0,1,.38,1.54,3,3,0,0,1-1.4,2.58A4.72,4.72,0,0,1,164,194.57Z" transform="translate(-1.53 -2.14)"/><path class="cls-4" d="M164.11,187.31a4.34,4.34,0,0,1,2,.5l.13,1.37-1,.12-.11-.82a2.59,2.59,0,0,0-1-.19,1.17,1.17,0,0,0-.64.16.51.51,0,0,0-.27.48.48.48,0,0,0,.33.48,3.81,3.81,0,0,0,.83.22,8.17,8.17,0,0,1,1,.22,1.94,1.94,0,0,1,.83.47,1.32,1.32,0,0,1,.33,1,1.47,1.47,0,0,1-.71,1.32,3.29,3.29,0,0,1-1.8.45,5.42,5.42,0,0,1-1.19-.13,4,4,0,0,1-1.08-.41l.2-1.43,1,.1,0,.71a2.05,2.05,0,0,0,.5.14,4.64,4.64,0,0,0,.48,0,2,2,0,0,0,.88-.18.57.57,0,0,0,.37-.54.5.5,0,0,0-.34-.49,3.15,3.15,0,0,0-.84-.23,9.12,9.12,0,0,1-1-.22,1.83,1.83,0,0,1-.84-.47,1.28,1.28,0,0,1-.34-1,1.33,1.33,0,0,1,.73-1.32,3.59,3.59,0,0,1,1.55-.35m0-3a6.42,6.42,0,0,0-2.86.66,4.33,4.33,0,0,0-2.42,4,5,5,0,0,0,.2,1.42,2.93,2.93,0,0,0-.05.29l-.2,1.43a3,3,0,0,0,1.5,3,6.61,6.61,0,0,0,1.89.72,8.33,8.33,0,0,0,1.85.21,6.22,6.22,0,0,0,3.43-.93,4.49,4.49,0,0,0,2.08-3.84,4.7,4.7,0,0,0-.3-1.7,2.87,2.87,0,0,0,0-.72l-.14-1.36a3,3,0,0,0-1.57-2.36,7.35,7.35,0,0,0-3.43-.85Z" transform="translate(-1.53 -2.14)"/><path class="cls-14" d="M170,194.57a4.13,4.13,0,0,1-4.31-4.33,4.58,4.58,0,0,1,1.08-3,4.58,4.58,0,0,1,6.61,0,4.54,4.54,0,0,1,1.06,3,4.28,4.28,0,0,1-1.27,3.16A4.43,4.43,0,0,1,170,194.57Zm.07-4.59a1,1,0,0,0,0,.19.86.86,0,0,0,0,.16c0-.05,0-.11,0-.18S170.1,190,170.1,190Zm0-.19Z" transform="translate(-1.53 -2.14)"/><path class="cls-4" d="M170.1,187.29a2.64,2.64,0,0,1,2.16.87,3,3,0,0,1,.71,2,2.8,2.8,0,0,1-.81,2.09,2.94,2.94,0,0,1-2.13.79,2.75,2.75,0,0,1-2-.76,2.8,2.8,0,0,1-.77-2.07,3.11,3.11,0,0,1,.73-2.08,2.63,2.63,0,0,1,2.15-.87m0,4.75a1.34,1.34,0,0,0,1.12-.53,2.16,2.16,0,0,0,.41-1.36,1.9,1.9,0,0,0-.43-1.35,1.42,1.42,0,0,0-1.1-.47,1.34,1.34,0,0,0-1.1.5,2.1,2.1,0,0,0-.39,1.33,2.32,2.32,0,0,0,.37,1.34,1.29,1.29,0,0,0,1.12.54m0-7.75a5.55,5.55,0,0,0-4.45,2,6.16,6.16,0,0,0-1.43,4,5.63,5.63,0,0,0,5.81,5.83,5.91,5.91,0,0,0,4.21-1.64,5.72,5.72,0,0,0,1.73-4.24,6.11,6.11,0,0,0-1.4-3.95,5.54,5.54,0,0,0-4.47-2Z" transform="translate(-1.53 -2.14)"/><path class="cls-14" d="M176,194.57a7.08,7.08,0,0,1-1.52-.17,5.53,5.53,0,0,1-1.49-.56,1.54,1.54,0,0,1-.75-1.52l.2-1.42a1.67,1.67,0,0,1,.17-.52,3.15,3.15,0,0,1-.31-1.4,2.83,2.83,0,0,1,1.58-2.66,5,5,0,0,1,2.2-.51,5.78,5.78,0,0,1,2.73.68,1.51,1.51,0,0,1,.79,1.18l.13,1.36a1.39,1.39,0,0,1-.11.73,2.92,2.92,0,0,1,.39,1.54,3,3,0,0,1-1.4,2.58A4.72,4.72,0,0,1,176,194.57Z" transform="translate(-1.53 -2.14)"/><path class="cls-4" d="M176.05,187.31a4.29,4.29,0,0,1,2,.5l.14,1.37-1,.12-.11-.82a2.54,2.54,0,0,0-1-.19,1.23,1.23,0,0,0-.65.16.52.52,0,0,0-.26.48.48.48,0,0,0,.33.48,3.66,3.66,0,0,0,.83.22,9.13,9.13,0,0,1,1,.22,1.94,1.94,0,0,1,.83.47,1.32,1.32,0,0,1,.33,1,1.49,1.49,0,0,1-.71,1.32,3.29,3.29,0,0,1-1.8.45,5.36,5.36,0,0,1-1.19-.13,4,4,0,0,1-1.08-.41l.2-1.43,1,.1v.71a2.05,2.05,0,0,0,.5.14,4.47,4.47,0,0,0,.47,0,2,2,0,0,0,.88-.18.58.58,0,0,0,.38-.54.5.5,0,0,0-.34-.49,3.27,3.27,0,0,0-.84-.23,8.65,8.65,0,0,1-1-.22,1.91,1.91,0,0,1-.85-.47,1.32,1.32,0,0,1-.34-1,1.34,1.34,0,0,1,.74-1.32,3.58,3.58,0,0,1,1.54-.35m0-3a6.45,6.45,0,0,0-2.86.66,4.35,4.35,0,0,0-2.42,4,4.67,4.67,0,0,0,.21,1.42,2.93,2.93,0,0,0,0,.29l-.2,1.43a3,3,0,0,0,1.5,3,6.55,6.55,0,0,0,1.88.72,8.42,8.42,0,0,0,1.86.21,6.19,6.19,0,0,0,3.42-.93,4.47,4.47,0,0,0,2.09-3.84,4.7,4.7,0,0,0-.3-1.7,2.88,2.88,0,0,0,0-.72l-.13-1.36a3,3,0,0,0-1.58-2.36,7.32,7.32,0,0,0-3.43-.85Z" transform="translate(-1.53 -2.14)"/><path class="cls-14" d="M102.16,171.4a1.5,1.5,0,0,1-1.5-1.5v-1.17a1.5,1.5,0,0,1,1.29-1.49v-1.17a1.66,1.66,0,0,1-.32,0h-.13l-1.17-.1A1.53,1.53,0,0,1,99,164.36l.25-2.61a1.5,1.5,0,0,1,1.49-1.36h6.86a1.51,1.51,0,0,1,1.5,1.36l.24,2.61a1.46,1.46,0,0,1-.34,1.1,1.54,1.54,0,0,1-1,.54l-1.19.1h-.12a1.55,1.55,0,0,1-.31,0v1.17a1.49,1.49,0,0,1,1.34,1.49v1.17a1.5,1.5,0,0,1-1.5,1.5Z" transform="translate(-1.53 -2.14)"/><path class="cls-4" d="M107.56,161.89l.25,2.61-1.18.1-.25-1.54h-1.56v5.67h1.34v1.17h-4v-1.17h1.29v-5.67h-1.58l-.24,1.54-1.17-.1.24-2.61h6.86m0-3H100.7a3,3,0,0,0-3,2.72l-.25,2.61a3,3,0,0,0,.68,2.21,3.06,3.06,0,0,0,1.34.91,3.09,3.09,0,0,0-.33,1.39v1.17a3,3,0,0,0,3,3h4a3,3,0,0,0,3-3v-1.17a3,3,0,0,0-.35-1.4,3.09,3.09,0,0,0,1.3-.9,3.06,3.06,0,0,0,.69-2.21l-.25-2.61a3,3,0,0,0-3-2.72Z" transform="translate(-1.53 -2.14)"/><path class="cls-14" d="M110.54,171.52a4.3,4.3,0,0,1-3-1.1,4.13,4.13,0,0,1-1.26-3.2,4.65,4.65,0,0,1,1-3.07,4,4,0,0,1,7.13,2.5,6.07,6.07,0,0,1-.08.94,1.55,1.55,0,0,1,.12.77,3.36,3.36,0,0,1-1.24,2.26A4.07,4.07,0,0,1,110.54,171.52Z" transform="translate(-1.53 -2.14)"/><path class="cls-4" d="M110.47,164.26a2.33,2.33,0,0,1,2.5,2.41,3.93,3.93,0,0,1-.07.74h-3.74c.08,1,.57,1.55,1.48,1.55a1.16,1.16,0,0,0,.92-.31,1.37,1.37,0,0,0,.36-.65l1.1.21a1.92,1.92,0,0,1-.71,1.27,2.67,2.67,0,0,1-1.77.54,2.84,2.84,0,0,1-2-.71,2.67,2.67,0,0,1-.77-2.09,3.18,3.18,0,0,1,.7-2.11,2.43,2.43,0,0,1,2-.85m-1.29,2.34h2.44a1.47,1.47,0,0,0-.23-.93,1,1,0,0,0-.93-.44,1.06,1.06,0,0,0-.9.39,2,2,0,0,0-.38,1m1.29-5.34a5.36,5.36,0,0,0-4.28,1.93,6.17,6.17,0,0,0-1.4,4,5.6,5.6,0,0,0,1.75,4.31,5.84,5.84,0,0,0,4,1.49,5.54,5.54,0,0,0,3.7-1.25,4.8,4.8,0,0,0,1.76-3.26,2.9,2.9,0,0,0-.08-1.06,7,7,0,0,0,0-.78,5.33,5.33,0,0,0-5.5-5.41Z" transform="translate(-1.53 -2.14)"/><path class="cls-14" d="M113.7,171.4a1.5,1.5,0,0,1-1.5-1.5v-1a1.48,1.48,0,0,1,.82-1.34v-.8a1.5,1.5,0,0,1-.86-1.36v-1a1.5,1.5,0,0,1,1.5-1.5h2.08a1.42,1.42,0,0,1,.42.06,2.71,2.71,0,0,1,.91-.15,3.34,3.34,0,0,1,1.85.55,1.47,1.47,0,0,1,.67,1.06l.24,1.72a1.55,1.55,0,0,1-.3,1.12,1.51,1.51,0,0,1-1,.57l-.49.06a1.51,1.51,0,0,1,.41,1v1a1.5,1.5,0,0,1-1.5,1.5Z" transform="translate(-1.53 -2.14)"/><path class="cls-4" d="M117.07,164.28a1.86,1.86,0,0,1,1,.31l.23,1.72-1,.13-.21-.95a1,1,0,0,0-.42-.13.79.79,0,0,0-.6.29,1.14,1.14,0,0,0-.25.79v2.45h1.1v1H113.7v-1h.82v-3.5h-.86v-1h2.08v1a1.87,1.87,0,0,1,.48-.79,1.13,1.13,0,0,1,.85-.33m0-3a4.44,4.44,0,0,0-1,.11,2.17,2.17,0,0,0-.36,0h-2.08a3,3,0,0,0-3,3v1a3,3,0,0,0,.58,1.77,3,3,0,0,0-.54,1.73v1a3,3,0,0,0,3,3h3.24a3,3,0,0,0,3-3v-1.05a2.85,2.85,0,0,0,.77-.7,3,3,0,0,0,.6-2.24l-.23-1.72a3,3,0,0,0-1.36-2.13,4.88,4.88,0,0,0-2.65-.78Z" transform="translate(-1.53 -2.14)"/><path class="cls-14" d="M123.71,171.52a2.71,2.71,0,0,1-1.39-.35,3.43,3.43,0,0,1-1.55.35,3.59,3.59,0,0,1-1.94-.58,2.79,2.79,0,0,1-1.26-2.5,3.09,3.09,0,0,1,.42-1.63,1.5,1.5,0,0,1-.13-.91l.23-1.38a1.51,1.51,0,0,1,.83-1.1,7.17,7.17,0,0,1,1.41-.51,6.46,6.46,0,0,1,1.45-.15,3.85,3.85,0,0,1,2.44.78,3.12,3.12,0,0,1,1.18,2.59v1.71l.06,0a1.53,1.53,0,0,1,.63,1.14v.73a1.51,1.51,0,0,1-.75,1.33A3.32,3.32,0,0,1,123.71,171.52Z" transform="translate(-1.53 -2.14)"/><path class="cls-4" d="M121.78,164.26a2.41,2.41,0,0,1,1.52.46,1.69,1.69,0,0,1,.6,1.41v2.49c0,.32.13.49.4.49a1.26,1.26,0,0,0,.29-.05v.73a1.82,1.82,0,0,1-.89.23,1,1,0,0,1-1.13-1.1v0a2.7,2.7,0,0,1-.7.78,1.77,1.77,0,0,1-1.11.34,2.14,2.14,0,0,1-1.14-.35,1.31,1.31,0,0,1-.56-1.23,1.29,1.29,0,0,1,.81-1.34,4.63,4.63,0,0,1,1.76-.33h.48l.46,0v-.31a2.31,2.31,0,0,0-.17-.89q-.18-.39-.87-.39a2.45,2.45,0,0,0-.48,0,1.33,1.33,0,0,0-.44.14l-.22.85-1.06-.11.23-1.38a5.55,5.55,0,0,1,1.1-.4,4.63,4.63,0,0,1,1.11-.11m-.56,4.79a1.44,1.44,0,0,0,.89-.34,1.39,1.39,0,0,0,.47-1v-.19l-.43,0a3.44,3.44,0,0,0-.46,0,2.07,2.07,0,0,0-.88.18.67.67,0,0,0-.39.69c0,.5.27.75.8.75m.56-7.79a8.28,8.28,0,0,0-1.79.18,8.47,8.47,0,0,0-1.72.63,3,3,0,0,0-1.66,2.2l-.23,1.38a2.8,2.8,0,0,0,0,1,4.74,4.74,0,0,0-.32,1.75,4.31,4.31,0,0,0,2,3.77,5,5,0,0,0,2.73.81,5.08,5.08,0,0,0,1.52-.23,4.4,4.4,0,0,0,1.42.23,4.71,4.71,0,0,0,2.38-.63,3,3,0,0,0,1.51-2.65V169a3,3,0,0,0-.69-1.86v-1a4.66,4.66,0,0,0-1.75-3.77,5.43,5.43,0,0,0-3.37-1.1Z" transform="translate(-1.53 -2.14)"/><path class="cls-14" d="M125,174a1.5,1.5,0,0,1-1.5-1.5v-1a1.48,1.48,0,0,1,.82-1.34v-3.41a1.5,1.5,0,0,1-.86-1.36v-1a1.5,1.5,0,0,1,1.5-1.5h2.18a1.56,1.56,0,0,1,.57.11,3.75,3.75,0,0,1,1.33-.22,3.71,3.71,0,0,1,2.82,1.2,4.35,4.35,0,0,1,1,3,5.16,5.16,0,0,1-.87,2.94,3.49,3.49,0,0,1-2.3,1.51v1.08a1.5,1.5,0,0,1-1.5,1.5Z" transform="translate(-1.53 -2.14)"/><path class="cls-4" d="M129,164.26a2.23,2.23,0,0,1,1.72.72,2.91,2.91,0,0,1,.65,2,3.66,3.66,0,0,1-.62,2.11,2.15,2.15,0,0,1-1.91.92,1.91,1.91,0,0,1-1.74-.86v2.33h1.1v1H125v-1h.82v-6.11h-.86v-1h2.18v1.09a2.42,2.42,0,0,1,.68-.85,2,2,0,0,1,1.22-.35m-.47,4.7a1.3,1.3,0,0,0,1.09-.49,2.11,2.11,0,0,0,.39-1.34,2,2,0,0,0-.41-1.35,1.31,1.31,0,0,0-1-.46,1.22,1.22,0,0,0-1.05.5,2,2,0,0,0-.41,1.18v.43a1.53,1.53,0,0,0,.4,1.11,1.36,1.36,0,0,0,1,.42m.47-7.7a5.49,5.49,0,0,0-1.35.16,2.5,2.5,0,0,0-.55,0h-2.18a3,3,0,0,0-3,3v1a3,3,0,0,0,.86,2.1v1.94a3,3,0,0,0-.82,2.07v1a3,3,0,0,0,3,3h3.24a3,3,0,0,0,3-3,4.94,4.94,0,0,0,2-1.76,6.67,6.67,0,0,0,1.13-3.78,5.81,5.81,0,0,0-1.44-4,5.19,5.19,0,0,0-3.93-1.69Z" transform="translate(-1.53 -2.14)"/><path class="cls-14" d="M132.14,171.4a1.5,1.5,0,0,1-1.5-1.5v-1a1.48,1.48,0,0,1,.82-1.34v-.8a1.47,1.47,0,0,1-.87-1.36v-1a1.49,1.49,0,0,1,.8-1.33v-1.27a1.5,1.5,0,0,1,1.5-1.5h1.34a1.5,1.5,0,0,1,1.5,1.5v1.45a1.32,1.32,0,0,1-.1.53,1.44,1.44,0,0,1,.14.62v3.18a1.48,1.48,0,0,1,.82,1.34v1a1.5,1.5,0,0,1-1.5,1.5Z" transform="translate(-1.53 -2.14)"/><path class="cls-4" d="M134.23,161.77v1.45h-1.34v-1.45h1.34m0,2.6v4.52h.82v1h-3v-1H133v-3.5h-.87v-1h2.18m0-5.6h-1.34a3,3,0,0,0-3,3v.56a3,3,0,0,0-.8,2v1a3,3,0,0,0,.58,1.78,3,3,0,0,0-.53,1.72v1a3,3,0,0,0,3,3h3a3,3,0,0,0,3-3v-1a3,3,0,0,0-.82-2.07v-2.45a2.93,2.93,0,0,0-.08-.67,2.59,2.59,0,0,0,0-.48v-1.45a3,3,0,0,0-3-3Z" transform="translate(-1.53 -2.14)"/><path class="cls-14" d="M140.36,171.52a2.71,2.71,0,0,1-1.39-.35,3.43,3.43,0,0,1-1.55.35,3.54,3.54,0,0,1-1.93-.58,2.76,2.76,0,0,1-1.27-2.5,3.19,3.19,0,0,1,.42-1.63,1.58,1.58,0,0,1-.13-.91l.24-1.38a1.49,1.49,0,0,1,.83-1.1,6,6,0,0,1,2.85-.66,3.88,3.88,0,0,1,2.45.78,3.15,3.15,0,0,1,1.17,2.59v1.71l.07,0a1.55,1.55,0,0,1,.62,1.14v.73a1.51,1.51,0,0,1-.75,1.33A3.32,3.32,0,0,1,140.36,171.52Z" transform="translate(-1.53 -2.14)"/><path class="cls-4" d="M138.43,164.26a2.39,2.39,0,0,1,1.52.46,1.69,1.69,0,0,1,.6,1.41v2.49c0,.32.13.49.4.49a1.26,1.26,0,0,0,.29-.05v.73a1.82,1.82,0,0,1-.89.23,1,1,0,0,1-1.13-1.1v0a2.56,2.56,0,0,1-.7.78,1.77,1.77,0,0,1-1.11.34,2.14,2.14,0,0,1-1.14-.35,1.33,1.33,0,0,1-.56-1.23,1.29,1.29,0,0,1,.81-1.34,4.63,4.63,0,0,1,1.76-.33h.48l.46,0v-.31a2.31,2.31,0,0,0-.17-.89c-.12-.26-.4-.39-.86-.39a2.49,2.49,0,0,0-.49,0,1.41,1.41,0,0,0-.44.14l-.22.85-1.06-.11.23-1.38a5.78,5.78,0,0,1,1.1-.4,4.63,4.63,0,0,1,1.11-.11m-.55,4.79a1.41,1.41,0,0,0,.88-.34,1.35,1.35,0,0,0,.47-1v-.19l-.43,0a3.44,3.44,0,0,0-.46,0,2.07,2.07,0,0,0-.88.18.67.67,0,0,0-.39.69q0,.75.81.75m.55-7.79a8.26,8.26,0,0,0-1.78.18,8.06,8.06,0,0,0-1.72.63,3,3,0,0,0-1.66,2.2l-.24,1.38a3,3,0,0,0,0,1,4.74,4.74,0,0,0-.32,1.75,4.31,4.31,0,0,0,2,3.77,5,5,0,0,0,2.73.81,5.08,5.08,0,0,0,1.52-.23,4.4,4.4,0,0,0,1.42.23,4.74,4.74,0,0,0,2.39-.63,3,3,0,0,0,1.5-2.65V169a3,3,0,0,0-.69-1.86v-1a4.66,4.66,0,0,0-1.75-3.77,5.41,5.41,0,0,0-3.37-1.1Z" transform="translate(-1.53 -2.14)"/><path class="cls-14" d="M144.12,171.52a7.08,7.08,0,0,1-1.52-.17,5.34,5.34,0,0,1-1.48-.56,1.5,1.5,0,0,1-.75-1.52l.19-1.43a1.48,1.48,0,0,1,.18-.51,3,3,0,0,1-.31-1.4,2.83,2.83,0,0,1,1.57-2.67,5.1,5.1,0,0,1,2.21-.5,5.66,5.66,0,0,1,2.72.68,1.49,1.49,0,0,1,.79,1.17l.13,1.37a1.49,1.49,0,0,1-.1.73,3,3,0,0,1,.38,1.54,3,3,0,0,1-1.39,2.58A4.78,4.78,0,0,1,144.12,171.52Z" transform="translate(-1.53 -2.14)"/><path class="cls-4" d="M144.21,164.26a4.23,4.23,0,0,1,2,.5l.13,1.37-1,.12-.11-.82a2.59,2.59,0,0,0-1-.19,1.17,1.17,0,0,0-.64.16.51.51,0,0,0-.27.48.48.48,0,0,0,.33.48,4.48,4.48,0,0,0,.83.22,8.17,8.17,0,0,1,1,.22,1.84,1.84,0,0,1,.83.47,1.32,1.32,0,0,1,.33,1,1.45,1.45,0,0,1-.71,1.31,3.21,3.21,0,0,1-1.8.46,5.42,5.42,0,0,1-1.19-.13,4.33,4.33,0,0,1-1.08-.41l.2-1.43,1,.1,0,.71a2.19,2.19,0,0,0,.5.14,4.64,4.64,0,0,0,.48,0,2,2,0,0,0,.88-.18.57.57,0,0,0,.37-.54.5.5,0,0,0-.34-.49,3.15,3.15,0,0,0-.84-.23,9.12,9.12,0,0,1-1-.22,1.92,1.92,0,0,1-.84-.47,1.28,1.28,0,0,1-.34-1,1.33,1.33,0,0,1,.73-1.32,3.59,3.59,0,0,1,1.55-.35m0-3a6.42,6.42,0,0,0-2.86.66,4.32,4.32,0,0,0-2.42,4,5,5,0,0,0,.2,1.42,2.93,2.93,0,0,0,0,.29l-.2,1.43a3,3,0,0,0,1.5,3,6.92,6.92,0,0,0,1.89.72,8.33,8.33,0,0,0,1.85.21,6.22,6.22,0,0,0,3.43-.93,4.49,4.49,0,0,0,2.08-3.84,4.7,4.7,0,0,0-.3-1.7,2.87,2.87,0,0,0,0-.72l-.14-1.36a3,3,0,0,0-1.57-2.36,7.23,7.23,0,0,0-3.43-.85Z" transform="translate(-1.53 -2.14)"/><path class="cls-14" d="M178.08,171.53a1.54,1.54,0,0,1-1-.35,1.5,1.5,0,0,1-1,.35h-3.2a1.5,1.5,0,0,1-1.5-1.5v-1.17a1.49,1.49,0,0,1,.92-1.38v-2.9a1.49,1.49,0,0,1-.92-1.38V162a1.5,1.5,0,0,1,1.5-1.5h3.2a1.45,1.45,0,0,1,1,.36,1.5,1.5,0,0,1,1-.36h3.2a1.5,1.5,0,0,1,1.5,1.5v1.17a1.51,1.51,0,0,1-.91,1.38v2.9a1.51,1.51,0,0,1,.91,1.38V170a1.5,1.5,0,0,1-1.5,1.5Z" transform="translate(-1.53 -2.14)"/><path class="cls-4" d="M181.28,162v1.17h-.91v5.66h.91V170h-3.2v-1.17H179v-2.31h-3.78v2.31h.91V170h-3.2v-1.17h.92V163.2h-.92V162h3.2v1.17h-.91v2.19H179V163.2h-.92V162h3.2m0-3h-3.2a2.92,2.92,0,0,0-1,.16,2.82,2.82,0,0,0-1-.16h-3.2a3,3,0,0,0-3,3v1.17a3,3,0,0,0,.92,2.16v1.34a3,3,0,0,0-.92,2.16V170a3,3,0,0,0,3,3h3.2a2.82,2.82,0,0,0,1-.16,2.92,2.92,0,0,0,1,.16h3.2a3,3,0,0,0,3-3v-1.17a3,3,0,0,0-.91-2.15v-1.36a3,3,0,0,0,.91-2.15V162a3,3,0,0,0-3-3Z" transform="translate(-1.53 -2.14)"/><path class="cls-14" d="M184.67,171.66a4.13,4.13,0,0,1-4.31-4.34,4.56,4.56,0,0,1,1.08-3,4.58,4.58,0,0,1,6.61,0,4.57,4.57,0,0,1,1.06,3,4.27,4.27,0,0,1-1.28,3.16A4.35,4.35,0,0,1,184.67,171.66Zm.06-4.59c0,.05,0,.11,0,.18s0,.11,0,.16a.91.91,0,0,0,0-.17A.81.81,0,0,0,184.73,167.07Zm0-.2Z" transform="translate(-1.53 -2.14)"/><path class="cls-4" d="M184.74,164.38a2.67,2.67,0,0,1,2.16.86,3.12,3.12,0,0,1,.71,2,2.76,2.76,0,0,1-.82,2.09,2.92,2.92,0,0,1-2.12.8,2.65,2.65,0,0,1-2.81-2.84,3.14,3.14,0,0,1,.72-2.07,2.67,2.67,0,0,1,2.16-.87m0,4.74a1.34,1.34,0,0,0,1.12-.52,2.16,2.16,0,0,0,.4-1.36,2,2,0,0,0-.42-1.36,1.43,1.43,0,0,0-1.1-.46,1.32,1.32,0,0,0-1.1.49,2.13,2.13,0,0,0-.39,1.34,2.27,2.27,0,0,0,.37,1.33,1.27,1.27,0,0,0,1.12.54m0-7.74a5.6,5.6,0,0,0-4.46,1.94,6.17,6.17,0,0,0-1.42,4,5.64,5.64,0,0,0,5.81,5.84,5.93,5.93,0,0,0,4.21-1.64,5.78,5.78,0,0,0,1.73-4.25,6.14,6.14,0,0,0-1.4-3.94,5.54,5.54,0,0,0-4.47-2Z" transform="translate(-1.53 -2.14)"/><path class="cls-14" d="M188.16,171.53a1.5,1.5,0,0,1-1.5-1.5v-1a1.51,1.51,0,0,1,.83-1.34v-3.75a1.48,1.48,0,0,1-.87-1.36v-1a1.5,1.5,0,0,1,1.5-1.5h2.17a1.5,1.5,0,0,1,1.5,1.5v6.12a1.51,1.51,0,0,1,.83,1.34v1a1.5,1.5,0,0,1-1.5,1.5Z" transform="translate(-1.53 -2.14)"/><path class="cls-4" d="M190.3,161.56V169h.82v1h-3v-1H189v-6.45h-.88v-1h2.19m0-3h-2.19a3,3,0,0,0-3,3v1a3,3,0,0,0,.88,2.12V167a3,3,0,0,0-.83,2.06v1a3,3,0,0,0,3,3h3a3,3,0,0,0,3-3v-1a3,3,0,0,0-.82-2.06v-5.4a3,3,0,0,0-3-3Z" transform="translate(-1.53 -2.14)"/><path class="cls-14" d="M191.76,171.53a1.5,1.5,0,0,1-1.5-1.5v-1a1.51,1.51,0,0,1,.83-1.34v-.79a1.5,1.5,0,0,1-.88-1.36v-1a1.5,1.5,0,0,1,.8-1.32v-1.27a1.5,1.5,0,0,1,1.5-1.5h1.34a1.5,1.5,0,0,1,1.5,1.5v1.45a1.6,1.6,0,0,1-.09.53,1.51,1.51,0,0,1,.13.61v3.18a1.51,1.51,0,0,1,.83,1.34v1a1.5,1.5,0,0,1-1.5,1.5Z" transform="translate(-1.53 -2.14)"/><path class="cls-4" d="M193.85,161.9v1.46h-1.34V161.9h1.34m0,2.6V169h.83v1h-3v-1h.83v-3.49h-.88v-1h2.18m0-5.6h-1.34a3,3,0,0,0-3,3v.56a3,3,0,0,0-.8,2v1a3,3,0,0,0,.59,1.78,3,3,0,0,0-.54,1.71v1a3,3,0,0,0,3,3h3a3,3,0,0,0,3-3v-1a3,3,0,0,0-.83-2.06V164.5a2.84,2.84,0,0,0-.07-.66,3.87,3.87,0,0,0,0-.48V161.9a3,3,0,0,0-3-3Z" transform="translate(-1.53 -2.14)"/><path class="cls-14" d="M197.62,171.66a6.64,6.64,0,0,1-1.52-.18,5.6,5.6,0,0,1-1.48-.56,1.5,1.5,0,0,1-.75-1.51l.2-1.43a1.33,1.33,0,0,1,.17-.52,3,3,0,0,1-.31-1.39,2.83,2.83,0,0,1,1.58-2.67,4.93,4.93,0,0,1,2.2-.51,5.71,5.71,0,0,1,2.72.68,1.5,1.5,0,0,1,.79,1.18l.14,1.37a1.58,1.58,0,0,1-.11.72,3.13,3.13,0,0,1-1,4.12A4.79,4.79,0,0,1,197.62,171.66Z" transform="translate(-1.53 -2.14)"/><path class="cls-4" d="M197.71,164.39a4.21,4.21,0,0,1,2,.51l.13,1.36-1,.13-.11-.83a2.77,2.77,0,0,0-1-.18,1.3,1.3,0,0,0-.65.15.52.52,0,0,0-.26.49.48.48,0,0,0,.33.48,3.6,3.6,0,0,0,.82.21,8.84,8.84,0,0,1,1,.23,1.89,1.89,0,0,1,.82.46,1.3,1.3,0,0,1,.34,1,1.47,1.47,0,0,1-.71,1.32,3.24,3.24,0,0,1-1.81.46,5.44,5.44,0,0,1-1.19-.14,4,4,0,0,1-1.07-.4l.19-1.43,1,.1V169a1.6,1.6,0,0,0,.5.13,2.71,2.71,0,0,0,.47,0,2,2,0,0,0,.88-.18.57.57,0,0,0,.38-.53.53.53,0,0,0-.34-.5,3.86,3.86,0,0,0-.85-.22c-.33-.06-.67-.13-1-.22a2.16,2.16,0,0,1-.84-.47,1.3,1.3,0,0,1-.34-1,1.35,1.35,0,0,1,.73-1.32,3.49,3.49,0,0,1,1.55-.36m0-3a6.45,6.45,0,0,0-2.86.66,4.34,4.34,0,0,0-2.42,4,4.67,4.67,0,0,0,.21,1.42,2.47,2.47,0,0,0-.06.29l-.19,1.43a3,3,0,0,0,1.49,3,7.26,7.26,0,0,0,1.89.72,8.4,8.4,0,0,0,1.85.21,6.2,6.2,0,0,0,3.43-.94,4.47,4.47,0,0,0,2.09-3.84,4.64,4.64,0,0,0-.3-1.69,3.47,3.47,0,0,0,0-.72l-.14-1.37a3,3,0,0,0-1.57-2.35,7.21,7.21,0,0,0-3.43-.86Z" transform="translate(-1.53 -2.14)"/><path class="cls-14" d="M203.38,171.66a3.51,3.51,0,0,1-2.41-.85,3.13,3.13,0,0,1-1-2.43v-1.57a1.5,1.5,0,0,1-.81-1.33v-1a1.5,1.5,0,0,1,.81-1.33v-.38a1.5,1.5,0,0,1,1.5-1.5h1.32a1.5,1.5,0,0,1,1.5,1.5V163h.56a1.51,1.51,0,0,1,1.5,1.5v1a1.5,1.5,0,0,1-.92,1.38l.37.12a1.51,1.51,0,0,1,1,1.63A3.27,3.27,0,0,1,203.38,171.66Z" transform="translate(-1.53 -2.14)"/><path class="cls-4" d="M202.76,162.79v1.71h2.06v1h-2.06v2.69c0,.59.25.88.76.88a.88.88,0,0,0,.47-.16c.17-.1.29-.36.36-.79l1,.31a1.78,1.78,0,0,1-1.94,1.75,2.06,2.06,0,0,1-1.42-.47,1.69,1.69,0,0,1-.52-1.31v-2.9h-.81v-1h.81v-1.71h1.32m0-3h-1.32a3,3,0,0,0-3,2.64,3,3,0,0,0-.83,2.07v1a3,3,0,0,0,.81,2.05v.85a4.66,4.66,0,0,0,1.53,3.55,5,5,0,0,0,3.41,1.23,4.77,4.77,0,0,0,4.91-4.35,3,3,0,0,0-.65-2.31,3.12,3.12,0,0,0,.18-1v-1a3,3,0,0,0-2.31-2.92,3,3,0,0,0-2.75-1.79Z" transform="translate(-1.53 -2.14)"/><path class="cls-14" d="M205.69,171.53a1.5,1.5,0,0,1-1.5-1.5v-1a1.51,1.51,0,0,1,.83-1.34v-.79a1.5,1.5,0,0,1-.88-1.36v-1a1.5,1.5,0,0,1,.8-1.32v-1.27a1.5,1.5,0,0,1,1.5-1.5h1.34a1.5,1.5,0,0,1,1.5,1.5v1.45a1.6,1.6,0,0,1-.09.53,1.51,1.51,0,0,1,.13.61v3.18a1.51,1.51,0,0,1,.83,1.34v1a1.5,1.5,0,0,1-1.5,1.5Z" transform="translate(-1.53 -2.14)"/><path class="cls-4" d="M207.78,161.9v1.46h-1.34V161.9h1.34m0,2.6V169h.83v1h-3v-1h.83v-3.49h-.88v-1h2.18m0-5.6h-1.34a3,3,0,0,0-3,3v.56a3,3,0,0,0-.8,2v1a3,3,0,0,0,.59,1.78,3,3,0,0,0-.54,1.71v1a3,3,0,0,0,3,3h3a3,3,0,0,0,3-3v-1a3,3,0,0,0-.83-2.06V164.5a2.84,2.84,0,0,0-.07-.66,3.87,3.87,0,0,0,0-.48V161.9a3,3,0,0,0-3-3Z" transform="translate(-1.53 -2.14)"/><path class="cls-14" d="M211.89,171.66a4,4,0,0,1-4.18-4.3,4.49,4.49,0,0,1,1.18-3.19,4.21,4.21,0,0,1,3.11-1.28,5.53,5.53,0,0,1,1.34.17,5.3,5.3,0,0,1,1.38.57,1.49,1.49,0,0,1,.72,1.08l.22,1.55a2.35,2.35,0,0,0,.19,2,4.13,4.13,0,0,1-1,2.21A3.63,3.63,0,0,1,211.89,171.66Z" transform="translate(-1.53 -2.14)"/><path class="cls-4" d="M212,164.39a3.67,3.67,0,0,1,1,.13,3.55,3.55,0,0,1,1,.4l.22,1.55-1.06.12-.19-.92a2.25,2.25,0,0,0-1-.22c-.92,0-1.38.62-1.38,1.85s.48,1.8,1.42,1.8c.69,0,1.1-.42,1.24-1.26l1.11.21a2.7,2.7,0,0,1-.65,1.42,2.23,2.23,0,0,1-1.82.69,2.67,2.67,0,0,1-1.93-.72,2.73,2.73,0,0,1-.75-2.08,3,3,0,0,1,.77-2.15,2.65,2.65,0,0,1,2-.82m0-3a5.66,5.66,0,0,0-4.2,1.75,6,6,0,0,0-1.59,4.22,5.51,5.51,0,0,0,5.68,5.8,5.1,5.1,0,0,0,4.13-1.77,5.64,5.64,0,0,0,1.32-3,3,3,0,0,0-.2-1.48,2.82,2.82,0,0,0,0-.87l-.22-1.55a3,3,0,0,0-1.45-2.16,6.44,6.44,0,0,0-1.77-.73,6.69,6.69,0,0,0-1.71-.22Z" transform="translate(-1.53 -2.14)"/><path class="cls-14" d="M219.67,171.66a2.71,2.71,0,0,1-1.39-.36,3.31,3.31,0,0,1-1.55.36,3.68,3.68,0,0,1-1.94-.58,2.8,2.8,0,0,1-1.26-2.5A3.09,3.09,0,0,1,214,167a1.5,1.5,0,0,1-.13-.91l.23-1.38a1.49,1.49,0,0,1,.83-1.1,6.86,6.86,0,0,1,1.41-.52,6.46,6.46,0,0,1,1.45-.15,3.86,3.86,0,0,1,2.44.79,3.12,3.12,0,0,1,1.18,2.58V168l.07.05a1.49,1.49,0,0,1,.61,1.15l0,.73a1.5,1.5,0,0,1-.75,1.32A3.28,3.28,0,0,1,219.67,171.66Z" transform="translate(-1.53 -2.14)"/><path class="cls-4" d="M217.74,164.39a2.42,2.42,0,0,1,1.52.47,1.67,1.67,0,0,1,.6,1.4v2.49c0,.33.13.5.4.5a1.26,1.26,0,0,0,.29-.05v.72a1.72,1.72,0,0,1-.89.24,1,1,0,0,1-1.13-1.1v0a2.8,2.8,0,0,1-.7.77,1.77,1.77,0,0,1-1.11.35,2.14,2.14,0,0,1-1.14-.35,1.33,1.33,0,0,1-.56-1.23,1.31,1.31,0,0,1,.81-1.35,4.63,4.63,0,0,1,1.76-.32h.48l.46,0v-.3a2.11,2.11,0,0,0-.18-.89c-.11-.26-.4-.39-.86-.39a3.64,3.64,0,0,0-.48,0,1.63,1.63,0,0,0-.44.15l-.22.85-1.06-.11.23-1.38a5.65,5.65,0,0,1,1.1-.41,5.21,5.21,0,0,1,1.11-.11m-.56,4.79a1.42,1.42,0,0,0,.89-.33,1.39,1.39,0,0,0,.47-1v-.2l-.43,0a3.44,3.44,0,0,0-.46,0,2.23,2.23,0,0,0-.88.17.69.69,0,0,0-.39.69c0,.5.27.75.8.75m.56-7.79a8.26,8.26,0,0,0-1.79.19,8.47,8.47,0,0,0-1.72.63,3,3,0,0,0-1.66,2.2l-.23,1.38a2.75,2.75,0,0,0,0,1,4.83,4.83,0,0,0-.32,1.76,4.3,4.3,0,0,0,2,3.77,5.05,5.05,0,0,0,4.25.58,4.4,4.4,0,0,0,1.42.23,4.72,4.72,0,0,0,2.38-.64,3,3,0,0,0,1.51-2.65l0-.72a3,3,0,0,0-.68-1.87v-1a4.67,4.67,0,0,0-1.75-3.76,5.44,5.44,0,0,0-3.37-1.11Z" transform="translate(-1.53 -2.14)"/><path class="cls-14" d="M223.43,171.66a6.51,6.51,0,0,1-1.52-.18,5.53,5.53,0,0,1-1.49-.56,1.51,1.51,0,0,1-.75-1.51l.2-1.43a1.77,1.77,0,0,1,.17-.52,3.14,3.14,0,0,1-.31-1.39,2.84,2.84,0,0,1,1.58-2.67,4.93,4.93,0,0,1,2.2-.51,5.78,5.78,0,0,1,2.73.68,1.52,1.52,0,0,1,.79,1.18l.13,1.37a1.35,1.35,0,0,1-.11.72,3.13,3.13,0,0,1-1,4.12A4.73,4.73,0,0,1,223.43,171.66Z" transform="translate(-1.53 -2.14)"/><path class="cls-4" d="M223.51,164.39a4.18,4.18,0,0,1,2,.51l.14,1.36-1,.13-.11-.83a2.73,2.73,0,0,0-1-.18,1.33,1.33,0,0,0-.65.15.54.54,0,0,0-.26.49.48.48,0,0,0,.33.48,3.7,3.7,0,0,0,.83.21,9.22,9.22,0,0,1,1,.23,1.92,1.92,0,0,1,.83.46,1.33,1.33,0,0,1,.33,1,1.47,1.47,0,0,1-.71,1.32,3.21,3.21,0,0,1-1.8.46,5.37,5.37,0,0,1-1.19-.14,4,4,0,0,1-1.08-.4l.2-1.43,1,.1V169a1.68,1.68,0,0,0,.5.13,2.79,2.79,0,0,0,.47,0,2,2,0,0,0,.88-.18.57.57,0,0,0,.38-.53.51.51,0,0,0-.34-.5,3.92,3.92,0,0,0-.84-.22c-.34-.06-.68-.13-1-.22a2.13,2.13,0,0,1-.85-.47,1.56,1.56,0,0,1,.4-2.3,3.45,3.45,0,0,1,1.54-.36m0-3a6.45,6.45,0,0,0-2.86.66,4.35,4.35,0,0,0-2.42,4,4.67,4.67,0,0,0,.21,1.42,2.5,2.5,0,0,0-.05.29l-.2,1.43a3,3,0,0,0,1.5,3,7.19,7.19,0,0,0,1.88.72,8.42,8.42,0,0,0,1.86.21,6.25,6.25,0,0,0,3.43-.94,4.49,4.49,0,0,0,2.08-3.84,4.64,4.64,0,0,0-.3-1.69,2.89,2.89,0,0,0,0-.72l-.13-1.37a3,3,0,0,0-1.58-2.35,7.21,7.21,0,0,0-3.43-.86Z" transform="translate(-1.53 -2.14)"/><text class="cls-15" transform="translate(141.57 117.97)"><tspan class="cls-16">M</tspan><tspan x="10.89" y="0">agia</tspan></text><text class="cls-15" transform="translate(139.45 190.81)">Cursos</text><text class="cls-15" transform="translate(98.67 167.75)"><tspan class="cls-17">T</tspan><tspan x="7.25" y="0">erapias</tspan></text><text class="cls-15" transform="translate(170.91 167.89)"><tspan class="cls-18">H</tspan><tspan x="9.1" y="0">olisticas</tspan></text><path class="cls-10" d="M166.32,173c0-4.08-10.34-4.56-11.09-6.67h-3.15c.63,4,11.61,5,11.88,6.88h2.36C166.28,173.16,166.32,173.07,166.32,173Z" transform="translate(-1.53 -2.14)"/><path class="cls-10" d="M169.16,157.2c0-5.43-18.92-5.3-18.92-8.41,0-1,1.61-.44,1.61-.44,3.42,2,5,0,5,0a4.36,4.36,0,0,0-3.85-2.89c-1.61-.22-5.55.17-5.55,3.68,0,4.91,18.41,5.26,18.41,8.15a.8.8,0,0,1-.12.4h3.35A1.14,1.14,0,0,0,169.16,157.2Z" transform="translate(-1.53 -2.14)"/><path class="cls-10" d="M163,148.31s1.57,2,5,0c0,0,1.61-.53,1.61.44,0,3.15-18.92,3-18.92,8.41,0,3.59,7.67,5.22,9.24,5.7s4.76,1.53,4.76,3.24c0,2.32-11.13,2.63-11.13,6.88s9.83,3.55,9.83,6.58A3.84,3.84,0,0,1,162,182s2.91-1.41,2.91-3c0-3.07-9-3.73-9-5.66s11.92-2.93,11.92-7.27c0-5.7-13.89-6.45-13.89-8.77,0-2.89,18.41-3.24,18.41-8.15,0-3.51-3.93-3.9-5.54-3.68A4.27,4.27,0,0,0,163,148.31Z" transform="translate(-1.53 -2.14)"/><path class="cls-10" d="M157.71,135.82a14.23,14.23,0,0,1-5.55-4.61c-2-3.06-8.1.22-10,1.67s-6.8,3.51-10.19,1.1c0,0,1.18,4.73,7.2,4.16,0,0-.12,3,4.25,2.41,0,0,.12,2.19,3.66,1.75,0,0,.51,2,4.33,1,0,0,.19,2,6.21.88v-8.37Z" transform="translate(-1.53 -2.14)"/><path class="cls-10" d="M140.17,137.83a17.59,17.59,0,0,0,4.44-2.36c2.56-1.8,4.68-2.15,6.88-.22a13.71,13.71,0,0,0,4.53,2.63,11.72,11.72,0,0,1-5.55-2C147.68,134,144,138.05,140.17,137.83Z" transform="translate(-1.53 -2.14)"/><path class="cls-10" d="M143.9,140.29s4-2.72,6.06-2.81A25.63,25.63,0,0,1,143.9,140.29Z" transform="translate(-1.53 -2.14)"/><path class="cls-10" d="M147.48,142a19.24,19.24,0,0,1,5.55-3.16S148.94,141.69,147.48,142Z" transform="translate(-1.53 -2.14)"/><path class="cls-10" d="M151.85,142.87a12.4,12.4,0,0,1,4.17-3A17.62,17.62,0,0,1,151.85,142.87Z" transform="translate(-1.53 -2.14)"/><path class="cls-10" d="M162.11,135.82a14.16,14.16,0,0,0,5.55-4.61c2-3.06,8.1.22,10,1.67s6.81,3.51,10.19,1.1c0,0-1.18,4.73-7.2,4.16,0,0,.12,3-4.25,2.41,0,0-.11,2.19-3.65,1.75,0,0-.52,2-4.33,1,0,0-.2,2-6.22.88v-8.37Z" transform="translate(-1.53 -2.14)"/><path class="cls-10" d="M179.66,137.83a17.53,17.53,0,0,1-4.45-2.36c-2.55-1.8-4.68-2.15-6.88-.22a13.62,13.62,0,0,1-4.52,2.63,11.7,11.7,0,0,0,5.54-2C172.15,134,175.84,138.05,179.66,137.83Z" transform="translate(-1.53 -2.14)"/><path class="cls-10" d="M175.92,140.29s-4-2.72-6.06-2.81A25.63,25.63,0,0,0,175.92,140.29Z" transform="translate(-1.53 -2.14)"/><path class="cls-10" d="M172.34,142a19.28,19.28,0,0,0-5.54-3.16S170.89,141.69,172.34,142Z" transform="translate(-1.53 -2.14)"/><path class="cls-10" d="M168,142.87a12.52,12.52,0,0,0-4.17-3A17.39,17.39,0,0,0,168,142.87Z" transform="translate(-1.53 -2.14)"/><ellipse class="cls-10" cx="158.38" cy="126.71" rx="3.54" ry="3.94"/><rect class="cls-10" x="156.81" y="129.42" width="3.15" height="52.2"/><path class="cls-10" d="M166.28,173.24h-2.36v.09c0,1.89-9,2.59-9,5.66,0,1.57,2.91,3,2.91,3a3.71,3.71,0,0,1-1.42-2.41C156.49,176.62,165.93,177.28,166.28,173.24Z" transform="translate(-1.53 -2.14)"/><path class="cls-10" d="M165.77,157.64c-1.37,2.06-13.73,3-13.73,8.37a.91.91,0,0,0,0,.35h3.15a.57.57,0,0,1,0-.26c0-1.71,3.19-2.76,4.76-3.24s8.62-2,9.21-5.26l-3.39,0Z" transform="translate(-1.53 -2.14)"/><path class="cls-19" d="M58.82,11.07A223.86,223.86,0,0,0,1.53,51a224.44,224.44,0,0,1,22.86,5.23,211.8,211.8,0,0,0,4.94,21.46A184.25,184.25,0,0,1,76.56,44.77Z" transform="translate(-1.53 -2.14)"/><path class="cls-20" d="M43.84,35.84a199.56,199.56,0,0,1,15-24.77l6.66,12.64A209.37,209.37,0,0,0,43.84,35.84Z" transform="translate(-1.53 -2.14)"/><path class="cls-19" d="M261,11.07A223.91,223.91,0,0,1,318.3,51a223.22,223.22,0,0,0-22.86,5.23,217.34,217.34,0,0,1-4.94,21.46,184.3,184.3,0,0,0-47.24-32.91Q252.13,27.92,261,11.07Z" transform="translate(-1.53 -2.14)"/><path class="cls-21" d="M43.83,35.85c70.05-44.94,162.1-44.94,232.15,0L254.17,67.26c-56.89-36.49-131.64-36.49-188.53,0Z" transform="translate(-1.53 -2.14)"/><path class="cls-20" d="M276,35.84a198.35,198.35,0,0,0-15-24.77l-6.65,12.64A212.17,212.17,0,0,1,276,35.84Z" transform="translate(-1.53 -2.14)"/><path class="cls-4" d="M84.09,51.65l-.25-.47a3,3,0,0,0,1-.66,1.13,1.13,0,0,0,.28-.73,2.29,2.29,0,0,0-.23-.92c-.16-.35-.35-.76-.59-1.22-3.22-6.26-4.83-9.39-8.06-15.65-.24-.48-.47-.88-.66-1.2a2.25,2.25,0,0,0-.64-.71,1.33,1.33,0,0,0-.85-.18,3.88,3.88,0,0,0-1.28.43l-.25-.47c3.85-1.88,5.8-2.77,9.73-4.43a22.12,22.12,0,0,1,5.33-1.62,9.68,9.68,0,0,1,4,.09,5.8,5.8,0,0,1,2.71,1.53,9,9,0,0,1,2.3,5.93,5.66,5.66,0,0,1-.88,2.84,9.45,9.45,0,0,1-2.59,2.58,25.08,25.08,0,0,1-4.51,2.38l-1.77.76,2.55,5.41c.22.46.43.87.61,1.21a2.4,2.4,0,0,0,.6.75,1.13,1.13,0,0,0,.77.24,3,3,0,0,0,1.13-.29l.22.48C89.21,49.2,87.49,50,84.09,51.65ZM88.2,38.37a4.39,4.39,0,0,0,2.6-2.83,7.55,7.55,0,0,0-.65-5.17,7.37,7.37,0,0,0-3.37-4.08,4.93,4.93,0,0,0-4.15-.06c-.77.33-1.16.49-1.92.83l5.71,12.08Z" transform="translate(-1.53 -2.14)"/><path class="cls-4" d="M101,28.18a2.08,2.08,0,0,0-.88.64A5.48,5.48,0,0,0,99.37,30a2.33,2.33,0,0,1-.09-1.34,3.86,3.86,0,0,1,.57-1.39A4.72,4.72,0,0,1,101,26.08a5,5,0,0,1,1.62-.83,5.11,5.11,0,0,1,2.58-.13,3.22,3.22,0,0,1,2.07,1.33,6.16,6.16,0,0,1,1.62-2.33,5.84,5.84,0,0,1,2.48-1.34,5.35,5.35,0,0,1,1.71-.17,4.72,4.72,0,0,1,1.5.37,3.44,3.44,0,0,1,1.15.82,2.91,2.91,0,0,1,.64,1.2,2.5,2.5,0,0,1-.31,2.05,2.87,2.87,0,0,1-1.78,1.24,2.5,2.5,0,0,1-1.21,0,2.29,2.29,0,0,1-.93-.44,2.67,2.67,0,0,1-.67-.78,4.16,4.16,0,0,1-.41-1,4.78,4.78,0,0,1-.2-1.34,2.54,2.54,0,0,1,.12-1,2.5,2.5,0,0,0-1,.55,5.45,5.45,0,0,0-.94,1,8.08,8.08,0,0,0-.77,1.25,5.46,5.46,0,0,0-.44,1.24c1.22,3.89,1.83,5.84,3,9.73.16.49.3.92.44,1.28a2.19,2.19,0,0,0,.48.82,1.16,1.16,0,0,0,.73.34,3.12,3.12,0,0,0,1.14-.13l.15.5c-3.54,1-5.3,1.51-8.79,2.68l-.18-.5a3,3,0,0,0,1-.52,1.1,1.1,0,0,0,.37-.68,2.17,2.17,0,0,0-.1-.94c-.1-.37-.24-.8-.41-1.29L102.24,29a1.38,1.38,0,0,0-.54-.8A.87.87,0,0,0,101,28.18Z" transform="translate(-1.53 -2.14)"/><path class="cls-4" d="M128.08,18.82a11.51,11.51,0,0,1,4.1,0,7.81,7.81,0,0,1,3.26,1.4,7.92,7.92,0,0,1,2.26,2.66,10.75,10.75,0,0,1,1.13,3.77,11.5,11.5,0,0,1-.13,3.92,8.53,8.53,0,0,1-1.37,3.11,7.53,7.53,0,0,1-2.46,2.19,10.43,10.43,0,0,1-3.48,1.18,10.7,10.7,0,0,1-3.7,0,7.93,7.93,0,0,1-3.1-1.26,8.82,8.82,0,0,1-2.38-2.48,11.86,11.86,0,0,1-1.51-3.65,10.88,10.88,0,0,1-.26-3.92,7.47,7.47,0,0,1,3.78-5.61A11.28,11.28,0,0,1,128.08,18.82Zm3.15,17.37a2.05,2.05,0,0,0,1-.52,3.14,3.14,0,0,0,.79-1.43,10.56,10.56,0,0,0,.34-2.65,24.35,24.35,0,0,0-.37-4.17,22.77,22.77,0,0,0-1-4.08,9.72,9.72,0,0,0-1.23-2.41,3.09,3.09,0,0,0-1.32-1.1,2.37,2.37,0,0,0-1.27-.15,2.45,2.45,0,0,0-1.15.55,3,3,0,0,0-.85,1.47,9.18,9.18,0,0,0-.31,2.66,22.6,22.6,0,0,0,.52,4.16,23.4,23.4,0,0,0,1.12,4,10.5,10.5,0,0,0,1.25,2.38,3.16,3.16,0,0,0,1.25,1.1A2.18,2.18,0,0,0,131.23,36.19Z" transform="translate(-1.53 -2.14)"/><path class="cls-4" d="M142.77,17.47v0a7,7,0,0,1,.35-3.05,6.12,6.12,0,0,1,1.77-2.51,9.64,9.64,0,0,1,3.32-1.78,20.76,20.76,0,0,1,7.64-.7,7.87,7.87,0,0,1,2.21.54,3.78,3.78,0,0,1,1.5,1.11,2.84,2.84,0,0,1,.54,1.78,2.78,2.78,0,0,1-.75,2.06,2.81,2.81,0,0,1-2,.75,2.93,2.93,0,0,1-1.26-.22,2.46,2.46,0,0,1-.87-.64,2.92,2.92,0,0,1-.52-.95,3.75,3.75,0,0,1-.2-1.1,4.51,4.51,0,0,1,.1-1.1,2.8,2.8,0,0,1,.4-1c0-.14-.09-.24-.27-.31a3.17,3.17,0,0,0-.62-.14,4.26,4.26,0,0,0-.71,0l-.58,0a3.87,3.87,0,0,0-3.57,2.21,6.5,6.5,0,0,0-.63,2.15,12.47,12.47,0,0,0-.06,2.45v0c2.67-.15,4-.21,6.68-.27a8,8,0,0,1,1.81.15,5.46,5.46,0,0,1,1.62.58,3.51,3.51,0,0,1,1.17,1,2.52,2.52,0,0,1,.45,1.51c0,4.26,0,6.39,0,10.64q0,.78,0,1.35a2.54,2.54,0,0,0,.22.93,1.14,1.14,0,0,0,.58.52,3,3,0,0,0,1.13.19v.52c-3.65,0-5.47,0-9.12.12l0-.52a2.9,2.9,0,0,0,1.14-.22,1.07,1.07,0,0,0,.55-.54,2.22,2.22,0,0,0,.19-.93c0-.39,0-.83,0-1.35-.13-4.25-.19-6.38-.32-10.64a6.59,6.59,0,0,0-.17-1.41,1.25,1.25,0,0,0-.49-.72,1.91,1.91,0,0,0-.94-.23q-.6,0-1.53,0c-1.15.05-1.73.08-2.87.15.33,5.22.5,7.84.83,13.06,0,.52.08,1,.12,1.34a2.4,2.4,0,0,0,.27.91,1.16,1.16,0,0,0,.63.49,2.82,2.82,0,0,0,1.13.12l0,.52c-3.65.18-5.47.31-9.1.68l-.06-.52a2.89,2.89,0,0,0,1.12-.29,1.1,1.1,0,0,0,.52-.57,2.34,2.34,0,0,0,.13-.94c0-.39-.05-.83-.1-1.34-.5-5.22-.76-7.82-1.26-13l-2.15.2-.09-.86Z" transform="translate(-1.53 -2.14)"/><path class="cls-4" d="M169.18,29.41a4.68,4.68,0,0,1-.68,2.07c-.05.09-.1.18-.15.29a1,1,0,0,0-.09.36,1.09,1.09,0,0,0,.26.78,2.3,2.3,0,0,0,.73.55,4.72,4.72,0,0,0,1,.33,6,6,0,0,0,1,.15,3.6,3.6,0,0,0,2-.39,2,2,0,0,0,1-1.78,2.62,2.62,0,0,0-.09-1.06,2.49,2.49,0,0,0-.54-.91,7,7,0,0,0-1-.92q-.65-.46-1.59-1.05c-1.16-.7-2.13-1.33-2.92-1.9a13.68,13.68,0,0,1-1.88-1.61,5.1,5.1,0,0,1-1-1.48,3.59,3.59,0,0,1-.27-1.53,4,4,0,0,1,.59-2,4.88,4.88,0,0,1,1.6-1.56,7.42,7.42,0,0,1,2.48-.94,11.91,11.91,0,0,1,3.22-.18,13.34,13.34,0,0,1,3,.54,8.26,8.26,0,0,1,2.46,1.17A5.08,5.08,0,0,1,179.78,20a3.65,3.65,0,0,1,.39,2.17,3,3,0,0,1-.93,2,2.42,2.42,0,0,1-1.92.6,2.67,2.67,0,0,1-1.8-.87,2.44,2.44,0,0,1-.6-2,3.44,3.44,0,0,1,.34-1.27,6.12,6.12,0,0,1,.48-.8,2.43,2.43,0,0,0,.35-.67q0-.36-.63-.93a3,3,0,0,0-1.79-.66,2.9,2.9,0,0,0-2,.54,2.17,2.17,0,0,0-.91,1.68A2.35,2.35,0,0,0,171,21.1a4.39,4.39,0,0,0,.78,1.07,6.2,6.2,0,0,0,1,.81c.34.24.63.43.88.59a28.67,28.67,0,0,1,3.2,2.25,13.81,13.81,0,0,1,1.88,1.82,4.44,4.44,0,0,1,.87,1.49,3.29,3.29,0,0,1,.12,1.39,3.9,3.9,0,0,1-.88,2,5.79,5.79,0,0,1-1.89,1.5,9.64,9.64,0,0,1-2.61.85,13.23,13.23,0,0,1-5.64-.28,9,9,0,0,1-2.37-1A5.43,5.43,0,0,1,164.6,32a4.15,4.15,0,0,1-.63-2.45,3.33,3.33,0,0,1,.77-2.23,2.44,2.44,0,0,1,2-.79,2.26,2.26,0,0,1,1.89.88A3.15,3.15,0,0,1,169.18,29.41Z" transform="translate(-1.53 -2.14)"/><path class="cls-4" d="M187.89,31.37a4.58,4.58,0,0,1-.91,2c-.06.08-.12.18-.18.27a1.21,1.21,0,0,0-.13.35,1.14,1.14,0,0,0,.17.81,2.32,2.32,0,0,0,.66.62,5,5,0,0,0,.93.43,6.39,6.39,0,0,0,.95.25,3.74,3.74,0,0,0,2-.17,2.08,2.08,0,0,0,1.18-1.67,2.74,2.74,0,0,0,0-1.06,2.53,2.53,0,0,0-.44-1,6.62,6.62,0,0,0-.94-1c-.39-.36-.88-.76-1.46-1.21-1.07-.82-2-1.55-2.69-2.2a12.26,12.26,0,0,1-1.69-1.8,4.85,4.85,0,0,1-.82-1.57,3.67,3.67,0,0,1-.1-1.55,4.06,4.06,0,0,1,.82-1.95,4.86,4.86,0,0,1,1.77-1.38,7.51,7.51,0,0,1,2.57-.67,11.7,11.7,0,0,1,3.24.16,13.41,13.41,0,0,1,3,.85,8.67,8.67,0,0,1,2.33,1.42,5.08,5.08,0,0,1,1.36,1.88,3.47,3.47,0,0,1,.14,2.19,3,3,0,0,1-1.15,1.85,2.43,2.43,0,0,1-2,.39,2.67,2.67,0,0,1-1.7-1.05,2.45,2.45,0,0,1-.37-2A3.36,3.36,0,0,1,195,23.3a4.75,4.75,0,0,1,.57-.75,2.57,2.57,0,0,0,.42-.63c.05-.23-.13-.56-.53-1a3,3,0,0,0-1.71-.84,2.91,2.91,0,0,0-2.06.33,2.18,2.18,0,0,0-1.1,1.57,2.32,2.32,0,0,0,.13,1.31,4.27,4.27,0,0,0,.65,1.14,6.41,6.41,0,0,0,.88.92L193,26A27.33,27.33,0,0,1,196,28.61a13.89,13.89,0,0,1,1.66,2,4.51,4.51,0,0,1,.7,1.58,3.42,3.42,0,0,1,0,1.39,3.93,3.93,0,0,1-1.12,1.94,5.87,5.87,0,0,1-2.05,1.29,9.71,9.71,0,0,1-2.71.57,13,13,0,0,1-3.08-.17,13.85,13.85,0,0,1-2.51-.7,8.73,8.73,0,0,1-2.25-1.24A5.31,5.31,0,0,1,183,33.44a4.2,4.2,0,0,1-.35-2.5,3.41,3.41,0,0,1,1-2.14,2.49,2.49,0,0,1,2.12-.57,2.25,2.25,0,0,1,1.78,1.08A3.08,3.08,0,0,1,187.89,31.37Z" transform="translate(-1.53 -2.14)"/><path class="cls-4" d="M201,34.59a4,4,0,0,1,1.67-2.5,6.13,6.13,0,0,1,2.78-.89,12,12,0,0,1,3.2.2c1.1.22,2.07.45,2.91.7l.75.22q.34.1.69.18l.32-1a17.28,17.28,0,0,0,.8-3.29A6,6,0,0,0,214,26a2.62,2.62,0,0,0-.88-1.37,4.45,4.45,0,0,0-1.53-.74,4.07,4.07,0,0,0-1.31-.18,5.09,5.09,0,0,1,.16,1.57,6.22,6.22,0,0,1-.21,1.25,2.87,2.87,0,0,1-1.36,1.82,2.68,2.68,0,0,1-2,.24,2.58,2.58,0,0,1-1.64-1.16,2.43,2.43,0,0,1-.22-1.95,3,3,0,0,1,.73-1.3,3.65,3.65,0,0,1,1.47-.91A6.57,6.57,0,0,1,209.4,23a11.46,11.46,0,0,1,3,.48,11.87,11.87,0,0,1,3.6,1.64,8,8,0,0,1,2.25,2.34,6.1,6.1,0,0,1,.88,2.78,7.38,7.38,0,0,1-.48,3l-2.4,6.59a2,2,0,0,0-.13,1.06.68.68,0,0,0,.46.57,1.84,1.84,0,0,0,1,0,6.7,6.7,0,0,0,1.31-.49,2.86,2.86,0,0,1-.78,1.1,4.35,4.35,0,0,1-1.24.76,5,5,0,0,1-1.48.32,3.73,3.73,0,0,1-1.49-.18A3.29,3.29,0,0,1,212,41.5a4.3,4.3,0,0,1-.66-2.33,6.33,6.33,0,0,1-2.6,1.65,5,5,0,0,1-2.95.06,7.21,7.21,0,0,1-4.14-2.48A4.39,4.39,0,0,1,201,34.59Zm17.87-16,.54.17a3.87,3.87,0,0,1-.54.88,4,4,0,0,1-.8.8,2.87,2.87,0,0,1-1,.49,2,2,0,0,1-1.1,0,2.56,2.56,0,0,1-.8-.38,7.82,7.82,0,0,1-.67-.52c-.22-.19-.46-.36-.68-.52a2.6,2.6,0,0,0-.66-.34,1,1,0,0,0-.77,0,2.45,2.45,0,0,0-.53.4l-.54-.14a5.85,5.85,0,0,1,.52-.84,3.74,3.74,0,0,1,.79-.8,3.46,3.46,0,0,1,1-.53,1.83,1.83,0,0,1,1.11,0,2.3,2.3,0,0,1,.77.38c.25.18.48.37.71.56s.46.36.69.53a2.25,2.25,0,0,0,.69.35.91.91,0,0,0,.8,0A1.41,1.41,0,0,0,218.86,18.6ZM207.36,40a2.08,2.08,0,0,0,1.08,0,3.57,3.57,0,0,0,1-.43,5.5,5.5,0,0,0,.92-.66c.27-.25.52-.48.74-.71l1.58-4.83c-.51-.15-1-.29-1.47-.4s-.79-.18-1-.2a2.65,2.65,0,0,0-2.3.84,6.34,6.34,0,0,0-1.59,2.84,3.77,3.77,0,0,0-.13,2.56A1.75,1.75,0,0,0,207.36,40Z" transform="translate(-1.53 -2.14)"/><path class="cls-4" d="M235.29,31.53a11.56,11.56,0,0,1,3.48,2.22,7.64,7.64,0,0,1,2,2.94,7.48,7.48,0,0,1,.37,3.44,10.49,10.49,0,0,1-1.24,3.74,11.5,11.5,0,0,1-2.4,3.18,9,9,0,0,1-3,1.83,8.29,8.29,0,0,1-3.37.48,11.24,11.24,0,0,1-3.65-.91,10.76,10.76,0,0,1-3.14-2,7.42,7.42,0,0,1-1.87-2.71,8.35,8.35,0,0,1-.57-3.35,11.24,11.24,0,0,1,.86-3.83,10.85,10.85,0,0,1,2.05-3.4,8,8,0,0,1,6.45-2.62A11.85,11.85,0,0,1,235.29,31.53Zm-7.45,16.12a2.18,2.18,0,0,0,1.18.12,3.2,3.2,0,0,0,1.51-.76,10.36,10.36,0,0,0,1.83-2,24.15,24.15,0,0,0,2.12-3.65A22.2,22.2,0,0,0,236,37.43a8.84,8.84,0,0,0,.36-2.66,3,3,0,0,0-.47-1.63,2.4,2.4,0,0,0-1-.81,2.48,2.48,0,0,0-1.29-.16,3.16,3.16,0,0,0-1.57.75,9.58,9.58,0,0,0-1.82,2,23.23,23.23,0,0,0-2,3.72,23.45,23.45,0,0,0-1.4,4,10.27,10.27,0,0,0-.33,2.66,3,3,0,0,0,.42,1.58A2.07,2.07,0,0,0,227.84,47.65Z" transform="translate(-1.53 -2.14)"/><path class="cls-19" d="M261,307.94A224,224,0,0,0,318.3,268a225.91,225.91,0,0,1-22.86-5.24,217.34,217.34,0,0,0-4.94-21.46,184.3,184.3,0,0,1-47.24,32.91Z" transform="translate(-1.53 -2.14)"/><path class="cls-20" d="M276,283.17a198.35,198.35,0,0,1-15,24.77l-6.65-12.64A210.27,210.27,0,0,0,276,283.17Z" transform="translate(-1.53 -2.14)"/><path class="cls-19" d="M58.82,307.94A224.07,224.07,0,0,1,1.53,268a226.53,226.53,0,0,0,22.86-5.24,211.8,211.8,0,0,1,4.94-21.46,184.25,184.25,0,0,0,47.23,32.91Q67.7,291.09,58.82,307.94Z" transform="translate(-1.53 -2.14)"/><path class="cls-21" d="M276,283.16c-70,44.94-162.1,44.94-232.14,0l21.8-31.42c56.89,36.49,131.65,36.49,188.53,0Z" transform="translate(-1.53 -2.14)"/><path class="cls-20" d="M43.85,283.17a198.26,198.26,0,0,0,15,24.77l6.66-12.64A208.19,208.19,0,0,1,43.85,283.17Z" transform="translate(-1.53 -2.14)"/><path class="cls-4" d="M73.81,267.42c4.85,2.37,7.3,3.47,12.27,5.49l-1.59,3.61-.65-.27c.16-.36.32-.73.47-1.1a4.15,4.15,0,0,0,.28-1,1.57,1.57,0,0,0-.1-.87,1.18,1.18,0,0,0-.67-.6l-2.44-1c-2.42,5.13-3.63,7.7-6.06,12.83-.15.33-.28.62-.38.87a1.56,1.56,0,0,0-.13.65.84.84,0,0,0,.26.52,2.25,2.25,0,0,0,.74.45l-.15.34c-2.64-1.13-4-1.71-6.55-2.93l.17-.33a2.27,2.27,0,0,0,.85.26,1,1,0,0,0,.57-.14,1.82,1.82,0,0,0,.44-.52c.13-.24.28-.52.44-.84,2.53-5.09,3.8-7.63,6.32-12.72-1-.44-1.44-.66-2.4-1.12a1.23,1.23,0,0,0-.92-.11,1.69,1.69,0,0,0-.76.48,4.46,4.46,0,0,0-.65.88c-.2.35-.4.7-.58,1.05l-.63-.31Z" transform="translate(-1.53 -2.14)"/><path class="cls-4" d="M83.23,278.69a1.45,1.45,0,0,0-.74-.05,4.78,4.78,0,0,0-1,.28,1.84,1.84,0,0,1,.61-.73,3,3,0,0,1,.94-.48,3.45,3.45,0,0,1,1.12-.15,3.39,3.39,0,0,1,1.17.24,3.14,3.14,0,0,1,1.32,1,2.1,2.1,0,0,1,.46,1.57,4.77,4.77,0,0,1,1.85-.65,3.85,3.85,0,0,1,1.85.19,3.29,3.29,0,0,1,1,.55,2.58,2.58,0,0,1,.65.76,2.27,2.27,0,0,1,.29.9,2.12,2.12,0,0,1-.12.93,1.92,1.92,0,0,1-1,1.09,2,2,0,0,1-1.51,0,1.5,1.5,0,0,1-.68-.45,1.59,1.59,0,0,1-.33-.61,1.87,1.87,0,0,1,0-.71,3.22,3.22,0,0,1,.19-.71,3.43,3.43,0,0,1,.47-.84,1.91,1.91,0,0,1,.48-.52,1.62,1.62,0,0,0-.75-.07,4.83,4.83,0,0,0-.92.21,6.47,6.47,0,0,0-.94.4,3.62,3.62,0,0,0-.78.5L84.08,288c-.13.33-.25.63-.34.88a1.51,1.51,0,0,0-.09.66.8.8,0,0,0,.27.51,2.31,2.31,0,0,0,.76.41l-.13.35c-2.63-1-3.94-1.5-6.53-2.57l.15-.34a2.3,2.3,0,0,0,.86.22.9.9,0,0,0,.55-.17,1.75,1.75,0,0,0,.42-.54c.12-.24.25-.53.4-.86l3-6.89a1,1,0,0,0,.11-.66A.56.56,0,0,0,83.23,278.69Z" transform="translate(-1.53 -2.14)"/><path class="cls-4" d="M91,289.86a2.78,2.78,0,0,1,1.36-1.63,4.64,4.64,0,0,1,2-.46,9,9,0,0,1,2.23.26c.76.18,1.42.35,2,.53l.52.16.48.12.22-.67a13.19,13.19,0,0,0,.57-2.31,4.29,4.29,0,0,0,0-1.54,1.75,1.75,0,0,0-.53-.95,2.62,2.62,0,0,0-1-.52,2.46,2.46,0,0,0-.84-.14,3.35,3.35,0,0,1,0,1.09,4.06,4.06,0,0,1-.19.87,2.06,2.06,0,0,1-1,1.25,1.82,1.82,0,0,1-1.41.1,1.65,1.65,0,0,1-1-.88,1.71,1.71,0,0,1,0-1.37,2.33,2.33,0,0,1,.58-.87,2.64,2.64,0,0,1,1-.58,4.36,4.36,0,0,1,1.46-.16,7.16,7.16,0,0,1,1.92.37,7.57,7.57,0,0,1,2.28,1.11,5.4,5.4,0,0,1,1.46,1.57,4.58,4.58,0,0,1,.62,1.91,5.43,5.43,0,0,1-.25,2.12c-.57,1.89-.86,2.83-1.44,4.71a1.32,1.32,0,0,0,0,.75.52.52,0,0,0,.38.38,1.3,1.3,0,0,0,.69,0,5.11,5.11,0,0,0,.93-.4,1.9,1.9,0,0,1-.49.81,2.85,2.85,0,0,1-.87.57,3.57,3.57,0,0,1-1.09.28,3,3,0,0,1-1.12-.11,2.61,2.61,0,0,1-1.46-1,3,3,0,0,1-.53-1.65,4.26,4.26,0,0,1-1.93,1.12,3.86,3.86,0,0,1-2.23-.06,5.42,5.42,0,0,1-3.05-2A3,3,0,0,1,91,289.86Zm4.5,4.15a1.6,1.6,0,0,0,.81.05,2.81,2.81,0,0,0,.78-.28,4.36,4.36,0,0,0,.67-.45,6.52,6.52,0,0,0,.53-.49l1.12-3.39-1-.29-.66-.15a2,2,0,0,0-1.65.54,4.51,4.51,0,0,0-1.21,1.93,2.52,2.52,0,0,0-.16,1.8A1.33,1.33,0,0,0,95.49,294Z" transform="translate(-1.53 -2.14)"/><path class="cls-4" d="M108.2,287a1.31,1.31,0,0,0-.72.05,3.78,3.78,0,0,0-.91.41,1.83,1.83,0,0,1,.5-.81,3.1,3.1,0,0,1,.85-.6,3.2,3.2,0,0,1,1.09-.3,3.31,3.31,0,0,1,1.17.09,3.1,3.1,0,0,1,1.39.75,2.08,2.08,0,0,1,.68,1.38,4,4,0,0,1,1.73-1,4.14,4.14,0,0,1,2,0,4.56,4.56,0,0,1,1.65.72,4.69,4.69,0,0,1,1.18,1.17,4,4,0,0,1,.63,1.45,3.63,3.63,0,0,1,0,1.54c-.52,2.4-.78,3.59-1.31,6a1.23,1.23,0,0,0,0,.73.53.53,0,0,0,.4.33,1.26,1.26,0,0,0,.7-.1,3.84,3.84,0,0,0,.9-.46,1.8,1.8,0,0,1-.44.84,3.2,3.2,0,0,1-1.92,1,3.59,3.59,0,0,1-2.25-.42,2.74,2.74,0,0,1-.81-.69,2.39,2.39,0,0,1-.46-.93,2.32,2.32,0,0,1,0-1.11l1.42-6a5.71,5.71,0,0,0,.18-1.44,3.59,3.59,0,0,0-.19-1.06,1.59,1.59,0,0,0-.43-.68,1.3,1.3,0,0,0-1.31-.3,2.37,2.37,0,0,0-.68.33,3.68,3.68,0,0,0-.6.51,4.38,4.38,0,0,0-.49.59c-.74,2.85-1.1,4.27-1.84,7.11-.09.35-.17.66-.22.92a1.5,1.5,0,0,0,0,.67.79.79,0,0,0,.34.46,2.26,2.26,0,0,0,.8.31l-.09.36c-2.71-.63-4.06-1-6.76-1.68l.11-.36a2.32,2.32,0,0,0,.87.11.83.83,0,0,0,.52-.25,1.58,1.58,0,0,0,.33-.58c.09-.26.19-.56.28-.91l2-7.21a1,1,0,0,0,0-.67A.52.52,0,0,0,108.2,287Z" transform="translate(-1.53 -2.14)"/><path class="cls-4" d="M125.8,298.16a3,3,0,0,1-.67,1.38c0,.06-.09.12-.13.19a.63.63,0,0,0-.1.25.75.75,0,0,0,.13.56,1.44,1.44,0,0,0,.5.44,3.46,3.46,0,0,0,.7.32,5.32,5.32,0,0,0,.72.17,2.81,2.81,0,0,0,1.52-.14,1.4,1.4,0,0,0,.82-1.2,2,2,0,0,0,0-.74,2,2,0,0,0-.35-.67,4.61,4.61,0,0,0-.7-.7c-.29-.24-.65-.52-1.07-.84a18.34,18.34,0,0,1-1.89-1.55,7,7,0,0,1-1.14-1.29,3.28,3.28,0,0,1-.52-1.12,2.67,2.67,0,0,1,0-1.09,2.91,2.91,0,0,1,.62-1.34,3.42,3.42,0,0,1,1.2-.94,5.06,5.06,0,0,1,1.68-.46,7.78,7.78,0,0,1,2.08.07,8.83,8.83,0,0,1,1.9.5,5.61,5.61,0,0,1,1.54.89,3.46,3.46,0,0,1,1,1.23,2.68,2.68,0,0,1,.22,1.52,2.16,2.16,0,0,1-.67,1.36,1.61,1.61,0,0,1-1.33.38,1.78,1.78,0,0,1-1.21-.67,1.74,1.74,0,0,1-.31-1.4,2.54,2.54,0,0,1,.3-.88,5.79,5.79,0,0,1,.35-.54,1.51,1.51,0,0,0,.26-.46c0-.16-.09-.38-.36-.67a1.86,1.86,0,0,0-1.12-.54,1.89,1.89,0,0,0-1.34.28,1.58,1.58,0,0,0-.72,1.12,1.69,1.69,0,0,0,.08.92,2.91,2.91,0,0,0,.44.79,3.92,3.92,0,0,0,.6.62l.57.46a26.09,26.09,0,0,1,2.1,1.7,10.71,10.71,0,0,1,1.27,1.32,3.42,3.42,0,0,1,.6,1.06,2.33,2.33,0,0,1,.07,1,2.59,2.59,0,0,1-.66,1.42,3.91,3.91,0,0,1-1.44,1,6.59,6.59,0,0,1-2,.49,9.36,9.36,0,0,1-2.35-.08,9.06,9.06,0,0,1-1.92-.5,6.53,6.53,0,0,1-1.69-.92,3.78,3.78,0,0,1-1.12-1.34,2.74,2.74,0,0,1-.17-1.76,2.39,2.39,0,0,1,.8-1.47,1.8,1.8,0,0,1,1.52-.34,1.61,1.61,0,0,1,1.24.78A2.13,2.13,0,0,1,125.8,298.16Z" transform="translate(-1.53 -2.14)"/><path class="cls-4" d="M134.59,302.56a2.2,2.2,0,0,0,.87,0,.8.8,0,0,0,.47-.32,1.55,1.55,0,0,0,.24-.62c.05-.27.1-.58.14-.94l1.1-9.12-1.39-.16.08-.61,1.38.16v0a5.65,5.65,0,0,1,.63-2,4.64,4.64,0,0,1,1.3-1.52,5.21,5.21,0,0,1,1.91-.91,7.56,7.56,0,0,1,2.47-.18,6.84,6.84,0,0,1,1.84.38,3.78,3.78,0,0,1,1.23.7,2.42,2.42,0,0,1,.68.91,2.29,2.29,0,0,1,.17,1,1.84,1.84,0,0,1-.55,1.26,1.62,1.62,0,0,1-1.27.41,1.65,1.65,0,0,1-1.21-.61,2.05,2.05,0,0,1-.38-1.52,4.5,4.5,0,0,1,.18-.87,3.9,3.9,0,0,1,.46-1,2.55,2.55,0,0,0-.8-.18,2.63,2.63,0,0,0-1.07.12,1.76,1.76,0,0,0-.85.68,4.47,4.47,0,0,0-.64,1.4,13.33,13.33,0,0,0-.4,2.34v0c1.72.16,2.57.23,4.29.36l-.05.61c-1.72-.13-2.58-.2-4.3-.36l-.92,9.15c0,.36-.06.67-.07.94a1.44,1.44,0,0,0,.1.66.84.84,0,0,0,.4.41,2.37,2.37,0,0,0,.84.19l0,.37c-2.77-.24-4.15-.38-6.9-.7Z" transform="translate(-1.53 -2.14)"/><path class="cls-4" d="M151.42,291.63a7.34,7.34,0,0,1,2.57.53,5.25,5.25,0,0,1,1.92,1.33,5.83,5.83,0,0,1,1.21,2.07,8,8,0,0,1,.41,2.72A7.89,7.89,0,0,1,157,301a5.38,5.38,0,0,1-3.43,3.26,8,8,0,0,1-2.78.34,7.66,7.66,0,0,1-2.73-.58,5.31,5.31,0,0,1-2-1.4,5.48,5.48,0,0,1-1.14-2.13,7.57,7.57,0,0,1-.24-2.74,8.11,8.11,0,0,1,.65-2.69,5.94,5.94,0,0,1,1.4-1.95,5.33,5.33,0,0,1,2-1.17A7.29,7.29,0,0,1,151.42,291.63ZM150.86,304a1.61,1.61,0,0,0,.85-.22,2.21,2.21,0,0,0,.8-.87,7,7,0,0,0,.62-1.78,15.33,15.33,0,0,0,.32-2.92,17.21,17.21,0,0,0-.11-2.94,7.27,7.27,0,0,0-.48-1.81,2.19,2.19,0,0,0-.69-.94,1.47,1.47,0,0,0-.78-.27,1.52,1.52,0,0,0-.8.21,2.17,2.17,0,0,0-.77.87,7.51,7.51,0,0,0-.64,1.77,17.12,17.12,0,0,0-.38,2.91,16.12,16.12,0,0,0,0,2.94,6.36,6.36,0,0,0,.47,1.82,2.08,2.08,0,0,0,.71.94A1.7,1.7,0,0,0,150.86,304Z" transform="translate(-1.53 -2.14)"/><path class="cls-4" d="M160.7,293.66a1.27,1.27,0,0,0-.68.24,3.73,3.73,0,0,0-.75.62,1.84,1.84,0,0,1,.24-.9,3.16,3.16,0,0,1,1.61-1.37,3.4,3.4,0,0,1,1.15-.22,3.27,3.27,0,0,1,1.6.42,2.15,2.15,0,0,1,1,1.28,4.5,4.5,0,0,1,1.41-1.31,3.77,3.77,0,0,1,1.75-.51,3,3,0,0,1,1.09.14,2.79,2.79,0,0,1,.89.46,2.37,2.37,0,0,1,.63.71,2.18,2.18,0,0,1,.26.91,1.81,1.81,0,0,1-.46,1.37,1.9,1.9,0,0,1-1.35.61,1.64,1.64,0,0,1-.8-.15,1.71,1.71,0,0,1-.54-.45,1.66,1.66,0,0,1-.31-.64,3,3,0,0,1-.11-.73,3.36,3.36,0,0,1,.08-.95,1.83,1.83,0,0,1,.23-.65,1.52,1.52,0,0,0-.71.22,4.39,4.39,0,0,0-.75.54,5.87,5.87,0,0,0-.69.72,4,4,0,0,0-.5.76l.2,7.12c0,.36,0,.68.05,1a1.39,1.39,0,0,0,.18.64.83.83,0,0,0,.45.36,2.3,2.3,0,0,0,.85.09l0,.37c-2.77.09-4.16.11-6.93.11v-.37a2.35,2.35,0,0,0,.86-.12.83.83,0,0,0,.43-.37,1.44,1.44,0,0,0,.16-.65c0-.27,0-.58,0-.94,0-3,0-4.49-.06-7.48a1,1,0,0,0-.16-.64A.51.51,0,0,0,160.7,293.66Z" transform="translate(-1.53 -2.14)"/><path class="cls-4" d="M172.54,294.13a1.8,1.8,0,0,1,.19-.92,2.79,2.79,0,0,1,.6-.83,2.85,2.85,0,0,1,.91-.63,3.28,3.28,0,0,1,2.69,0,2.16,2.16,0,0,1,1.11,1.08,3.78,3.78,0,0,1,3.22-2.13,6.18,6.18,0,0,1,1.29,0,5.26,5.26,0,0,1,1.23.25,4.46,4.46,0,0,1,1,.49,3,3,0,0,1,.72.69,3.92,3.92,0,0,1,1.26-1.62,4,4,0,0,1,1.81-.72,4.76,4.76,0,0,1,1.81.08,5,5,0,0,1,1.54.68,4.38,4.38,0,0,1,1.15,1.12,3.47,3.47,0,0,1,.6,1.43c.44,2.41.65,3.62,1.09,6a1.14,1.14,0,0,0,.31.67.56.56,0,0,0,.49.17,1.31,1.31,0,0,0,.61-.34,4.11,4.11,0,0,0,.66-.75,1.67,1.67,0,0,1-.09.93,2.74,2.74,0,0,1-.52.9,2.94,2.94,0,0,1-.87.72,3.49,3.49,0,0,1-1.16.41,3.69,3.69,0,0,1-1.1,0,2.64,2.64,0,0,1-1-.35,2.61,2.61,0,0,1-.78-.7,2.35,2.35,0,0,1-.41-1c-.39-2.42-.58-3.64-1-6.06a4.89,4.89,0,0,0-.39-1.39,3.46,3.46,0,0,0-.57-.92,1.81,1.81,0,0,0-.68-.49,1.38,1.38,0,0,0-.68-.09,1.4,1.4,0,0,0-.66.28,2.31,2.31,0,0,0-.49.54,5.58,5.58,0,0,0-.35.69,4.63,4.63,0,0,0-.22.7l1,7.29q.08.53.15.93a1.55,1.55,0,0,0,.25.62.85.85,0,0,0,.49.31,2.41,2.41,0,0,0,.86,0l.06.36c-2.75.37-4.13.53-6.89.82l0-.37a2.43,2.43,0,0,0,.85-.21.84.84,0,0,0,.38-.41,1.6,1.6,0,0,0,.09-.66c0-.27-.05-.59-.09-.94-.29-2.44-.43-3.66-.72-6.09a6.1,6.1,0,0,0-.33-1.41,3.75,3.75,0,0,0-.54-.94,1.76,1.76,0,0,0-.64-.51,1.37,1.37,0,0,0-.67-.12,1.44,1.44,0,0,0-.67.25,2.62,2.62,0,0,0-.52.53,4.14,4.14,0,0,0-.39.68,4.31,4.31,0,0,0-.25.71l.71,7.29c0,.36.08.67.12.94a1.54,1.54,0,0,0,.22.63.84.84,0,0,0,.48.33,2.3,2.3,0,0,0,.86,0l0,.37c-2.76.26-4.14.37-6.91.55l0-.36a2.59,2.59,0,0,0,.85-.18.86.86,0,0,0,.4-.4,1.43,1.43,0,0,0,.11-.66c0-.27,0-.58,0-.94-.23-3-.34-4.47-.57-7.45a1,1,0,0,0-.22-.64.53.53,0,0,0-.41-.16,1.41,1.41,0,0,0-.66.28A4.37,4.37,0,0,0,172.54,294.13Z" transform="translate(-1.53 -2.14)"/><path class="cls-4" d="M198.53,297.82a2.67,2.67,0,0,1,.3-2.06,4.24,4.24,0,0,1,1.47-1.38,8.89,8.89,0,0,1,2-.87c.74-.21,1.41-.38,2-.51l.53-.12a3.62,3.62,0,0,0,.47-.13l-.16-.69a14,14,0,0,0-.73-2.26,4.49,4.49,0,0,0-.84-1.31,1.85,1.85,0,0,0-1-.56,2.78,2.78,0,0,0-1.11,0,2.51,2.51,0,0,0-.79.29,4,4,0,0,1,.6.93,5.44,5.44,0,0,1,.3.84,2,2,0,0,1-.19,1.55,1.62,1.62,0,0,1-1.14.77,1.71,1.71,0,0,1-1.36-.24,1.81,1.81,0,0,1-.73-1.17,2.29,2.29,0,0,1,0-1,2.5,2.5,0,0,1,.57-1A4.08,4.08,0,0,1,200,288a7.29,7.29,0,0,1,1.82-.62,8.08,8.08,0,0,1,2.55-.15,5.7,5.7,0,0,1,2.08.64,4.83,4.83,0,0,1,1.54,1.34,5.65,5.65,0,0,1,.91,1.95l1.26,4.75a1.33,1.33,0,0,0,.35.67.54.54,0,0,0,.53.15,1.31,1.31,0,0,0,.57-.38,4,4,0,0,0,.59-.79,1.87,1.87,0,0,1,0,.94,2.69,2.69,0,0,1-.44.92,3.57,3.57,0,0,1-.79.76,2.94,2.94,0,0,1-1,.46,2.64,2.64,0,0,1-1.78-.16,3.06,3.06,0,0,1-1.33-1.16,4.1,4.1,0,0,1-1.06,1.91,3.69,3.69,0,0,1-1.94,1,5.47,5.47,0,0,1-3.65-.23A3,3,0,0,1,198.53,297.82Zm6,1.38a1.43,1.43,0,0,0,.72-.35,2.47,2.47,0,0,0,.51-.61,3.9,3.9,0,0,0,.34-.72,5.24,5.24,0,0,0,.2-.69c-.33-1.38-.5-2.07-.84-3.46-.36.08-.7.17-1,.26a5.75,5.75,0,0,0-.64.19,1.85,1.85,0,0,0-1.13,1.26,4.3,4.3,0,0,0,0,2.26,2.53,2.53,0,0,0,.81,1.62A1.35,1.35,0,0,0,204.56,299.2Z" transform="translate(-1.53 -2.14)"/><path class="cls-4" d="M219.58,296.32l.28.89a3.43,3.43,0,0,1,.85-.14,3.22,3.22,0,0,1,.84.1,1.86,1.86,0,0,1,.71.4,1.57,1.57,0,0,1,.46.72,1.49,1.49,0,0,1,0,.93,1.87,1.87,0,0,1-.47.73,3.44,3.44,0,0,1-.79.54,7.74,7.74,0,0,1-1,.36c-.16,0-.35.09-.57.13a3.73,3.73,0,0,1-.67.09l-.21-.71a1.17,1.17,0,0,0,.49.07,2.7,2.7,0,0,0,.44-.07,1.32,1.32,0,0,0,.82-.58,1.19,1.19,0,0,0,.06-.95,1.24,1.24,0,0,0-.61-.79,1.38,1.38,0,0,0-1,0l-.5-1.62a5.5,5.5,0,0,1-3.89-1.11,7,7,0,0,1-2.27-3.73,6.67,6.67,0,0,1,.26-5,6.31,6.31,0,0,1,4.08-2.94,7.22,7.22,0,0,1,1.94-.33,4.31,4.31,0,0,1,1.46.19,2.43,2.43,0,0,1,1,.6,2.22,2.22,0,0,1,.55.88,1.75,1.75,0,0,1,0,1.37,1.69,1.69,0,0,1-1.06.86,1.75,1.75,0,0,1-1.4-.13,2.05,2.05,0,0,1-1-1.26,4.39,4.39,0,0,1-.17-.85,4,4,0,0,1,.06-1.07,1.58,1.58,0,0,0-.64.06,2.24,2.24,0,0,0-.85.54,2.58,2.58,0,0,0-.65,1.16,6,6,0,0,0-.2,1.93,11.38,11.38,0,0,0,.56,2.87,11,11,0,0,0,1.15,2.69,5.42,5.42,0,0,0,1.31,1.48,3,3,0,0,0,1.3.57,2.63,2.63,0,0,0,1.13-.07,3.85,3.85,0,0,0,1.65-1.08,7.28,7.28,0,0,0,1.36-1.91,1.88,1.88,0,0,1,.07,1,2.55,2.55,0,0,1-.51,1.07,4.6,4.6,0,0,1-1.19,1,7.92,7.92,0,0,1-2,.85C220.45,296.14,220,296.24,219.58,296.32Z" transform="translate(-1.53 -2.14)"/><path class="cls-4" d="M226.2,290.75a2.65,2.65,0,0,1,0-2.09,4.23,4.23,0,0,1,1.27-1.57,8.62,8.62,0,0,1,1.91-1.14c.71-.31,1.35-.57,1.93-.78l.51-.19a3.62,3.62,0,0,0,.45-.2l-.27-.66a12.94,12.94,0,0,0-1-2.14,4.65,4.65,0,0,0-1-1.19,2,2,0,0,0-1-.42,2.78,2.78,0,0,0-1.11.18,2.4,2.4,0,0,0-.75.4,4,4,0,0,1,1.15,1.63,1.93,1.93,0,0,1,0,1.56,1.65,1.65,0,0,1-1,.92,1.76,1.76,0,0,1-1.39-.06,1.81,1.81,0,0,1-.9-1.06,2.06,2.06,0,0,1-.11-1,2.35,2.35,0,0,1,.42-1.07,4.37,4.37,0,0,1,1-1A7,7,0,0,1,228,280a8.07,8.07,0,0,1,2.52-.51,6.06,6.06,0,0,1,2.17.35,4.74,4.74,0,0,1,1.73,1.12,5.46,5.46,0,0,1,1.2,1.8l1.93,4.54a1.39,1.39,0,0,0,.45.62.58.58,0,0,0,.55.07,1.33,1.33,0,0,0,.52-.46,3.94,3.94,0,0,0,.47-.87,1.83,1.83,0,0,1,.14.93,2.8,2.8,0,0,1-.31,1,3.44,3.44,0,0,1-.68.86,3.06,3.06,0,0,1-.95.6,2.69,2.69,0,0,1-1.81.09,3.13,3.13,0,0,1-1.5-1,4.13,4.13,0,0,1-.77,2,3.66,3.66,0,0,1-1.8,1.28,5.55,5.55,0,0,1-3.68.27A3.11,3.11,0,0,1,226.2,290.75Zm2.85-16,.32-.12a3.12,3.12,0,0,1,.11,1.46,1.71,1.71,0,0,1-.25.66,1.08,1.08,0,0,1-.54.42,1.72,1.72,0,0,1-.55.1,4.74,4.74,0,0,1-.55,0l-.54,0a1.56,1.56,0,0,0-.46.06.59.59,0,0,0-.37.31,1.65,1.65,0,0,0-.09.43l-.33.11a4,4,0,0,1-.08-.67,2.66,2.66,0,0,1,.05-.75A2.34,2.34,0,0,1,226,276a1,1,0,0,1,.52-.42,1.31,1.31,0,0,1,.53-.07l.57,0,.54,0a1.06,1.06,0,0,0,.48-.07.5.5,0,0,0,.36-.33A.94.94,0,0,0,229.05,274.74Zm3.38,16.54a1.45,1.45,0,0,0,.66-.45,2.53,2.53,0,0,0,.43-.68,3.41,3.41,0,0,0,.23-.75,6.86,6.86,0,0,0,.11-.71c-.54-1.32-.8-2-1.34-3.31l-1,.39a6.42,6.42,0,0,0-.62.28,1.8,1.8,0,0,0-.94,1.41,4.29,4.29,0,0,0,.31,2.24,2.53,2.53,0,0,0,1.05,1.49A1.34,1.34,0,0,0,232.43,291.28Z" transform="translate(-1.53 -2.14)"/><path class="cls-4" d="M242.46,274.14a7.54,7.54,0,0,1,2.59-.7,5.63,5.63,0,0,1,2.39.3,6.07,6.07,0,0,1,2.1,1.28,8.13,8.13,0,0,1,1.69,2.22,7.53,7.53,0,0,1,.87,2.63,5.33,5.33,0,0,1-.23,2.4,5.41,5.41,0,0,1-1.32,2.06,7.83,7.83,0,0,1-2.35,1.56,8,8,0,0,1-2.76.74,5.66,5.66,0,0,1-4.54-1.71,8.61,8.61,0,0,1-2.25-5,5.75,5.75,0,0,1,.31-2.36,5.41,5.41,0,0,1,1.28-2A7.51,7.51,0,0,1,242.46,274.14Zm5.47,11.2a1.72,1.72,0,0,0,.67-.57,2.22,2.22,0,0,0,.3-1.15,6.67,6.67,0,0,0-.3-1.86,16,16,0,0,0-1.12-2.73,16.92,16.92,0,0,0-1.52-2.54,7.59,7.59,0,0,0-1.32-1.4,2.39,2.39,0,0,0-1.07-.51,1.63,1.63,0,0,0-.84.11,1.5,1.5,0,0,0-.63.55,2.12,2.12,0,0,0-.28,1.12,6.92,6.92,0,0,0,.28,1.86,16.1,16.1,0,0,0,1.07,2.75,15.85,15.85,0,0,0,1.46,2.58,7.05,7.05,0,0,0,1.31,1.41,2.39,2.39,0,0,0,1.1.51A1.73,1.73,0,0,0,247.93,285.34Z" transform="translate(-1.53 -2.14)"/><path class="cls-22" d="M159.91,195.48a6.58,6.58,0,1,0,6.71,6.57A6.64,6.64,0,0,0,159.91,195.48Zm5,5.74h-4.14v-4A5,5,0,0,1,164.88,201.22Zm-5.8-4v4H155A5,5,0,0,1,159.08,197.21ZM155,202.89h4.13v4A5,5,0,0,1,155,202.89Zm5.79,4v-4h4.14A5,5,0,0,1,160.74,206.9Z" transform="translate(-1.53 -2.14)"/></svg>