<svg xmlns="http://www.w3.org/2000/svg" viewBox="0 0 820.28 820.27"><defs><style>.cls-1{fill:#fff;}.cls-2{fill:#4f5737;}</style></defs><g id="Layer_2" data-name="Layer 2"><g id="Layer_1-2" data-name="Layer 1"><circle class="cls-1" cx="409.82" cy="406.66" r="359.25"/><path class="cls-2" d="M410.14,820.27C184,820.27,0,636.28,0,410.14S184,0,410.14,0,820.28,184,820.28,410.14,636.28,820.27,410.14,820.27ZM548.43,243.73a30.35,30.35,0,1,0,30.35,30.35A30.35,30.35,0,0,0,548.43,243.73ZM413.51,282.65a127.49,127.49,0,0,0,0,255c70.29,0,127.48-57.2,127.48-127.49A127.63,127.63,0,0,0,413.51,282.65Zm0,209.15a81.66,81.66,0,1,1,81.66-81.66A81.76,81.76,0,0,1,413.51,491.8ZM670.75,304.18A155.5,155.5,0,0,0,515.24,148.69H310a155.5,155.5,0,0,0-155.5,155.49V509.43A155.49,155.49,0,0,0,310,664.92H515.24A155.49,155.49,0,0,0,670.75,509.43Zm-48.7,205.25A106.8,106.8,0,0,1,515.24,616.22H310a106.8,106.8,0,0,1-106.8-106.79V304.18A106.8,106.8,0,0,1,310,197.39H515.24A106.8,106.8,0,0,1,622.05,304.18Z"/></g></g></svg>