<?xml version="1.0" encoding="utf-8"?>
<!-- Generator: Adobe Illustrator 25.2.1, SVG Export Plug-In . SVG Version: 6.00 Build 0)  -->
<svg version="1.1" id="Layer_1" xmlns="http://www.w3.org/2000/svg" xmlns:xlink="http://www.w3.org/1999/xlink" x="0px" y="0px"
	 viewBox="0 0 919.5 230.5" style="enable-background:new 0 0 919.5 230.5;" xml:space="preserve">
<style type="text/css">
	.st0{fill-rule:evenodd;clip-rule:evenodd;fill:#FFFFFF;}
	.st1{display:none;fill-rule:evenodd;clip-rule:evenodd;fill:#221F20;}
</style>
<g id="surface1">
	<path class="st0" d="M287.1,125.7c10-8.4,9.9-23.6,3-27.9s-22.4-0.9-27.4,11.6c-5,12.5-5.5,20.1-8.2,26.9
		C260.3,135.8,277.2,134.1,287.1,125.7z M221.8,173.8c9.8-29.8,19.1-60,26.2-91.2c5.5,0,11.8,0.1,17.3,0.1l-2.1,11.8
		c14-9.1,23.1-11.4,32.3-10.7c33.1,2.7,15.3,46.2-2.2,56.6c-10.3,6.1-24.2,8.9-43.4,6.1c-2.3,9.1-4.5,18.1-6.8,27.2
		C236,173.8,228.9,173.8,221.8,173.8"/>
	<path class="st0" d="M346.3,105c-8.7,8.4-8.6,23.6-2.6,27.9c6,4.4,19.4,0.9,23.8-11.6c4.4-12.5,4.8-20.1,7.2-26.9
		C369.6,94.8,355,96.6,346.3,105z M383.6,148.2c-6.2,0-11.7,0.1-17.9,0.1l1.2-13.5c-12.8,12.1-33.5,20.1-43.1,8.7
		c-13-17.8-0.7-41,14-50.5c16.3-10.6,38-10,59.5-10.5C389.6,104.1,384.4,126.1,383.6,148.2"/>
	<path class="st0" d="M423.5,105c-8.7,8.4-8.6,23.6-2.6,27.9s19.5,0.9,23.8-11.6c4.4-12.5,4.8-20.1,7.2-26.9
		C446.8,94.8,432.2,96.6,423.5,105z M390.7,174.3l3.1-16.6c13.9,4.5,26,6.7,35.1,2.1c7.1-3.5,12.3-11.1,15.2-24.9
		c-12.8,12.1-33.5,20.1-43.1,8.7c-13-17.8-0.7-41,14-50.5c16.3-10.6,38-10,59.5-10.5c-6.7,18.6-6.8,47.7-15.7,68.4
		c-4.7,10.9-12.6,18-22,22C423.1,178.9,406,178.4,390.7,174.3"/>
	<path class="st0" d="M637.2,105c-8.7,8.4-8.6,23.6-2.6,27.9c6,4.4,19.5,0.9,23.8-11.6c4.4-12.5,4.7-20.1,7.2-26.9
		C660.5,94.8,645.9,96.6,637.2,105z M477.8,131.9c-2.1,4.5-4.4,9.2-6.5,13.7c25.3,5.5,44.7,2.2,52.3-6c7.5-9.2,6.2-19.6-6.7-27.2
		c-2.8-1.9-10.6-5.8-10.4-10.4c0.4-10.4,16.2-7.9,25.9-4.9l3.1-14.2c-6.8-1.6-15.4-2-22.3-1.4c-8.4,0.8-17.5,4.5-24.5,11.5
		c-5.5,5.7-6.6,13.3-4.6,18c2.4,5.6,10.2,7.9,14.2,10.3c6.6,3.1,10.6,5.4,9.5,10.1c-0.9,4-5.8,7.2-14.4,5.7
		C488,136.1,481.8,134.2,477.8,131.9z M561.1,110.1c3.1-6.9,8.4-13.9,19.2-15.3c8.5-0.8,9.4,8.1,4.4,11.5
		C575.6,110.3,574.6,104.9,561.1,110.1z M596.2,133.2c-0.5,4.3-2.1,8.6-2.6,13c-20.1,2.8-41.7,7.4-52.8-8.3
		c-11.5-22.2,5.1-42.6,19.7-50.2c25.6-11.5,43.4-5.6,47.1,5.7c7.6,19.9-15.9,33-49.7,29C554.3,139.6,572,139.3,596.2,133.2z
		 M702.4,82.4c6.2,0.2,12.4,0.3,18.6,0.5c-3.3,13.8-8.6,27.1-11.9,40.9c-4.9,16.8,15.2,15.1,23.8,4.7c7.7-13.5,11.1-29.8,16.1-46.1
		c6.2,0,12.4,0,18.6,0c-7,21.6-13.2,43.2-16.1,64.8c-5.5-0.3-12.1-0.7-17.6-1c0.2-3.5,0.3-6.9,0.5-10.4
		c-18.7,17.2-49.4,21.7-45.6-7.3C691.1,113.2,697.4,97.8,702.4,82.4z M763,146.1c8.3-21.2,13.9-48.2,18.1-63.2h15l-0.5,13.5
		c6.6-9.1,18.5-14.1,30.6-13.5l-5.7,17.1c-15-2-25.6,10.1-31.5,29.9c-1.5,5.1-2.7,10.6-3.6,16.6L763,146.1z M839.7,91
		c-19,12.7-26.6,34.2-17,47.9c9.6,13.7,32.8,14.5,51.8,1.8c19-12.7,26.6-34.2,17-47.9C881.9,79,858.7,78.2,839.7,91z M845.1,110.5
		c-6.1,11-5.4,22.6,1.7,26c7.1,3.4,17.8-2.8,23.9-13.7c6.1-11,5.4-22.6-1.7-26C862,93.4,851.3,99.5,845.1,110.5z M604.4,174.3
		l3.1-16.6c13.9,4.5,26,6.7,35.1,2.1c7.1-3.5,12.3-11.1,15.2-24.9c-12.8,12.1-33.5,20.1-43,8.7c-13-17.8-0.7-41,14-50.5
		c16.3-10.6,38-10,59.5-10.5c-6.7,18.6-6.8,47.7-15.7,68.4c-4.7,10.9-12.5,18-22,22C636.8,178.9,619.7,178.4,604.4,174.3"/>
	<path class="st1" d="M48,59.6c-6.5,7.6-11.4,16.3-14.9,25.7c-3.8,9.9-5.8,20-5.8,30.8c0,12.2,2.6,23.6,7.1,34.3
		c4.5,10.6,10.6,19.8,18.6,27.8c7.8,7.8,17,14.1,27.6,18.6c10.6,4.6,22.1,7.2,34.1,7.2c12.2,0,23.5-2.4,34.3-7.2
		c10.3-4.5,19.6-10.7,27.6-18.6c7.9-7.9,14-17.2,18.3-27.8c4.6-10.8,7.2-22,7.2-34.3c0-10.8-2-20.9-5.8-30.8
		c-3.7-9.5-8.5-17.9-14.9-25.7c-6.4-7.6-13.9-13.9-22.3-18.8c-13.3-7.7-26.9-12.2-42.8-12.2c-0.8,0-1.5,0-2.3,0
		c-15.6,0-30,4.5-43.5,12.2C62,45.6,54.5,52,48,59.6"/>
	<path class="st0" d="M835.4,178.1c2.2,0,4,0.7,5.3,2.3c1.3,1.5,2,3.4,2,6c0,2.4-0.7,4.4-2,5.8c-1.3,1.5-3.1,2.2-5.3,2.2
		c-2.2,0-3.9-0.7-5.2-2.2c-1.4-1.4-2-3.5-2-5.8c0-2.6,0.6-4.5,2-6C831.5,178.9,833.2,178.1,835.4,178.1z M835.4,163.7
		c-3.2,0-6.2,0.5-9.1,1.7c-2.8,1.2-5.3,2.7-7.4,4.9c-2.1,2.1-3.8,4.5-4.9,7.2c-1.1,2.8-1.7,5.8-1.7,9c0,3.1,0.5,6.1,1.7,8.8
		c1.1,2.6,2.7,5.1,4.9,7.2c2.2,2,4.7,3.7,7.5,4.8c2.7,1.1,5.8,1.7,9,1.7c3.3,0,6.2-0.6,9.1-1.7c2.7-1.1,5.3-2.8,7.4-4.8
		c2.2-2.1,3.8-4.6,4.9-7.3c1.1-2.7,1.7-5.6,1.7-8.7c0-3.2-0.5-6.2-1.7-9c-1.1-2.7-2.6-5.1-4.9-7.2c-2.1-2.1-4.7-3.7-7.5-4.9
		C841.6,164.2,838.6,163.7,835.4,163.7"/>
	<path class="st0" d="M805.2,195.7c0.4-2.1,0.5-4.6,0.5-7.7v-23.4h-15.5v23.6c0,2.6-0.3,4.5-1,5.6c-0.7,1.1-1.7,1.6-3.4,1.6
		c-1.6,0-2.6-0.5-3.3-1.6c-0.6-1-1-2.9-1-5.6v-23.6h-15.4V188c-0.1,3.3,0.2,5.8,0.5,7.7c0.3,2,1,3.6,1.8,4.9
		c1.8,2.7,4.1,4.7,7.1,6.2c2.9,1.5,6.4,2.2,10.2,2.2c3.9,0,7.3-0.7,10.2-2.2c3-1.4,5.4-3.4,7.1-6.2
		C804.1,199.3,804.8,197.6,805.2,195.7"/>
	<path class="st0" d="M880.5,164.6H865v43.2h30.6v-14h-15.1V164.6"/>
	<path class="st0" d="M173.1,60.3c-10.8-13.2-24.8-21.6-42.1-24.9c-17-3.2-33-0.6-48.3,7.6c-7.8,4.4-14.4,9.9-19.8,16.3
		c-5.5,6.6-9.7,14.2-12.4,22.8C47.8,90.9,47.1,100,48,109c2.3-5.8,5.8-11,9.9-16.1c6-7.1,13.4-12.4,21.6-16.4
		c8.2-3.7,17.3-5.8,26.7-6c9.4,0,18.6,1.8,27.1,5.6c9,3.6,16.8,9.2,23.5,16.6c2.5,2.5,4.6,5.5,6.6,8.5c3,0,6,0.2,8.5,0.9
		c6.7,1.8,12,5.3,16.1,10.4l0.2-3.3c0.7-9-0.2-17.4-2.7-25.7C183,75.2,178.8,67.4,173.1,60.3"/>
	<path class="st0" d="M46.2,143c1.1,6.9,3.2,13.5,6.7,19.5c3.2,6,7.6,11.4,13.1,16.3l2.8,2.3c9.5,6.5,19.5,11.1,30.6,13.4
		c7.1,1.3,14.3,0.9,21.2-0.7c7.3-1.6,14.2-4.6,20.7-9c-6-1.4-11.3-4.6-15.4-9.4l-1.6-1.8c-8.7,0.9-17.4,0.6-26.2-1.1
		c-11.1-2.6-20.7-7.2-29.6-13.6c-8.5-6.5-15.6-14.7-21-24.4l-1.4-2.8C45.7,135.4,45.7,139.3,46.2,143"/>
	<path class="st0" d="M128,85.1c-8-3.5-16.8-5-25.7-5c-8.7,0.2-17,2.1-24.6,5.8c-7.6,3.4-14.2,8.5-19.7,14.9
		c-3.9,4.8-7.1,10.1-9.2,15.6c1.6,6.9,4.1,13.3,7.8,19.8c5.3,9,12.1,16.6,20.7,22.5c8.2,6,17.7,9.9,27.8,12.1
		c6.2,1.1,12.7,1.6,19.1,1.4c-2.5-4.1-4.1-8.4-4.8-13.5c-0.9-5.1-0.6-10.2,0.3-15.6c1.1-6.7,3.6-12.9,7.1-18.6
		c3.7-5.8,8.6-11,14.2-15.2c3.7-2.7,7.6-4.8,11.5-6.4l-2.1-2.3C143.9,93.8,136.5,88.5,128,85.1"/>
	<path class="st0" d="M189.4,124.4l-2-3.5c-3,10.4-8.6,19.6-15.6,27.9c-1.6,6.9-4.4,13.1-8,18.8c-3.7,5.7-8.5,10.8-14.1,15.1
		c3.9,0.2,7.8-0.4,11.7-1.9c3.7-1.3,7.1-3.4,10.6-6.2c4.6-4.3,9-9.4,12.7-14.7l0.6-0.9c1.6-3.4,3.3-6.9,4.4-10.1
		c1.1-3.5,1.9-6.9,2.1-10.1c0.2-3.5,0.2-6.5-0.4-9.5C190.8,127.6,190.1,126,189.4,124.4"/>
	<path class="st0" d="M38.1,83.9c-3,8.3-4.6,17-5,26.5c-0.2,12.1,2.1,23.9,6.7,34.9c2.3,5.2,5.1,10.4,8.4,15.2
		c3.3,4.5,6.9,9,11,12.8c-8.9-9.9-14.2-21.3-15.8-34.2c-0.4-4.4-0.4-8.5-0.2-12.9c-3-8.3-4.6-16.6-4.6-25.1c0-8,1.4-15.9,3.9-23.9
		c2.1-5.5,4.8-10.8,7.8-15.6C45,68.5,41.1,75.9,38.1,83.9"/>
	<path class="st0" d="M195.1,88.8c-2.1-6.7-4.8-13.2-8.3-19.1c-3.4-5.8-7.6-11-12.6-15.8c-4.6-4.8-9.9-9-15.9-12.4
		c5,3.5,9.7,7.6,13.8,12.2c6.5,7.3,11.3,15.1,14.3,23.9c3,8.9,4.3,18.2,3.6,27.8c-0.2,3-0.6,5.8-1.1,8.7c1.1,1.8,2.3,4.1,3.3,6.5
		c2.3,6.7,2.7,13.8,1.6,20.9c3.5-9.9,5.3-20.3,5-31C198.4,103,197.3,95.7,195.1,88.8"/>
	<path class="st0" d="M168,110.6c2.3,4.8,3.7,10.1,4.3,15.4c0.7,5.3,0.9,10.4,0.5,15.4l-0.9,5.1c6.9-8,11.5-17,14.2-27.4
		c-1.6-1.6-3.2-3.2-5.1-4.5C177.4,112,173.1,110.6,168,110.6"/>
	<path class="st0" d="M154.2,171.3c2.8-3.9,5-8.2,6.7-12.6c-9.2,6.6-19.3,11.2-30.4,13.5c1.6,2.6,3.7,4.6,6,6.3
		c2.3,1.6,4.8,2.7,7.8,3.6C148.1,178.9,151.5,175.2,154.2,171.3"/>
	<path class="st0" d="M108,195.9l9.9,0.5c8.5-0.2,16.5-1.8,24.4-4.4c7.3-2.5,14.5-6,20.7-10.3c-3.9,1.9-8,3.2-12.4,3.4
		c-1.4,0.3-3,0.3-4.6,0.3C134.7,192.7,122,196.1,108,195.9"/>
	<path class="st0" d="M162.8,129.2c-1.4-6-3.5-11.5-6.5-16.8c-5.3,1.6-9.9,4.3-14.2,8c-4.6,3.9-8.5,8.7-11.5,14.2
		c-2.6,5.5-4.1,10.8-4.6,16.3c-0.6,5.3,0,10.1,1.4,14.7c0.6,1.6,1.1,3,2.1,4.3c5.8-0.6,11-2.3,16.3-4.6c5.5-2.1,10.6-5,15.4-8.7
		l0.4-0.3c0.9-3.4,1.6-6.9,2.1-10.3C164.1,140.5,163.9,135,162.8,129.2"/>
</g>
</svg>
