<?xml version="1.0" encoding="utf-8"?>
<!-- Generator: Adobe Illustrator 25.2.1, SVG Export Plug-In . SVG Version: 6.00 Build 0)  -->
<svg version="1.1"
	 id="svg859" xmlns:cc="http://creativecommons.org/ns#" xmlns:dc="http://purl.org/dc/elements/1.1/" xmlns:rdf="http://www.w3.org/1999/02/22-rdf-syntax-ns#" xmlns:svg="http://www.w3.org/2000/svg"
	 xmlns="http://www.w3.org/2000/svg" xmlns:xlink="http://www.w3.org/1999/xlink" x="0px" y="0px" viewBox="0 0 674 238.9"
	 style="enable-background:new 0 0 674 238.9;" xml:space="preserve">
<style type="text/css">
	.st0{fill:none;stroke:#FFFFFF;stroke-width:8.437;stroke-linecap:round;stroke-linejoin:round;stroke-miterlimit:28.3465;}
	.st1{fill:#FFFFFF;}
</style>
<g id="layer1" transform="translate(-535.59399,-20.808825)">
	<path id="path2356" class="st0" d="M812.9,243.8v-137c0-25.2,20.4-45.6,45.6-45.6l40.4,0.1c25.1,0,45.5,20.4,45.5,45.6V136
		c0,25.2-20.4,45.6-45.6,45.6h-57.2"/>
	<path id="path2360" class="st0" d="M955.8,61.2h17.5c10.3,0,18.7,8.4,18.7,18.7v102.3"/>
	<path id="path2364" class="st1" d="M988.3,45.3l-8-8c-2-2-2-5.2,0-7.1l8-8c2-2,5.2-2,7.2,0l8,8c2,2,2,5.2,0,7.1l-8,8
		C993.4,47.3,990.2,47.3,988.3,45.3"/>
	<path id="path2368" class="st0" d="M1025.7,61.1h17.4c9,0,17.5,3.6,23.9,9.9l40.7,40.7c5.3,5.3,13.8,5.3,19.1,0l40.5-40.5
		c6.3-6.3,14.9-9.9,23.9-9.9h14.1"/>
	<path id="path2372" class="st0" d="M1025.7,181.4h17.4c9,0,17.5-3.6,23.9-9.9l40.7-40.7c5.3-5.3,13.8-5.3,19.1,0l40.5,40.5
		c6.3,6.3,14.9,9.9,23.9,9.9h14.1"/>
	<path id="path2376" class="st1" d="M709.2,207.4c-8.7,0-16.9-3.4-23.1-9.6l-33.4-33.4c-2.3-2.4-6.4-2.3-8.8,0l-33.5,33.5
		c-6.2,6.2-14.4,9.6-23.1,9.6h-6.6l42.3,42.3c13.2,13.2,34.6,13.2,47.8,0l42.4-42.4H709.2z"/>
	<path id="path2380" class="st1" d="M587.3,89.3c8.7,0,16.9,3.4,23.1,9.6l33.5,33.5c2.4,2.4,6.4,2.4,8.8,0L686,99
		c6.2-6.2,14.4-9.6,23.1-9.6h4L670.8,47c-13.2-13.2-34.6-13.2-47.8,0l-42.3,42.3L587.3,89.3z"/>
	<path id="path2384" class="st1" d="M748.3,124.5l-25.6-25.6c-0.6,0.2-1.2,0.4-1.8,0.4h-11.7c-6,0-11.9,2.4-16.2,6.7l-33.4,33.4
		c-3.1,3.1-7.2,4.7-11.3,4.7c-4.1,0-8.2-1.6-11.3-4.7l-33.5-33.5c-4.3-4.3-10.2-6.7-16.2-6.7h-14.3c-0.6,0-1.2-0.1-1.7-0.3
		l-25.7,25.7c-13.2,13.2-13.2,34.6,0,47.8l25.7,25.7c0.5-0.2,1.1-0.3,1.7-0.3h14.3c6,0,11.9-2.4,16.2-6.7l33.5-33.5
		c6.1-6.1,16.6-6.1,22.7,0l33.4,33.4c4.3,4.3,10.2,6.7,16.2,6.7h11.7c0.6,0,1.3,0.1,1.8,0.4l25.6-25.6
		C761.5,159.1,761.5,137.7,748.3,124.5"/>
	<path id="path2388" class="st1" d="M847.7,232.2c-1.9,0-4.1,0.5-6.3,1v8.3c1.5,0.6,3.2,0.8,4.9,0.8c4.2,0,6.2-1.4,6.2-5.1
		C852.5,233.8,850.8,232.2,847.7,232.2 M840,247.7v-16.5h1.1l0.1,0.7c1.9-0.5,4.6-1.1,6.5-1.1c1.6,0,3,0.2,4.3,1.2
		c1.4,1.2,1.9,3.1,1.9,5.1c0,2.2-0.7,4.2-2.7,5.3c-1.4,0.8-3.2,1.1-4.9,1.1c-1.7,0-3.3-0.3-5-0.8v4.9H840z"/>
	<path id="path2392" class="st1" d="M864.5,232.1c-4.2,0-6.1,1.3-6.1,5c0,3.6,1.8,5.2,6.1,5.2c4.2,0,6-1.3,6-5
		C870.5,233.8,868.7,232.1,864.5,232.1 M869.9,242.3c-1.4,1-3.3,1.3-5.4,1.3c-2.2,0-4-0.3-5.4-1.3c-1.5-1.1-2.2-2.8-2.2-5.1
		c0-2.2,0.6-4,2.2-5.1c1.4-1,3.2-1.3,5.4-1.3c2.2,0,4,0.3,5.4,1.3c1.6,1.1,2.2,2.9,2.2,5.1C872,239.4,871.4,241.2,869.9,242.3"/>
	<path id="path2396" class="st1" d="M889.7,243.3l-4.7-10h-0.1l-4.6,10h-1.3l-5-12.1h1.6l4.1,10.1h0.1l4.5-10.1h1.3l4.6,10.1h0.1
		l4-10.1h1.5l-5,12.1H889.7z"/>
	<path id="path2400" class="st1" d="M904.9,232.1c-3.9,0-5.2,1.7-5.4,4.2h10.9C910.3,233.6,908.8,232.1,904.9,232.1 M904.9,243.6
		c-2.3,0-3.8-0.3-5-1.3c-1.4-1.2-1.9-3-1.9-5c0-1.9,0.6-4,2.3-5.2c1.3-0.9,3-1.2,4.7-1.2c1.6,0,3.4,0.2,4.8,1.2
		c1.7,1.2,2.1,3.2,2.1,5.6h-12.4c0,2.5,0.9,4.7,5.5,4.7c2.2,0,4.3-0.4,6.2-0.7v1.3C909.3,243.2,907,243.6,904.9,243.6"/>
	<path id="path2404" class="st1" d="M915.9,243.3v-12.1h1.1l0.1,0.7c2.6-0.6,3.8-1.1,6-1.1h0.2v1.3H923c-1.9,0-3,0.3-5.7,1v10.1
		L915.9,243.3z"/>
	<path id="path2408" class="st1" d="M931.6,232.1c-3.9,0-5.2,1.7-5.4,4.2H937C936.9,233.6,935.4,232.1,931.6,232.1 M931.5,243.6
		c-2.3,0-3.8-0.3-5-1.3c-1.4-1.2-1.9-3-1.9-5c0-1.9,0.6-4,2.3-5.2c1.3-0.9,3-1.2,4.7-1.2c1.6,0,3.4,0.2,4.8,1.2
		c1.7,1.2,2.1,3.2,2.1,5.6h-12.4c0,2.5,0.9,4.7,5.5,4.7c2.2,0,4.3-0.4,6.2-0.7v1.3C935.9,243.2,933.6,243.6,931.5,243.6"/>
	<path id="path2412" class="st1" d="M953.9,233c-1.5-0.6-3.2-0.8-4.9-0.8c-4.2,0-6.2,1.4-6.2,5.1c0,3.5,1.6,5,4.8,5
		c1.9,0,4.1-0.5,6.3-0.9V233z M954.2,243.3l-0.1-0.7c-1.9,0.5-4.6,1.1-6.5,1.1c-1.6,0-3-0.2-4.3-1.2c-1.4-1.2-1.9-3.1-1.9-5.1
		c0-2.2,0.7-4.2,2.7-5.3c1.4-0.8,3.2-1.1,4.9-1.1c1.7,0,3.3,0.3,5,0.8v-5.5h1.4v17.2L954.2,243.3z"/>
	<path id="path2416" class="st1" d="M976,232.2c-1.9,0-4.1,0.5-6.3,1v8.3c1.5,0.6,3.2,0.8,4.9,0.8c4.2,0,6.2-1.4,6.2-5.1
		C980.8,233.8,979.2,232.2,976,232.2 M979.6,242.5c-1.4,0.8-3.2,1.1-4.9,1.1c-1.8,0-3.6-0.3-5.4-0.9l-0.1,0.6h-1v-17.2h1.4v5.8
		c1.9-0.4,4.5-1,6.4-1c1.6,0,3,0.2,4.3,1.2c1.4,1.2,1.9,3.1,1.9,5.1C982.3,239.4,981.6,241.4,979.6,242.5"/>
	<path id="path2420" class="st1" d="M984.2,247.9v-1.3c0.7,0.1,1.3,0.1,1.8,0.1c1.7,0,2.8-0.5,3.8-2.5l0.5-1l-6.3-12.1h1.6l5.4,10.4
		h0.1l5.1-10.4h1.6l-6.8,13.6c-1.2,2.5-2.6,3.3-5,3.3C985.4,248,984.8,248,984.2,247.9"/>
	<path id="path2424" class="st1" d="M1017.2,236.4h-4.7v4.2h4.7c3.2,0,4.5-0.4,4.5-2.1C1021.7,236.6,1020,236.4,1017.2,236.4
		 M1016.4,229.5h-3.8v4.3h3.9c3.2,0,4.4-0.4,4.4-2.2C1020.9,229.7,1019.3,229.5,1016.4,229.5 M1023.7,242.1
		c-1.7,1.1-3.8,1.1-7.6,1.1h-7.2v-16.4h7c3.3,0,5.3,0,7,1.1c1.2,0.7,1.7,1.8,1.7,3.3c0,1.7-0.7,2.9-2.6,3.6v0.1
		c2.1,0.5,3.5,1.6,3.5,3.9C1025.4,240.4,1024.8,241.4,1023.7,242.1"/>
	<path id="path2428" class="st1" d="M1039.7,238.2c-1.4-0.1-2.8-0.2-4.4-0.2c-2.5,0-3.3,0.5-3.3,1.6c0,1.1,0.7,1.6,2.6,1.6
		c1.6,0,3.5-0.4,5.1-0.7L1039.7,238.2z M1040.4,243.3l-0.1-0.7c-2.1,0.5-4.4,1.1-6.6,1.1c-1.3,0-2.7-0.2-3.7-0.9
		c-0.9-0.6-1.3-1.7-1.3-2.9c0-1.4,0.6-2.6,2-3.3c1.3-0.6,3-0.6,4.5-0.6c1.3,0,3,0.1,4.4,0.2v-0.2c0-1.9-1.2-2.5-4.6-2.5
		c-1.3,0-2.9,0.1-4.5,0.2v-2.4c1.7-0.1,3.6-0.2,5.2-0.2c2.1,0,4.3,0.2,5.6,1.1c1.4,1,1.7,2.3,1.7,4.1v7.2L1040.4,243.3z"/>
	<path id="path2432" class="st1" d="M1058.9,243.3v-6.7c0-2.2-1.1-3-3.1-3c-1.5,0-3.3,0.4-4.9,0.8v8.9h-3.4v-12.1h2.8l0.1,0.8
		c2.1-0.5,4.5-1.1,6.5-1.1c1.5,0,3,0.2,4.1,1.2c1,0.9,1.3,2.1,1.3,3.8v7.4L1058.9,243.3z"/>
	<path id="path2436" class="st1" d="M1071.7,243.6c-1.6,0-3.3-0.2-4.5-1.3c-1.5-1.2-1.9-3.1-1.9-5.1c0-1.9,0.6-4,2.5-5.2
		c1.5-1,3.4-1.2,5.3-1.2c1.4,0,2.8,0.1,4.3,0.2v2.6c-1.2-0.1-2.7-0.2-3.9-0.2c-3.2,0-4.7,1-4.7,3.8c0,2.6,1.1,3.7,3.8,3.7
		c1.5,0,3.3-0.3,5.1-0.6v2.5C1075.7,243.2,1073.7,243.6,1071.7,243.6"/>
	<path id="path2440" class="st1" d="M1087.6,233.4c-3.2,0-4.6,1-4.6,3.8c0,2.8,1.4,3.9,4.6,3.9c3.2,0,4.6-1,4.6-3.7
		C1092.2,234.6,1090.8,233.4,1087.6,233.4 M1093.4,242.3c-1.5,1-3.4,1.3-5.8,1.3c-2.4,0-4.4-0.3-5.8-1.3c-1.7-1.1-2.3-2.9-2.3-5.1
		c0-2.2,0.6-4,2.3-5.1c1.5-1,3.4-1.3,5.8-1.3c2.4,0,4.3,0.3,5.8,1.3c1.7,1.1,2.2,2.9,2.2,5.1C1095.6,239.4,1095,241.2,1093.4,242.3"
		/>
	<path id="path2444" class="st1" d="M1115.1,243.6c-2,0-4.2-0.3-5.9-1.7c-2-1.6-2.6-4.1-2.6-6.8c0-2.4,0.8-5.3,3.3-7
		c2-1.3,4.4-1.6,6.9-1.6c1.8,0,3.7,0.1,5.7,0.3v2.9c-1.7-0.1-3.9-0.3-5.6-0.3c-4.7,0-6.7,1.8-6.7,5.5c0,3.9,1.8,5.6,5.3,5.6
		c2.2,0,4.8-0.5,7.3-1v2.9C1120.5,243.1,1117.8,243.6,1115.1,243.6"/>
	<path id="path2448" class="st1" d="M1132.9,233c-2.8,0-3.9,1-4.1,2.8h8.1C1136.9,233.9,1135.7,233,1132.9,233 M1132.4,243.6
		c-2,0-3.8-0.2-5.1-1.3c-1.4-1.2-1.9-3-1.9-5c0-1.8,0.6-3.9,2.3-5.1c1.5-1.1,3.4-1.3,5.3-1.3c1.7,0,3.8,0.2,5.2,1.2
		c1.9,1.4,2.1,3.5,2.1,6h-11.5c0.1,1.8,1.1,3,4.4,3c2.1,0,4.4-0.3,6.4-0.6v2.4C1137.4,243.2,1134.8,243.6,1132.4,243.6"/>
	<path id="path2452" class="st1" d="M1155.3,243.3v-6.7c0-2.2-1.1-3-3.1-3c-1.5,0-3.3,0.4-4.9,0.8v8.9h-3.4v-12.1h2.8l0.1,0.8
		c2.1-0.5,4.5-1.1,6.5-1.1c1.5,0,3,0.2,4.1,1.2c1,0.9,1.3,2.1,1.3,3.8v7.4L1155.3,243.3z"/>
	<path id="path2456" class="st1" d="M1168.2,243.6c-1.6,0-3.1-0.5-3.9-1.7c-0.6-0.9-0.9-2-0.9-3.7v-4.5h-2.4v-2.5h2.4l0.4-3.7h3v3.7
		h4.8v2.5h-4.8v3.9c0,0.9,0.1,1.7,0.3,2.3c0.4,0.8,1.1,1.1,2.2,1.1c0.8,0,1.7-0.1,2.4-0.2v2.4
		C1170.6,243.4,1169.4,243.6,1168.2,243.6"/>
	<path id="path2460" class="st1" d="M1174.8,243.3v-12.1h2.8l0.1,0.8c2.2-0.6,3.9-1.1,6-1.1c0.1,0,0.2,0,0.4,0v2.9
		c-0.4,0-0.8,0-1.2,0c-1.7,0-2.9,0.2-4.7,0.6v8.9L1174.8,243.3z"/>
	<path id="path2464" class="st1" d="M1196.4,238.2c-1.4-0.1-2.8-0.2-4.4-0.2c-2.5,0-3.3,0.5-3.3,1.6c0,1.1,0.7,1.6,2.6,1.6
		c1.6,0,3.5-0.4,5.1-0.7L1196.4,238.2z M1197.1,243.3l-0.1-0.7c-2.1,0.5-4.5,1.1-6.6,1.1c-1.3,0-2.7-0.2-3.7-0.9
		c-0.9-0.6-1.3-1.7-1.3-2.9c0-1.4,0.6-2.6,2-3.3c1.3-0.6,3-0.6,4.5-0.6c1.3,0,3,0.1,4.4,0.2v-0.2c0-1.9-1.2-2.5-4.6-2.5
		c-1.3,0-2.9,0.1-4.5,0.2v-2.4c1.7-0.1,3.6-0.2,5.2-0.2c2.1,0,4.3,0.2,5.6,1.1c1.4,1,1.7,2.3,1.7,4.1v7.2L1197.1,243.3z"/>
	<path id="path2466" class="st1" d="M1204.1,226.1h3.4v17.2h-3.4V226.1z"/>
</g>
</svg>
