<svg xmlns="http://www.w3.org/2000/svg" viewBox="0 0 825.66 825.66"><defs><style>.cls-1{fill:#4f5737;}.cls-2{fill:#fff;}</style></defs><g id="Layer_2" data-name="Layer 2"><g id="Layer_1-2" data-name="Layer 1"><path class="cls-1" d="M412.83,825.66C185.2,825.66,0,640.47,0,412.83S185.2,0,412.83,0,825.66,185.2,825.66,412.83,640.47,825.66,412.83,825.66Z"/><path class="cls-2" d="M660,350.23a106,106,0,0,0-106-106H279a106,106,0,0,0-106,106V479.1a106,106,0,0,0,106,106H554a106,106,0,0,0,106-106ZM486.53,421.16,376.87,481.3c-4.77,2.58-9.06-.87-9.06-6.29V351.55c0-5.49,4.42-8.93,9.19-6.22l110.42,63.31C492.3,411.42,491.47,418.48,486.53,421.16Z"/></g></g></svg>